{"glyphs":{"0":{"ha":833,"x_min":86,"x_max":792,"o":"m 361 -17 q 152 68 218 -17 q 86 313 86 153 q 94 447 86 374 q 121 596 101 521 q 172 741 140 671 q 252 866 204 811 q 365 953 300 921 q 517 986 431 986 q 726 901 660 986 q 792 657 792 817 q 784 522 792 596 q 757 374 776 449 q 706 228 738 299 q 626 103 674 158 q 513 16 578 49 q 361 -17 447 -17 m 369 83 q 551 169 482 83 q 646 406 621 256 l 672 564 q 680 625 678 596 q 682 678 682 654 q 641 832 682 778 q 508 886 600 886 q 326 800 396 886 q 232 564 257 714 l 206 406 q 198 344 200 374 q 196 292 196 315 q 237 138 196 192 q 369 83 278 83 m 426 404 q 367 419 385 404 q 349 456 349 433 q 350 472 349 463 q 354 494 351 482 q 381 546 360 526 q 451 565 403 565 q 511 551 493 565 q 529 514 529 536 q 528 497 529 507 q 524 475 526 488 q 497 424 518 443 q 426 404 475 404 z "},"1":{"ha":833,"x_min":58,"x_max":724,"o":"m 58 0 l 75 100 l 353 100 l 485 883 l 474 883 l 192 656 l 135 729 l 431 969 l 613 969 l 467 100 l 724 100 l 707 0 l 58 0 z "},"2":{"ha":833,"x_min":40,"x_max":765,"o":"m 685 0 l 40 0 l 60 118 l 432 411 q 528 492 490 457 q 588 558 565 526 q 623 621 611 589 q 642 693 635 653 q 646 738 646 718 q 601 846 646 804 q 475 888 557 888 q 396 874 431 888 q 334 838 361 861 q 286 785 307 815 q 249 721 265 756 l 149 760 q 199 848 169 807 q 271 919 229 889 q 366 968 313 950 q 488 986 419 986 q 604 968 553 986 q 692 917 656 950 q 747 839 728 885 q 765 739 765 793 q 747 629 765 681 q 695 530 729 578 q 612 435 661 482 q 499 340 563 389 l 183 99 l 701 99 l 685 0 z "},"3":{"ha":833,"x_min":33,"x_max":764,"o":"m 407 557 q 565 601 507 557 q 638 719 624 644 q 642 742 640 731 q 643 764 643 753 q 599 855 643 822 q 485 888 556 888 q 351 851 406 888 q 261 763 297 814 l 185 828 q 240 888 210 860 q 307 939 269 917 q 391 974 344 961 q 496 986 438 986 q 605 972 556 986 q 690 931 654 958 q 744 863 725 903 q 764 771 764 822 q 749 684 764 725 q 704 609 733 643 q 632 550 675 575 q 533 513 589 525 l 532 507 q 655 442 606 496 q 704 297 704 389 q 678 178 704 235 q 605 78 653 121 q 488 9 557 35 q 332 -17 419 -17 q 217 -2 265 -17 q 133 37 168 13 q 74 92 97 61 q 33 154 50 122 l 128 213 q 159 161 142 185 q 201 119 176 138 q 261 92 226 101 q 344 82 296 82 q 505 126 444 82 q 579 258 565 171 q 583 285 582 272 q 585 310 585 299 q 540 420 585 381 q 399 460 494 460 l 283 460 l 300 557 l 407 557 z "},"4":{"ha":833,"x_min":21,"x_max":769,"o":"m 468 0 l 500 190 l 21 190 l 39 297 l 585 969 l 739 969 l 624 285 l 769 285 l 754 190 l 608 190 l 576 0 l 468 0 m 143 285 l 515 285 l 611 853 l 606 853 l 143 285 z "},"5":{"ha":833,"x_min":67,"x_max":793,"o":"m 776 871 l 347 871 l 257 497 l 265 497 q 356 574 308 546 q 476 601 403 601 q 665 535 594 601 q 735 350 735 468 q 711 213 735 279 q 640 95 688 146 q 521 14 592 44 q 356 -17 450 -17 q 253 -3 299 -17 q 172 35 208 11 q 110 88 136 58 q 67 149 83 117 l 164 213 q 197 160 179 183 q 239 119 215 136 q 294 93 263 103 q 369 83 325 83 q 531 135 469 83 q 608 282 593 188 q 613 313 611 301 q 614 343 614 325 q 569 463 614 419 q 433 506 524 506 q 321 482 364 506 q 240 424 278 458 l 146 436 l 268 969 l 793 969 l 776 871 z "},"6":{"ha":833,"x_min":85,"x_max":743,"o":"m 360 -17 q 156 62 226 -17 q 85 279 85 140 q 127 495 85 390 q 235 690 169 600 q 383 851 301 779 q 544 969 465 924 l 697 969 q 537 858 608 913 q 408 745 465 804 q 307 618 351 686 q 228 467 263 550 l 235 464 q 340 563 279 522 q 490 603 401 603 q 675 535 607 603 q 743 350 743 468 q 717 213 743 279 q 641 95 690 146 q 521 14 592 44 q 360 -17 450 -17 m 376 81 q 540 135 475 81 q 621 289 604 189 q 625 315 624 301 q 626 344 626 329 q 581 466 626 424 q 447 508 536 508 q 284 454 349 508 q 203 300 219 400 q 199 274 200 288 q 197 244 197 260 q 242 123 197 165 q 376 81 288 81 z "},"7":{"ha":833,"x_min":144,"x_max":836,"o":"m 182 0 l 699 871 l 276 871 l 247 690 l 144 690 l 190 969 l 836 969 l 819 869 l 308 0 l 182 0 z "},"8":{"ha":833,"x_min":57,"x_max":792,"o":"m 354 -17 q 223 1 279 -17 q 130 51 167 19 q 75 126 93 82 q 57 222 57 169 q 120 400 57 325 q 299 506 183 475 l 300 517 q 201 589 235 540 q 167 706 167 638 q 190 808 167 758 q 257 898 213 858 q 367 962 301 938 q 519 986 433 986 q 722 928 653 986 q 792 772 792 871 q 778 692 792 731 q 738 619 764 653 q 672 558 711 585 q 583 515 633 532 l 582 504 q 701 431 660 482 q 743 288 743 381 q 718 172 743 226 q 644 75 693 117 q 522 8 594 33 q 354 -17 449 -17 m 371 81 q 542 128 479 81 q 619 257 606 175 q 624 289 622 276 q 626 317 626 301 q 576 426 626 388 q 432 464 525 464 q 260 417 324 464 q 183 288 197 369 q 178 256 181 268 q 176 228 176 243 q 227 119 176 157 q 371 81 278 81 m 450 557 q 602 600 546 557 q 669 713 658 643 q 674 758 674 738 q 630 855 674 821 q 503 889 586 889 q 351 846 407 889 q 283 733 294 803 q 279 688 279 708 q 323 591 279 625 q 450 557 367 557 z "},"9":{"ha":833,"x_min":121,"x_max":779,"o":"m 779 690 q 737 474 779 579 q 628 280 694 369 q 481 118 563 190 q 319 0 399 46 l 165 0 q 326 111 254 57 q 454 224 397 165 q 556 351 511 283 q 636 503 600 419 l 629 506 q 523 407 583 447 q 374 367 463 367 q 189 434 257 367 q 121 619 121 501 q 147 757 121 690 q 223 874 174 824 q 343 956 272 925 q 504 986 414 986 q 708 908 638 986 q 779 690 779 829 m 417 461 q 580 515 515 461 q 661 669 644 569 q 665 696 664 682 q 667 725 667 710 q 622 847 667 804 q 488 889 576 889 q 324 835 389 889 q 243 681 260 781 q 239 654 240 668 q 238 625 238 640 q 283 503 238 546 q 417 461 328 461 z "},"a":{"ha":833,"x_min":78,"x_max":749,"o":"m 296 -17 q 134 53 190 -17 q 78 261 78 122 q 95 416 78 333 q 151 569 113 499 q 254 687 190 640 q 411 733 318 733 q 540 698 489 733 q 615 592 592 663 l 619 592 l 640 717 l 749 717 l 646 97 l 744 97 l 728 0 l 647 0 q 556 35 581 0 q 540 118 532 69 l 549 169 l 544 169 q 446 34 503 85 q 296 -17 389 -17 m 333 79 q 420 98 378 79 q 499 158 463 117 q 547 232 526 190 q 575 322 567 274 l 601 481 q 567 597 614 556 q 442 638 521 638 q 284 575 342 638 q 210 413 226 513 l 193 313 q 189 278 190 293 q 188 250 188 264 q 224 124 188 169 q 333 79 261 79 z "},"b":{"ha":833,"x_min":74,"x_max":756,"o":"m 246 1028 l 354 1028 l 274 547 l 278 547 q 378 683 319 632 q 532 733 438 733 q 698 664 640 733 q 756 456 756 594 q 738 301 756 383 q 681 147 721 218 q 576 30 642 76 q 417 -17 511 -17 q 284 19 338 -17 q 207 125 231 54 l 203 125 l 182 0 l 74 0 l 246 1028 m 383 79 q 547 142 488 79 q 624 304 607 204 l 640 404 q 644 438 643 424 q 646 467 646 453 q 608 592 646 547 q 494 638 569 638 q 407 619 450 638 q 326 558 364 600 q 277 486 299 528 q 247 394 256 444 l 221 236 q 256 120 208 161 q 383 79 303 79 z "},"c":{"ha":833,"x_min":104,"x_max":724,"o":"m 375 -17 q 258 6 308 -17 q 173 67 207 28 q 122 163 139 107 q 104 286 104 219 q 133 472 104 389 q 213 613 163 554 q 330 702 263 671 q 474 733 397 733 q 573 719 531 733 q 646 683 615 706 q 695 628 676 660 q 724 561 714 596 l 631 525 q 569 615 610 592 q 461 639 528 639 q 312 579 369 639 q 235 407 254 519 l 221 324 q 215 285 217 299 q 214 257 214 271 q 262 122 214 165 q 389 78 310 78 q 437 83 413 78 q 490 107 461 89 q 551 160 518 125 q 628 253 585 194 l 706 207 q 638 110 672 153 q 563 40 603 68 q 477 -2 524 13 q 375 -17 431 -17 z "},"d":{"ha":833,"x_min":78,"x_max":813,"o":"m 560 169 l 556 169 q 455 34 514 85 q 301 -17 396 -17 q 135 53 193 -17 q 78 261 78 122 q 95 416 78 333 q 152 569 113 499 q 257 687 192 640 q 417 733 322 733 q 549 698 496 733 q 626 592 603 663 l 631 592 l 704 1028 l 813 1028 l 640 0 l 532 0 l 560 169 m 339 79 q 426 98 383 79 q 507 158 469 117 q 556 231 535 189 q 586 322 578 272 l 613 481 q 577 597 625 556 q 449 638 529 638 q 285 575 344 638 q 210 413 226 513 l 193 313 q 189 278 190 293 q 188 250 188 264 q 226 124 188 169 q 339 79 264 79 z "},"e":{"ha":833,"x_min":101,"x_max":739,"o":"m 385 -17 q 175 59 249 -17 q 101 290 101 135 q 131 469 101 388 q 212 609 160 550 q 337 701 264 668 q 496 733 410 733 q 593 721 549 733 q 670 684 638 708 q 721 624 703 660 q 739 540 739 588 q 722 463 739 503 q 649 388 704 422 q 491 329 594 353 q 217 301 388 306 q 215 281 215 290 q 215 269 215 272 q 222 197 215 232 q 249 135 229 163 q 303 92 268 108 q 394 76 338 76 q 465 85 433 76 q 524 113 496 94 q 580 162 553 132 q 638 235 607 192 l 714 188 q 576 35 653 88 q 385 -17 499 -17 m 486 643 q 310 578 378 643 q 226 390 242 513 l 225 376 q 435 397 356 381 q 558 435 515 413 q 614 483 600 457 q 628 536 628 510 q 620 578 628 558 q 596 612 613 597 q 552 635 579 626 q 486 643 525 643 z "},"f":{"ha":833,"x_min":-22,"x_max":890,"o":"m 272 -294 q 231 -285 250 -294 q 188 -257 211 -276 q 134 -206 164 -237 q 63 -129 104 -175 l -22 -36 l 51 31 l 265 -197 l 290 -192 l 426 624 l 171 624 l 186 717 l 442 717 l 467 865 q 524 982 478 936 q 650 1028 569 1028 l 890 1028 l 875 935 l 586 935 l 550 717 l 840 717 l 825 624 l 535 624 l 406 -149 q 392 -204 401 -178 q 366 -251 382 -231 q 326 -283 350 -271 q 272 -294 303 -294 z "},"g":{"ha":833,"x_min":43,"x_max":760,"o":"m 294 -294 q 43 -196 122 -294 l 118 -124 q 190 -179 146 -160 q 301 -199 235 -199 q 458 -149 400 -199 q 536 21 517 -99 l 565 193 l 560 193 q 459 57 519 107 q 304 7 399 7 q 136 77 193 7 q 79 279 79 147 q 97 428 79 349 q 156 576 115 508 q 260 688 196 643 q 417 733 324 733 q 549 698 496 733 q 626 592 603 663 l 631 592 l 651 717 l 760 717 l 640 0 q 521 -226 613 -158 q 294 -294 429 -294 m 342 103 q 429 121 386 103 q 511 182 472 139 q 556 245 531 204 q 590 344 581 286 l 613 481 q 577 597 625 556 q 449 638 529 638 q 287 576 347 638 q 210 415 226 515 l 197 340 q 192 308 194 321 q 190 279 190 294 q 228 148 190 193 q 342 103 267 103 z "},"h":{"ha":833,"x_min":82,"x_max":721,"o":"m 254 1028 l 363 1028 l 282 547 l 288 547 q 383 683 328 633 q 526 733 439 733 q 669 679 617 733 q 721 526 721 625 q 719 481 721 506 q 713 433 717 457 l 640 0 l 532 0 l 603 424 q 608 469 607 449 q 610 500 610 489 q 581 601 610 564 q 490 638 551 638 q 406 617 443 638 q 339 560 369 596 q 322 538 333 553 q 297 502 310 524 q 274 453 285 481 q 257 396 263 426 l 190 0 l 82 0 l 254 1028 z "},"i":{"ha":833,"x_min":114,"x_max":749,"o":"m 472 876 q 410 893 428 876 q 392 932 392 910 q 393 950 392 940 q 397 972 394 960 q 425 1022 403 1004 q 489 1039 447 1039 q 551 1022 533 1039 q 569 983 569 1006 q 568 965 569 975 q 564 943 567 956 q 536 894 558 911 q 472 876 514 876 m 378 -17 q 298 10 325 -17 q 271 79 271 38 q 273 108 271 93 q 278 135 275 122 l 372 624 l 114 624 l 129 717 l 499 717 l 378 92 l 410 79 l 683 315 l 749 254 l 622 138 q 538 63 574 92 q 475 15 503 33 q 424 -10 447 -3 q 378 -17 401 -17 z "},"j":{"ha":833,"x_min":81,"x_max":732,"o":"m 382 -294 q 342 -287 361 -294 q 299 -260 322 -279 q 246 -210 276 -242 q 171 -129 215 -178 l 81 -31 l 154 36 l 374 -197 l 399 -192 l 535 624 l 239 624 l 254 717 l 658 717 l 514 -149 q 500 -204 510 -178 q 474 -251 490 -231 q 435 -283 458 -271 q 382 -294 413 -294 m 635 876 q 572 893 590 876 q 554 932 554 910 q 556 950 554 940 q 560 972 557 960 q 588 1022 565 1004 q 651 1039 610 1039 q 714 1022 696 1039 q 732 983 732 1006 q 731 965 732 975 q 726 943 729 956 q 699 894 721 911 q 635 876 676 876 z "},"k":{"ha":833,"x_min":82,"x_max":792,"o":"m 254 1028 l 363 1028 l 282 547 l 288 547 q 385 682 326 631 q 533 733 443 733 q 670 685 619 733 q 721 557 721 638 q 710 488 721 525 q 667 416 699 451 q 578 349 635 381 q 431 296 522 318 l 529 81 l 547 78 l 732 247 l 792 185 l 693 86 q 603 8 639 32 q 526 -17 567 -17 q 466 3 490 -17 q 419 71 442 22 l 307 315 q 452 362 394 336 q 545 415 510 388 q 595 474 581 443 q 610 536 610 504 q 580 613 610 585 q 493 640 550 640 q 403 617 440 640 q 336 558 365 594 q 285 481 306 521 q 257 396 264 440 l 190 0 l 82 0 l 254 1028 z "},"l":{"ha":833,"x_min":149,"x_max":731,"o":"m 346 -17 q 265 11 289 -17 q 242 82 242 39 q 242 104 242 92 q 246 126 243 117 l 401 935 l 149 935 l 164 1028 l 529 1028 l 349 90 l 383 79 l 668 321 l 731 260 l 586 129 q 500 55 536 83 q 437 10 464 26 q 388 -11 410 -6 q 346 -17 367 -17 z "},"m":{"ha":833,"x_min":17,"x_max":789,"o":"m 17 0 l 136 717 l 236 717 l 218 604 l 224 604 q 284 696 249 658 q 379 733 319 733 q 467 694 440 733 q 489 597 493 656 l 493 597 q 563 697 521 660 q 667 733 604 733 q 758 698 726 733 q 789 596 789 663 q 786 550 789 576 q 779 499 783 524 l 696 0 l 596 0 l 676 481 q 683 528 681 506 q 686 567 686 551 q 625 644 686 644 q 574 628 596 644 q 535 589 553 613 q 503 528 515 561 q 485 464 490 496 l 407 0 l 307 0 l 388 481 q 396 563 396 531 q 381 626 396 607 q 338 644 367 644 q 285 628 308 644 q 244 589 261 613 q 213 528 225 561 q 194 464 200 496 l 117 0 l 17 0 z "},"n":{"ha":833,"x_min":82,"x_max":721,"o":"m 82 0 l 201 717 l 310 717 l 282 547 l 288 547 q 383 683 328 633 q 526 733 439 733 q 669 679 617 733 q 721 526 721 625 q 719 481 721 506 q 713 433 717 457 l 640 0 l 532 0 l 603 424 q 608 469 607 449 q 610 500 610 489 q 581 601 610 564 q 490 638 551 638 q 406 617 443 638 q 339 560 369 596 q 322 538 333 553 q 297 502 310 524 q 274 453 285 481 q 257 396 263 426 l 190 0 l 82 0 z "},"o":{"ha":833,"x_min":89,"x_max":744,"o":"m 368 -17 q 247 6 299 -17 q 160 67 194 28 q 107 163 125 107 q 89 286 89 219 q 118 472 89 389 q 198 613 147 554 q 317 702 249 671 q 464 733 385 733 q 586 711 533 733 q 674 649 639 689 q 727 553 710 610 q 744 431 744 497 q 715 245 744 328 q 635 104 686 163 q 516 15 585 46 q 368 -17 447 -17 m 374 78 q 535 140 475 78 q 614 308 596 201 l 628 392 q 633 433 632 417 q 635 463 635 450 q 588 597 635 554 q 460 639 540 639 q 298 577 358 639 q 219 408 238 515 l 206 325 q 200 283 201 300 q 199 254 199 267 q 246 120 199 163 q 374 78 293 78 z "},"p":{"ha":833,"x_min":26,"x_max":756,"o":"m 193 717 l 301 717 l 274 547 l 278 547 q 378 683 319 632 q 532 733 438 733 q 698 664 640 733 q 756 456 756 594 q 738 301 756 383 q 681 147 721 218 q 576 30 642 76 q 417 -17 511 -17 q 284 19 338 -17 q 207 125 231 54 l 203 125 l 135 -278 l 26 -278 l 193 717 m 385 79 q 548 142 489 79 q 624 304 607 204 l 640 404 q 644 438 643 424 q 646 467 646 453 q 608 592 646 547 q 494 638 569 638 q 407 619 450 638 q 326 558 364 600 q 277 486 299 528 q 247 394 256 444 l 221 236 q 256 120 208 161 q 385 79 304 79 z "},"q":{"ha":833,"x_min":78,"x_max":760,"o":"m 560 169 l 556 169 q 455 34 514 85 q 301 -17 396 -17 q 135 53 193 -17 q 78 261 78 122 q 95 416 78 333 q 152 569 113 499 q 257 687 192 640 q 417 733 322 733 q 549 698 496 733 q 626 592 603 663 l 631 592 l 651 717 l 760 717 l 593 -278 l 485 -278 l 560 169 m 339 79 q 426 98 383 79 q 507 158 469 117 q 556 231 535 189 q 586 322 578 272 l 613 481 q 577 597 625 556 q 449 638 529 638 q 285 575 344 638 q 210 413 226 513 l 193 313 q 189 278 190 293 q 188 250 188 264 q 226 124 188 169 q 339 79 264 79 z "},"r":{"ha":833,"x_min":150,"x_max":818,"o":"m 247 0 l 351 624 l 150 624 l 165 717 l 475 717 l 443 525 l 450 525 q 492 603 468 568 q 547 664 515 639 q 618 703 578 689 q 710 717 658 717 l 818 717 l 800 608 l 678 608 q 574 591 615 608 q 500 536 532 574 q 481 513 493 528 q 457 478 469 499 q 434 431 444 457 q 418 374 424 404 l 356 0 l 247 0 z "},"s":{"ha":833,"x_min":67,"x_max":740,"o":"m 372 -17 q 191 18 268 -17 q 67 118 114 53 l 147 182 q 244 102 189 129 q 382 75 300 75 q 532 111 478 75 q 586 213 586 147 q 556 281 586 263 q 482 307 526 300 l 378 322 q 301 338 339 328 q 233 369 263 349 q 184 423 203 390 q 165 506 165 456 q 190 605 165 563 q 256 676 214 647 q 353 719 297 704 q 472 733 408 733 q 633 704 567 733 q 740 624 700 675 l 664 557 q 638 586 654 571 q 598 614 622 601 q 540 634 574 626 q 460 642 506 642 q 319 607 367 642 q 271 514 271 572 q 280 471 271 488 q 304 444 289 454 q 340 428 319 433 q 382 419 360 424 l 483 403 q 555 388 518 397 q 622 360 592 379 q 673 309 653 342 q 693 224 693 276 q 670 124 693 168 q 605 48 647 79 q 503 0 563 17 q 372 -17 444 -17 z "},"t":{"ha":833,"x_min":110,"x_max":736,"o":"m 332 -17 q 256 10 283 -17 q 229 86 229 36 q 230 113 229 96 q 233 140 231 129 l 317 624 l 110 624 l 125 717 l 271 717 q 324 731 307 717 q 349 782 342 746 l 381 969 l 483 969 l 440 717 l 736 717 l 721 624 l 425 624 l 336 93 l 364 76 l 676 285 l 731 215 l 574 104 q 490 47 525 69 q 426 10 454 24 q 375 -10 397 -4 q 332 -17 353 -17 z "},"u":{"ha":833,"x_min":115,"x_max":754,"o":"m 554 169 l 549 169 q 453 33 508 83 q 310 -17 397 -17 q 167 38 219 -17 q 115 190 115 92 q 124 283 115 235 l 196 717 l 304 717 l 233 293 q 228 248 229 268 q 226 217 226 228 q 256 116 226 153 q 346 79 285 79 q 430 100 393 79 q 497 157 467 121 q 515 178 503 164 q 539 215 526 193 q 563 263 551 236 q 579 321 574 290 l 646 717 l 754 717 l 635 0 l 526 0 l 554 169 z "},"v":{"ha":833,"x_min":92,"x_max":751,"o":"m 365 717 l 271 86 l 289 74 q 441 126 375 85 q 551 229 507 168 q 618 365 596 290 q 640 518 640 440 q 631 610 640 565 q 601 694 621 656 l 706 725 q 740 632 728 683 q 751 524 751 581 q 713 317 751 414 q 610 147 675 219 q 458 31 544 74 q 274 -11 371 -11 q 193 15 219 -11 q 167 89 167 42 q 168 114 167 100 q 172 140 169 128 l 244 624 l 92 624 l 107 717 l 365 717 z "},"w":{"ha":833,"x_min":60,"x_max":788,"o":"m 185 -14 q 91 24 122 -14 q 60 128 60 63 q 62 172 60 150 q 68 221 64 193 l 150 717 l 247 717 l 169 240 q 161 154 161 192 q 177 94 161 113 q 224 75 193 75 q 272 90 251 75 q 313 131 293 106 q 342 194 332 158 q 358 258 353 231 l 438 717 l 532 717 l 454 240 q 449 194 450 214 q 447 156 447 174 q 462 94 447 113 q 508 75 476 75 q 581 114 547 75 q 638 215 614 153 q 676 356 663 278 q 690 510 690 433 q 682 613 690 563 q 658 696 674 663 l 750 724 q 777 633 767 688 q 788 515 788 579 q 760 277 788 389 q 679 92 732 165 q 486 -14 603 -14 q 435 -6 458 -14 q 397 19 413 1 q 373 64 381 36 q 368 132 365 92 l 361 132 q 291 25 331 64 q 185 -14 251 -14 z "},"x":{"ha":833,"x_min":10,"x_max":824,"o":"m 147 -17 q 10 149 10 -17 q 10 183 10 161 q 17 242 11 204 l 118 250 q 114 206 115 226 q 113 171 113 186 q 126 94 113 118 q 174 69 140 69 q 257 111 221 69 q 317 214 293 153 q 353 344 342 275 q 365 468 365 413 q 365 505 365 482 q 361 552 364 528 q 354 599 358 576 q 343 638 350 622 l 322 647 l 103 513 l 60 578 l 151 646 q 251 709 204 685 q 342 733 299 733 q 404 711 382 733 q 437 653 426 689 q 449 574 447 618 q 451 488 451 531 l 461 486 q 546 676 489 618 q 686 733 603 733 q 824 568 824 733 q 823 533 824 556 q 817 475 822 511 l 715 467 q 719 510 718 490 q 721 546 721 531 q 707 623 721 599 q 660 647 693 647 q 576 606 611 647 q 516 503 540 564 q 480 373 492 442 q 468 249 468 304 q 469 211 468 233 q 472 165 469 189 q 480 117 475 140 q 493 79 485 94 l 514 69 l 719 214 l 765 150 l 696 90 q 573 4 619 25 q 494 -17 526 -17 q 430 5 453 -17 q 397 61 407 26 q 384 140 386 96 q 382 229 382 185 l 372 231 q 288 41 344 99 q 147 -17 231 -17 z "},"y":{"ha":833,"x_min":38,"x_max":754,"o":"m 289 -294 q 38 -196 117 -294 l 113 -124 q 185 -179 140 -160 q 296 -199 229 -199 q 453 -148 396 -199 q 531 21 511 -97 l 558 190 l 554 190 q 458 54 514 104 q 314 4 401 4 q 171 58 224 4 q 118 211 118 113 q 120 251 118 231 q 126 300 122 272 l 196 717 l 304 717 l 236 310 q 231 267 232 286 q 229 238 229 249 q 259 137 229 174 q 350 100 289 100 q 434 121 397 100 q 501 178 471 142 q 519 199 507 185 q 543 235 531 214 q 567 284 556 257 q 583 342 578 311 l 646 717 l 754 717 l 635 0 q 515 -226 607 -158 q 289 -294 424 -294 z "},"z":{"ha":833,"x_min":71,"x_max":776,"o":"m 590 -14 q 528 -8 561 -14 q 450 14 494 -1 l 201 97 l 194 92 l 181 0 l 71 0 l 86 108 l 583 565 q 445 625 497 608 q 354 642 393 642 q 290 628 314 642 q 252 590 265 614 q 235 536 239 567 q 231 474 231 506 l 142 474 l 142 490 q 198 671 142 608 q 358 733 254 733 q 477 711 417 733 q 618 640 538 689 l 646 624 l 653 629 l 667 717 l 776 717 l 761 611 l 264 156 l 618 74 l 633 89 l 590 278 l 669 306 l 692 250 q 717 176 707 214 q 728 106 728 138 q 692 23 728 60 q 590 -14 656 -14 z "},"A":{"ha":833,"x_min":-12,"x_max":733,"o":"m 614 0 l 579 276 l 238 276 l 110 0 l -12 0 l 446 969 l 599 969 l 733 0 l 614 0 m 508 853 l 496 853 l 281 378 l 568 378 l 508 853 z "},"B":{"ha":833,"x_min":64,"x_max":772,"o":"m 226 969 l 539 969 q 713 909 653 969 q 772 746 772 849 q 721 590 772 650 q 589 508 669 531 l 588 503 q 647 478 619 493 q 695 439 675 463 q 726 383 715 415 q 738 308 738 351 q 715 192 738 247 q 653 94 693 136 q 558 26 614 51 q 435 0 501 0 l 64 0 l 226 969 m 411 100 q 545 136 494 100 q 608 247 596 172 l 615 289 q 619 314 618 301 q 621 340 621 326 q 581 424 621 393 q 469 454 542 454 l 253 454 l 193 100 l 411 100 m 467 549 q 590 583 546 549 q 644 679 633 617 l 651 721 q 656 765 656 746 q 619 845 656 821 q 519 869 582 869 l 321 869 l 268 549 l 467 549 z "},"C":{"ha":833,"x_min":108,"x_max":808,"o":"m 399 -17 q 178 74 247 -17 q 108 333 108 164 q 116 459 108 389 q 143 602 124 529 q 194 744 163 675 q 274 867 226 813 q 389 953 322 921 q 543 986 456 986 q 657 967 610 986 q 735 916 704 947 q 783 846 767 885 q 808 767 800 807 l 706 733 q 687 792 699 764 q 656 840 675 819 q 607 874 636 861 q 535 886 578 886 q 349 798 418 886 q 256 560 281 710 l 233 426 q 225 364 228 394 q 222 304 222 333 q 267 144 222 204 q 411 83 311 83 q 485 95 453 83 q 544 131 517 107 q 596 190 571 154 q 649 275 621 226 l 739 229 q 679 126 711 172 q 606 49 647 81 q 515 0 565 17 q 399 -17 464 -17 z "},"D":{"ha":833,"x_min":76,"x_max":785,"o":"m 239 969 l 476 969 q 610 946 553 969 q 707 881 668 922 q 765 781 746 839 q 785 657 785 724 q 754 364 785 488 q 666 159 724 240 q 527 39 608 78 q 344 0 446 0 l 76 0 l 239 969 m 354 100 q 639 401 589 100 l 661 535 q 668 592 665 560 q 671 654 671 625 q 618 815 671 760 q 463 869 565 869 l 336 869 l 207 100 l 354 100 z "},"E":{"ha":833,"x_min":65,"x_max":822,"o":"m 65 0 l 228 969 l 822 969 l 806 869 l 325 869 l 269 542 l 735 542 l 718 442 l 253 442 l 196 100 l 679 100 l 663 0 l 65 0 z "},"F":{"ha":833,"x_min":65,"x_max":836,"o":"m 65 0 l 228 969 l 836 969 l 819 869 l 325 869 l 269 540 l 724 540 l 707 440 l 253 440 l 179 0 l 65 0 z "},"G":{"ha":833,"x_min":92,"x_max":792,"o":"m 585 142 l 578 142 q 537 81 558 110 q 488 30 515 51 q 424 -4 460 8 q 342 -17 389 -17 q 155 72 218 -17 q 92 333 92 160 q 99 459 92 389 q 126 602 107 529 q 178 744 146 675 q 258 867 210 813 q 373 953 307 921 q 526 986 439 986 q 640 967 593 986 q 719 916 688 947 q 767 846 750 885 q 792 767 783 807 l 689 733 q 670 792 682 764 q 639 840 658 819 q 590 874 619 861 q 518 886 561 886 q 412 863 458 886 q 331 797 365 839 q 274 694 297 754 q 239 558 251 633 l 217 425 q 210 362 211 393 q 208 313 208 331 q 247 143 208 206 q 378 81 286 81 q 467 99 428 81 q 537 149 507 118 q 585 222 567 181 q 613 311 604 264 l 625 386 l 422 386 l 438 478 l 746 478 l 667 0 l 561 0 l 585 142 z "},"H":{"ha":833,"x_min":54,"x_max":822,"o":"m 619 442 l 242 442 l 168 0 l 54 0 l 217 969 l 331 969 l 258 542 l 636 542 l 708 969 l 822 969 l 660 0 l 546 0 l 619 442 z "},"I":{"ha":833,"x_min":57,"x_max":819,"o":"m 57 0 l 72 92 l 315 92 l 447 878 l 204 878 l 219 969 l 819 969 l 804 878 l 561 878 l 429 92 l 672 92 l 657 0 l 57 0 z "},"J":{"ha":833,"x_min":81,"x_max":768,"o":"m 768 969 l 646 236 q 544 44 624 106 q 346 -17 464 -17 q 163 40 233 -17 q 81 210 92 97 l 190 233 q 203 176 194 203 q 228 128 211 149 q 275 97 246 108 q 349 85 304 85 q 538 271 507 85 l 638 869 l 285 869 l 301 969 l 768 969 z "},"K":{"ha":833,"x_min":60,"x_max":896,"o":"m 399 479 l 225 307 l 174 0 l 60 0 l 222 969 l 336 969 l 251 465 l 257 465 l 443 663 l 751 969 l 896 969 l 482 558 l 736 0 l 611 0 l 399 479 z "},"L":{"ha":833,"x_min":108,"x_max":699,"o":"m 108 0 l 271 969 l 383 969 l 239 100 l 699 100 l 682 0 l 108 0 z "},"M":{"ha":833,"x_min":36,"x_max":840,"o":"m 656 486 l 708 797 l 699 797 l 406 297 l 282 797 l 272 797 l 221 486 l 140 0 l 36 0 l 199 969 l 338 969 l 440 540 l 449 540 l 694 969 l 840 969 l 678 0 l 574 0 l 656 486 z "},"N":{"ha":833,"x_min":54,"x_max":822,"o":"m 310 836 l 300 836 l 160 0 l 54 0 l 217 969 l 382 969 l 567 133 l 576 133 l 717 969 l 822 969 l 660 0 l 494 0 l 310 836 z "},"O":{"ha":833,"x_min":86,"x_max":792,"o":"m 361 -17 q 152 68 218 -17 q 86 313 86 153 q 94 447 86 374 q 120 596 101 521 q 171 741 139 671 q 251 866 203 811 q 364 953 299 921 q 517 986 429 986 q 726 901 660 986 q 792 657 792 817 q 784 522 792 596 q 758 374 776 449 q 707 228 739 299 q 627 103 675 158 q 513 16 579 49 q 361 -17 447 -17 m 369 83 q 550 169 482 83 q 643 406 618 256 l 669 564 q 677 625 675 596 q 679 678 679 654 q 640 832 679 778 q 508 886 600 886 q 328 800 396 886 q 235 564 260 714 l 208 406 q 201 344 203 374 q 199 292 199 315 q 238 138 199 192 q 369 83 278 83 z "},"P":{"ha":833,"x_min":65,"x_max":811,"o":"m 65 0 l 228 969 l 574 969 q 753 906 696 969 q 811 742 811 843 q 728 499 811 586 q 493 413 646 413 l 249 413 l 179 0 l 65 0 m 265 513 l 504 513 q 627 550 583 513 q 682 650 671 588 l 690 700 q 694 754 694 725 q 659 841 694 813 q 560 869 624 869 l 325 869 l 265 513 z "},"Q":{"ha":833,"x_min":86,"x_max":792,"o":"m 533 -253 q 480 -235 501 -253 q 439 -190 458 -218 l 318 -14 q 142 81 197 -3 q 86 313 86 165 q 94 447 86 374 q 120 596 101 521 q 171 741 139 671 q 251 866 203 811 q 364 953 299 921 q 517 986 429 986 q 726 901 660 986 q 792 657 792 817 q 785 531 792 599 q 762 394 778 464 q 719 259 746 325 q 654 138 693 193 q 562 44 615 83 q 439 -8 508 6 l 539 -158 l 557 -162 l 696 -37 l 757 -89 l 672 -169 q 633 -206 650 -190 q 599 -233 615 -222 q 568 -248 583 -243 q 533 -253 553 -253 m 369 83 q 550 169 482 83 q 643 406 618 256 l 669 564 q 677 625 675 596 q 679 678 679 654 q 640 832 679 778 q 508 886 600 886 q 328 800 396 886 q 235 564 260 714 l 208 406 q 201 344 203 374 q 199 292 199 315 q 238 138 199 192 q 369 83 278 83 z "},"R":{"ha":833,"x_min":65,"x_max":811,"o":"m 179 0 l 65 0 l 228 969 l 574 969 q 753 906 696 969 q 811 742 811 843 q 735 513 811 596 q 519 419 658 429 l 696 0 l 572 0 l 407 415 l 249 415 l 179 0 m 504 513 q 623 547 575 513 q 682 650 671 581 l 690 700 q 694 754 694 725 q 659 841 694 813 q 560 869 624 869 l 325 869 l 265 513 l 504 513 z "},"S":{"ha":833,"x_min":35,"x_max":810,"o":"m 369 -17 q 160 31 243 -17 q 35 154 78 79 l 121 222 q 226 117 165 151 q 375 82 288 82 q 556 137 489 82 q 622 285 622 192 q 588 381 622 344 q 469 436 554 417 l 365 460 q 197 544 250 486 q 144 697 144 603 q 170 817 144 764 q 242 908 196 871 q 351 966 288 946 q 493 986 415 986 q 606 974 556 986 q 696 939 657 961 q 763 888 735 917 q 810 826 790 860 l 726 765 q 628 858 686 826 q 488 889 571 889 q 322 840 382 889 q 261 706 261 790 q 301 606 261 639 q 418 554 340 572 l 519 531 q 690 443 640 503 q 739 294 739 383 q 713 168 739 225 q 640 70 688 111 q 523 6 592 29 q 369 -17 454 -17 z "},"T":{"ha":833,"x_min":121,"x_max":901,"o":"m 560 869 l 414 0 l 300 0 l 446 869 l 121 869 l 138 969 l 901 969 l 885 869 l 560 869 z "},"U":{"ha":833,"x_min":101,"x_max":822,"o":"m 328 969 l 235 414 q 224 349 228 376 q 218 303 221 322 q 215 268 215 283 q 214 240 214 253 q 221 175 214 204 q 245 126 228 146 q 293 94 263 106 q 369 83 324 83 q 479 103 438 83 q 546 160 521 122 q 584 254 571 199 q 610 381 597 310 l 708 969 l 822 969 l 728 404 q 688 217 710 296 q 628 85 665 138 q 530 8 590 33 q 374 -17 469 -17 q 163 47 225 -17 q 101 231 101 111 q 109 333 101 275 q 126 449 117 392 l 214 969 l 328 969 z "},"V":{"ha":833,"x_min":151,"x_max":882,"o":"m 279 0 l 151 969 l 260 969 l 321 485 l 369 113 l 376 113 l 544 485 l 763 969 l 882 969 l 435 0 l 279 0 z "},"W":{"ha":833,"x_min":64,"x_max":885,"o":"m 64 0 l 149 969 l 250 969 l 199 424 l 169 114 l 181 114 l 407 717 l 538 717 l 567 114 l 578 114 l 649 414 l 781 969 l 885 969 l 647 0 l 479 0 l 458 585 l 447 585 l 232 0 l 64 0 z "},"X":{"ha":833,"x_min":-22,"x_max":893,"o":"m 740 0 l 618 0 l 529 196 l 435 403 l 429 403 l 265 196 l 111 0 l -22 0 l 382 500 l 158 969 l 281 969 l 367 782 l 456 590 l 461 590 l 613 782 l 760 969 l 893 969 l 510 490 l 740 0 z "},"Y":{"ha":833,"x_min":125,"x_max":911,"o":"m 300 0 l 364 378 l 125 969 l 247 969 l 346 715 l 428 492 l 433 492 l 593 715 l 775 969 l 911 969 l 479 388 l 414 0 l 300 0 z "},"Z":{"ha":833,"x_min":7,"x_max":846,"o":"m 706 0 l 7 0 l 24 103 l 699 869 l 179 869 l 196 969 l 846 969 l 829 867 l 154 100 l 722 100 l 706 0 z "},"&":{"ha":833,"x_min":1,"x_max":817,"o":"m 228 -17 q 131 2 174 -17 q 60 55 89 21 q 16 135 31 89 q 1 238 1 182 q 13 335 1 285 q 54 429 25 386 q 134 502 83 472 q 264 539 185 532 q 218 647 232 603 q 204 738 204 690 q 224 840 204 794 q 277 919 243 886 q 358 969 311 951 q 463 986 406 986 q 627 928 563 986 q 692 753 692 871 q 617 548 692 621 q 418 454 542 475 l 608 82 l 632 82 l 740 261 l 817 222 l 747 93 q 685 8 715 33 q 615 -17 656 -17 q 517 34 556 -17 q 447 188 479 85 l 440 188 q 410 87 432 126 q 358 24 388 47 q 295 -8 329 1 q 228 -17 261 -17 m 244 78 q 361 122 322 78 q 414 231 400 167 l 290 485 q 211 461 242 478 q 163 422 181 444 q 137 374 146 400 q 124 324 128 349 q 118 280 119 301 q 117 243 117 258 q 149 115 117 153 q 244 78 181 78 m 454 896 q 352 859 392 896 q 313 740 313 822 q 328 648 313 694 q 378 535 343 601 l 393 506 q 567 647 528 539 q 579 702 576 675 q 582 749 582 729 q 546 863 582 831 q 454 896 510 896 z "},"@":{"ha":833,"x_min":79,"x_max":781,"o":"m 568 -156 l 406 -156 q 253 -131 315 -156 q 152 -60 190 -107 q 97 58 114 -12 q 79 221 79 129 q 104 469 79 317 q 160 707 126 608 q 240 867 193 806 q 349 958 286 929 q 494 986 413 986 q 621 966 567 986 q 710 910 675 946 q 763 826 746 875 q 781 722 781 778 q 778 684 781 703 q 774 643 776 665 l 689 126 l 592 126 l 611 244 l 606 244 q 547 149 586 189 q 444 110 508 110 q 339 161 379 110 q 299 329 299 213 q 314 465 299 397 q 358 586 329 533 q 432 672 388 639 q 535 706 476 706 q 623 675 592 706 q 664 596 654 644 l 669 596 l 676 640 q 681 680 679 660 q 683 718 683 700 q 642 851 683 801 q 496 901 600 901 q 403 885 446 901 q 325 829 360 869 q 264 721 290 789 q 221 550 238 653 l 186 339 q 181 302 183 324 q 178 259 179 281 q 177 219 178 238 q 176 192 176 201 q 188 82 176 131 q 226 0 199 33 q 297 -51 253 -33 q 410 -68 342 -68 l 581 -68 l 568 -156 m 482 192 q 538 207 514 192 q 581 249 561 222 q 613 306 600 276 q 632 374 625 336 l 656 514 q 656 551 658 532 q 641 587 653 571 q 609 613 629 603 q 558 624 589 624 q 467 581 499 624 q 419 450 435 538 l 406 367 q 401 331 403 347 q 400 303 400 315 q 422 219 400 246 q 482 192 443 192 z "},"-":{"ha":833,"x_min":218,"x_max":635,"o":"m 218 365 l 238 479 l 635 479 l 615 365 l 218 365 z "},"­":{"ha":833,"x_min":218,"x_max":635,"o":"m 218 365 l 238 479 l 635 479 l 615 365 l 218 365 z "},"–":{"ha":833,"x_min":88,"x_max":764,"o":"m 88 372 l 104 472 l 764 472 l 747 372 l 88 372 z "},"—":{"ha":833,"x_min":6,"x_max":847,"o":"m 6 372 l 22 472 l 847 472 l 831 372 l 6 372 z "},"_":{"ha":833,"x_min":3,"x_max":679,"o":"m 3 -232 l 19 -132 l 679 -132 l 663 -232 l 3 -232 z "},".":{"ha":833,"x_min":267,"x_max":475,"o":"m 357 -12 q 288 6 308 -12 q 267 50 267 24 q 268 70 267 58 q 272 94 269 82 q 306 154 279 132 q 385 176 332 176 q 454 158 433 176 q 475 114 475 140 q 474 94 475 106 q 469 69 472 82 q 436 10 463 32 q 357 -12 410 -12 z "},"…":{"ha":833,"x_min":14,"x_max":729,"o":"m 92 -6 q 31 11 47 -6 q 14 53 14 28 q 16 74 14 64 q 21 104 18 85 q 48 156 26 136 q 114 175 69 175 q 176 158 158 175 q 193 117 193 142 q 191 95 193 106 q 186 65 189 85 q 158 14 181 33 q 92 -6 136 -6 m 360 -6 q 299 11 315 -6 q 282 53 282 28 q 284 74 282 64 q 289 104 286 85 q 316 156 294 136 q 382 175 338 175 q 444 158 426 175 q 461 117 461 142 q 459 95 461 106 q 454 65 457 85 q 426 14 449 33 q 360 -6 404 -6 m 628 -6 q 567 11 583 -6 q 550 53 550 28 q 552 74 550 64 q 557 104 554 85 q 584 156 563 136 q 650 175 606 175 q 712 158 694 175 q 729 117 729 142 q 727 95 729 106 q 722 65 725 85 q 694 14 717 33 q 628 -6 672 -6 z "},":":{"ha":833,"x_min":267,"x_max":567,"o":"m 357 -12 q 288 6 308 -12 q 267 50 267 24 q 268 70 267 58 q 272 94 269 82 q 306 154 279 132 q 385 176 332 176 q 454 158 433 176 q 475 114 475 140 q 474 94 475 106 q 469 69 472 82 q 436 10 463 32 q 357 -12 410 -12 m 449 540 q 379 558 400 540 q 358 603 358 576 q 360 623 358 611 q 364 647 361 635 q 397 707 371 685 q 476 729 424 729 q 546 711 525 729 q 567 667 567 693 q 565 647 567 658 q 561 622 564 635 q 528 563 554 585 q 449 540 501 540 z "},",":{"ha":833,"x_min":193,"x_max":506,"o":"m 329 188 l 506 188 l 285 -196 l 193 -196 l 329 188 z "},";":{"ha":833,"x_min":193,"x_max":567,"o":"m 329 188 l 506 188 l 285 -196 l 193 -196 l 329 188 m 449 540 q 379 558 400 540 q 358 603 358 576 q 360 623 358 611 q 364 647 361 635 q 397 707 371 685 q 476 729 424 729 q 546 711 525 729 q 567 667 567 693 q 565 647 567 658 q 561 622 564 635 q 528 563 554 585 q 449 540 501 540 z "},"'":{"ha":833,"x_min":413,"x_max":579,"o":"m 413 644 l 476 1028 l 579 1028 l 515 644 l 413 644 z "},"\"":{"ha":833,"x_min":293,"x_max":701,"o":"m 293 644 l 357 1028 l 460 1028 l 396 644 l 293 644 m 535 644 l 599 1028 l 701 1028 l 638 644 l 535 644 z "},"‘":{"ha":833,"x_min":322,"x_max":635,"o":"m 543 1028 l 635 1028 l 499 644 l 322 644 l 543 1028 z "},"’":{"ha":833,"x_min":361,"x_max":674,"o":"m 497 1028 l 674 1028 l 453 644 l 361 644 l 497 1028 z "},"“":{"ha":833,"x_min":165,"x_max":810,"o":"m 386 1028 l 478 1028 l 342 644 l 165 644 l 386 1028 m 718 1028 l 810 1028 l 674 644 l 497 644 l 718 1028 z "},"”":{"ha":833,"x_min":204,"x_max":849,"o":"m 340 1028 l 517 1028 l 296 644 l 204 644 l 340 1028 m 672 1028 l 849 1028 l 628 644 l 536 644 l 672 1028 z "},"‚":{"ha":833,"x_min":193,"x_max":506,"o":"m 329 188 l 506 188 l 285 -196 l 193 -196 l 329 188 z "},"„":{"ha":833,"x_min":63,"x_max":707,"o":"m 199 188 l 375 188 l 154 -196 l 63 -196 l 199 188 m 531 188 l 707 188 l 486 -196 l 394 -196 l 531 188 z "},"‹":{"ha":833,"x_min":231,"x_max":593,"o":"m 474 79 l 231 321 l 249 429 l 572 671 l 593 588 l 353 368 l 521 149 l 474 79 z "},"›":{"ha":833,"x_min":247,"x_max":610,"o":"m 247 163 l 488 382 l 319 601 l 367 671 l 610 429 l 592 321 l 268 79 l 247 163 z "},"«":{"ha":833,"x_min":97,"x_max":778,"o":"m 340 79 l 97 321 l 115 429 l 439 671 l 460 588 l 219 368 l 388 149 l 340 79 m 658 79 l 415 321 l 433 429 l 757 671 l 778 588 l 538 368 l 706 149 l 658 79 z "},"»":{"ha":833,"x_min":64,"x_max":744,"o":"m 64 163 l 304 382 l 136 601 l 183 671 l 426 429 l 408 321 l 85 79 l 64 163 m 382 163 l 622 382 l 454 601 l 501 671 l 744 429 l 726 321 l 403 79 l 382 163 z "},"¡":{"ha":833,"x_min":254,"x_max":567,"o":"m 254 -253 l 301 29 l 401 393 l 444 393 l 421 29 l 374 -253 l 254 -253 m 449 540 q 379 558 400 540 q 358 601 358 575 q 360 618 358 608 q 364 647 361 628 q 396 707 371 685 q 476 729 421 729 q 546 712 525 729 q 567 668 567 694 q 565 651 567 661 q 561 622 564 642 q 529 563 554 585 q 449 540 504 540 z "},"!":{"ha":833,"x_min":267,"x_max":579,"o":"m 389 324 l 413 688 l 460 969 l 579 969 l 532 688 l 432 324 l 389 324 m 357 -12 q 288 5 308 -12 q 267 49 267 22 q 268 65 267 56 q 272 94 269 75 q 304 154 279 132 q 385 176 329 176 q 454 159 433 176 q 475 115 475 142 q 474 99 475 108 q 469 69 472 89 q 438 10 463 32 q 357 -12 413 -12 z "},"¿":{"ha":833,"x_min":64,"x_max":657,"o":"m 331 -269 q 134 -206 204 -269 q 64 -37 64 -143 q 89 88 64 33 q 156 181 114 142 q 256 245 199 221 q 381 279 314 269 l 404 418 l 511 418 l 475 200 q 350 176 401 190 q 265 138 299 161 q 212 82 231 115 q 185 1 193 49 q 182 -24 182 -11 q 182 -39 182 -36 q 225 -135 182 -100 q 340 -171 268 -171 q 480 -124 429 -171 q 558 -6 531 -78 l 657 -47 q 613 -131 640 -92 q 544 -202 585 -171 q 451 -251 504 -233 q 331 -269 399 -269 m 475 540 q 406 558 426 540 q 385 603 385 576 q 386 623 385 611 q 390 647 388 635 q 424 707 397 685 q 503 729 450 729 q 572 711 551 729 q 593 667 593 693 q 592 647 593 658 q 588 622 590 635 q 554 563 581 585 q 475 540 528 540 z "},"?":{"ha":833,"x_min":178,"x_max":771,"o":"m 324 299 l 360 517 q 485 541 433 526 q 570 578 536 556 q 623 635 604 601 q 650 715 642 668 q 653 740 653 728 q 653 756 653 753 q 610 852 653 817 q 494 888 567 888 q 355 841 406 888 q 276 722 304 794 l 178 764 q 222 847 194 807 q 290 919 250 888 q 383 968 331 950 q 504 986 436 986 q 701 923 631 986 q 771 754 771 860 q 746 629 771 683 q 678 535 721 575 q 578 472 636 496 q 454 438 521 447 l 431 299 l 324 299 m 332 -12 q 263 6 283 -12 q 242 50 242 24 q 243 70 242 58 q 247 94 244 82 q 281 154 254 132 q 360 176 307 176 q 429 158 408 176 q 450 114 450 140 q 449 94 450 106 q 444 69 447 82 q 411 10 438 32 q 332 -12 385 -12 z "},"(":{"ha":833,"x_min":286,"x_max":803,"o":"m 286 300 q 320 535 286 421 q 410 747 354 649 q 537 926 465 846 q 685 1056 608 1006 l 803 1056 q 669 947 733 1008 q 551 814 604 886 q 461 660 499 742 q 410 492 424 579 l 390 374 q 382 271 382 324 q 399 131 382 197 q 444 5 415 64 q 511 -103 472 -54 q 596 -192 550 -153 l 489 -192 q 409 -104 446 -156 q 345 10 372 -53 q 302 146 318 72 q 286 300 286 219 z "},")":{"ha":833,"x_min":57,"x_max":574,"o":"m 574 564 q 540 329 574 443 q 450 116 506 215 q 323 -62 394 17 q 175 -192 251 -142 l 57 -192 q 191 -83 126 -144 q 308 50 256 -22 q 398 203 361 122 q 450 372 435 285 l 469 490 q 478 593 478 540 q 461 733 478 665 q 416 859 444 800 q 349 967 388 918 q 264 1056 310 1017 l 371 1056 q 451 968 414 1019 q 515 854 488 917 q 558 718 542 792 q 574 564 574 644 z "},"[":{"ha":833,"x_min":222,"x_max":814,"o":"m 222 -192 l 431 1056 l 814 1056 l 800 971 l 510 971 l 331 -107 l 619 -107 l 606 -192 l 222 -192 z "},"]":{"ha":833,"x_min":14,"x_max":606,"o":"m 606 1056 l 397 -192 l 14 -192 l 28 -107 l 318 -107 l 497 971 l 207 971 l 222 1056 l 606 1056 z "},"{":{"ha":833,"x_min":154,"x_max":801,"o":"m 351 -192 q 278 -166 301 -192 q 254 -103 254 -140 q 255 -94 254 -99 q 257 -77 256 -89 q 261 -45 258 -65 q 269 10 264 -25 q 287 75 275 47 q 314 125 299 103 q 346 165 329 147 q 378 197 363 182 q 425 255 414 233 q 436 299 436 276 q 289 390 436 390 l 154 390 l 168 474 l 303 474 q 438 502 392 474 q 485 588 485 531 q 457 667 485 624 q 424 724 440 694 q 407 807 407 754 q 408 819 407 813 q 410 841 408 826 q 415 879 411 856 q 425 943 418 903 q 467 1024 432 992 q 558 1056 503 1056 l 801 1056 l 788 971 l 524 971 q 511 897 515 925 q 505 853 507 869 q 502 831 503 838 q 501 819 501 824 q 512 761 501 783 q 536 715 522 739 q 565 659 551 689 q 579 590 579 629 q 536 487 579 528 q 406 432 493 446 l 406 426 q 500 388 468 419 q 532 308 532 357 q 506 225 532 261 q 442 149 479 189 q 393 89 414 119 q 363 1 372 58 l 344 -107 l 607 -107 l 593 -192 l 351 -192 z "},"}":{"ha":833,"x_min":60,"x_max":707,"o":"m 510 1056 q 583 1030 560 1056 q 607 967 607 1004 q 606 957 607 963 q 604 940 606 951 q 600 909 603 929 q 592 854 597 889 q 574 788 586 817 q 547 738 563 760 q 515 699 532 717 q 483 667 499 682 q 436 609 447 631 q 425 565 425 588 q 572 474 425 474 l 707 474 l 693 390 l 558 390 q 423 362 469 390 q 376 276 376 333 q 404 197 376 240 q 438 140 421 169 q 454 57 454 110 q 453 44 454 51 q 451 23 453 38 q 446 -16 450 8 q 436 -79 442 -40 q 394 -160 429 -128 q 303 -192 358 -192 l 60 -192 l 74 -107 l 338 -107 q 350 -33 346 -61 q 356 10 354 -6 q 359 33 358 26 q 360 44 360 40 q 349 103 360 81 q 325 149 338 125 q 296 205 310 175 q 282 274 282 235 q 325 377 282 336 q 456 432 368 418 l 456 438 q 361 476 393 444 q 329 556 329 507 q 356 639 329 603 q 419 715 382 675 q 445 744 433 729 q 467 775 457 758 q 486 813 478 792 q 499 863 494 833 l 517 971 l 254 971 l 268 1056 l 510 1056 z "},"/":{"ha":833,"x_min":35,"x_max":825,"o":"m 35 -192 l 724 1056 l 825 1056 l 135 -192 l 35 -192 z "},"\\":{"ha":833,"x_min":253,"x_max":615,"o":"m 528 -192 l 253 1056 l 340 1056 l 615 -192 l 528 -192 z "},"⁄":{"ha":833,"x_min":-33,"x_max":911,"o":"m 811 969 l 911 969 l 621 553 l 521 553 l 811 969 m 257 417 l 357 417 l 67 0 l -33 0 l 257 417 z "},"∕":{"ha":833,"x_min":-33,"x_max":911,"o":"m 811 969 l 911 969 l 621 553 l 521 553 l 811 969 m 257 417 l 357 417 l 67 0 l -33 0 l 257 417 z "},"%":{"ha":833,"x_min":-33,"x_max":911,"o":"m 267 496 q 136 545 185 496 q 88 694 88 594 q 106 813 88 760 q 158 906 125 867 q 236 965 192 944 q 331 986 281 986 q 461 937 413 986 q 510 788 510 888 q 491 669 510 722 q 439 576 472 615 q 361 517 406 538 q 267 496 317 496 m 269 569 q 360 606 328 569 q 404 706 393 643 q 417 781 414 761 q 419 811 419 800 q 328 913 419 913 q 237 876 269 913 q 193 776 204 839 q 185 731 189 749 q 181 701 182 713 q 178 683 179 690 q 178 671 178 676 q 269 569 178 569 m 811 969 l 911 969 l 621 553 l 521 553 l 811 969 m 257 417 l 357 417 l 67 0 l -33 0 l 257 417 m 547 -17 q 417 33 465 -17 q 368 182 368 82 q 387 301 368 247 q 439 393 406 354 q 517 453 472 432 q 611 474 561 474 q 742 424 693 474 q 790 275 790 375 q 772 156 790 210 q 719 64 753 103 q 642 4 686 25 q 547 -17 597 -17 m 550 57 q 641 94 608 57 q 685 193 674 131 q 697 268 694 249 q 700 299 700 288 q 608 400 700 400 q 517 363 550 400 q 474 264 485 326 q 466 218 469 236 q 461 189 463 200 q 459 171 460 178 q 458 158 458 164 q 550 57 458 57 z "},"‰":{"ha":833,"x_min":64,"x_max":804,"o":"m 231 556 q 107 602 150 556 q 64 724 64 649 q 125 918 64 850 q 289 986 186 986 q 413 940 369 986 q 456 818 456 893 q 394 624 456 692 q 231 556 333 556 m 238 624 q 319 657 293 624 q 353 740 344 690 q 360 785 357 768 q 364 813 363 803 q 365 826 365 822 q 365 835 365 831 q 342 894 365 871 q 282 918 318 918 q 201 885 226 918 q 167 801 175 851 q 160 756 163 774 q 156 729 157 739 q 154 715 154 719 q 154 707 154 711 q 178 647 154 671 q 238 624 201 624 m 96 451 l 756 697 l 776 628 l 117 382 l 96 451 m 290 -17 q 167 30 210 -17 q 124 151 124 76 q 185 346 124 278 q 349 414 246 414 q 432 395 397 414 q 485 344 467 376 l 492 344 q 554 396 519 378 q 638 414 589 414 q 761 367 718 414 q 804 246 804 321 q 743 51 804 119 q 579 -17 682 -17 q 495 2 531 -17 q 444 54 460 21 l 438 54 q 374 2 410 21 q 290 -17 339 -17 m 297 51 q 378 85 353 51 q 413 168 404 118 q 419 213 417 196 q 424 240 422 231 q 425 254 425 250 q 425 263 425 258 q 401 322 425 299 q 342 346 378 346 q 260 313 286 346 q 226 229 235 279 q 219 184 222 201 q 215 157 217 167 q 214 143 214 147 q 214 135 214 139 q 238 75 214 99 q 297 51 261 51 m 586 51 q 667 85 642 51 q 701 168 693 118 q 708 213 706 196 q 713 240 711 231 q 714 254 714 250 q 714 263 714 258 q 690 322 714 299 q 631 346 667 346 q 549 313 575 346 q 515 229 524 279 q 508 184 511 201 q 504 157 506 167 q 503 143 503 147 q 503 135 503 139 q 526 75 503 99 q 586 51 550 51 z "},"|":{"ha":833,"x_min":278,"x_max":581,"o":"m 278 -192 l 486 1056 l 581 1056 l 372 -192 l 278 -192 z "},"¦":{"ha":833,"x_min":278,"x_max":581,"o":"m 403 556 l 486 1056 l 581 1056 l 497 556 l 403 556 m 278 -192 l 361 308 l 456 308 l 372 -192 l 278 -192 z "},"§":{"ha":833,"x_min":93,"x_max":765,"o":"m 624 26 q 602 -71 624 -26 q 542 -147 581 -115 q 450 -197 504 -179 q 332 -215 396 -215 q 199 -195 265 -215 q 93 -132 133 -175 l 164 -60 q 237 -105 193 -89 q 333 -121 281 -121 q 465 -83 417 -121 q 514 15 514 -44 q 482 92 514 64 q 388 139 450 119 l 304 164 q 213 202 249 181 q 158 249 178 224 q 130 301 138 274 q 122 358 122 329 q 169 492 122 436 q 317 575 215 549 l 317 585 q 255 654 275 613 q 235 744 235 696 q 256 842 235 797 q 316 918 278 886 q 408 968 354 950 q 526 986 461 986 q 659 966 593 986 q 765 903 725 946 l 694 831 q 622 876 665 860 q 525 892 578 892 q 393 853 442 892 q 344 756 344 815 q 376 679 344 707 q 471 632 408 651 l 554 607 q 645 569 610 590 q 701 522 681 547 q 728 469 721 497 q 736 413 736 442 q 690 278 736 335 q 542 196 643 222 l 542 186 q 603 117 583 158 q 624 26 624 75 m 628 389 q 597 468 628 436 q 482 524 565 500 l 399 547 q 381 553 389 550 q 364 558 372 556 q 266 485 301 531 q 231 381 231 439 q 262 301 231 333 q 376 246 293 269 l 460 222 q 478 217 469 219 q 494 211 486 214 q 592 285 557 239 q 628 389 628 331 z "},"¶":{"ha":833,"x_min":113,"x_max":800,"o":"m 375 342 q 269 360 318 342 q 186 415 221 379 q 132 501 151 450 q 113 617 113 553 q 143 764 113 699 q 225 875 174 829 q 342 945 276 921 q 479 969 408 969 l 800 969 l 603 -207 l 506 -207 l 688 883 l 563 883 l 381 -207 l 283 -207 l 375 342 z "},"©":{"ha":833,"x_min":15,"x_max":856,"o":"m 376 25 q 231 52 297 25 q 116 130 164 79 q 42 253 68 181 q 15 417 15 325 q 51 631 15 533 q 151 797 88 728 q 302 906 214 867 q 494 944 390 944 q 640 917 574 944 q 753 840 706 890 q 828 717 801 789 q 856 553 856 644 q 819 339 856 436 q 720 172 783 242 q 569 64 657 103 q 376 25 481 25 m 383 100 q 518 124 456 100 q 629 191 581 147 q 711 295 678 235 q 757 429 744 356 q 769 512 767 486 q 772 553 772 538 q 756 672 772 614 q 706 773 740 729 q 618 843 672 817 q 488 869 564 869 q 353 846 415 869 q 242 778 290 822 q 160 674 193 735 q 114 540 126 614 q 101 458 103 483 q 99 417 99 432 q 115 298 99 356 q 165 197 131 240 q 253 126 199 153 q 383 100 307 100 m 403 239 q 270 292 315 239 q 225 440 225 346 q 243 553 225 500 q 294 646 261 606 q 374 710 328 686 q 476 733 419 733 q 584 702 543 733 q 640 618 625 671 l 560 585 q 531 637 551 618 q 467 656 511 656 q 375 620 406 656 q 335 526 344 585 l 322 447 q 320 428 321 436 q 319 410 319 419 q 341 341 319 365 q 408 317 363 317 q 483 338 451 317 q 539 393 514 358 l 601 350 q 520 270 569 301 q 403 239 471 239 z "},"®":{"ha":833,"x_min":203,"x_max":714,"o":"m 432 481 q 341 497 383 481 q 268 542 299 513 q 220 612 238 571 q 203 704 203 653 q 224 813 203 761 q 284 902 246 864 q 374 963 322 940 q 485 986 425 986 q 576 970 533 986 q 649 925 618 954 q 697 855 679 896 q 714 763 714 814 q 692 654 714 706 q 633 564 671 603 q 543 503 594 525 q 432 481 492 481 m 429 536 q 571 581 517 536 q 640 701 625 625 q 647 738 646 726 q 649 764 649 750 q 610 883 649 836 q 488 931 572 931 q 346 886 400 931 q 276 765 292 842 q 269 728 271 740 q 268 703 268 717 q 306 583 268 631 q 429 536 344 536 m 396 610 l 342 610 l 385 867 l 501 867 q 553 849 535 867 q 571 801 571 832 q 553 747 571 769 q 506 715 535 725 l 551 610 l 490 610 l 453 707 l 413 707 l 396 610 m 468 747 q 510 781 503 747 q 511 790 511 786 q 511 797 511 794 q 482 824 511 824 l 432 824 l 419 747 l 468 747 z "},"™":{"ha":833,"x_min":113,"x_max":851,"o":"m 179 582 l 233 906 l 113 906 l 124 969 l 438 969 l 426 906 l 306 906 l 251 582 l 179 582 m 431 582 l 494 969 l 581 969 l 639 783 l 643 783 l 764 969 l 851 969 l 788 582 l 722 582 l 751 758 l 771 874 l 765 874 l 621 657 l 549 874 l 543 874 l 525 758 l 496 582 l 431 582 z "},"ª":{"ha":833,"x_min":239,"x_max":669,"o":"m 526 493 l 539 572 l 528 572 q 474 513 510 540 q 386 485 439 485 q 275 518 311 485 q 239 606 239 551 q 469 768 239 768 l 572 768 l 579 806 q 582 824 582 815 q 582 840 582 833 q 556 896 582 878 q 483 914 531 914 q 403 893 439 914 q 349 842 368 872 l 296 890 q 370 956 321 925 q 493 986 419 986 q 622 950 575 986 q 669 851 669 914 q 669 828 669 842 q 665 801 668 815 l 615 493 l 526 493 m 460 703 q 370 689 401 703 q 332 643 339 675 q 328 620 329 629 q 326 607 326 611 q 404 556 326 556 q 501 580 457 556 q 553 646 546 604 l 563 703 l 460 703 z "},"º":{"ha":833,"x_min":254,"x_max":707,"o":"m 444 485 q 367 499 403 485 q 307 540 332 514 q 268 603 282 567 q 254 682 254 639 q 273 804 254 749 q 326 901 292 860 q 408 964 360 942 q 517 986 457 986 q 594 972 558 986 q 654 931 629 957 q 693 868 679 904 q 707 789 707 832 q 688 667 707 722 q 635 570 669 611 q 553 507 601 529 q 444 485 504 485 m 456 560 q 553 596 518 560 q 599 690 589 632 l 613 774 q 615 793 615 786 q 615 808 615 800 q 588 882 615 853 q 506 911 560 911 q 408 875 443 911 q 363 781 372 839 l 349 697 q 346 678 346 685 q 346 663 346 671 q 374 589 346 618 q 456 560 401 560 z "},"°":{"ha":833,"x_min":242,"x_max":719,"o":"m 460 511 q 372 526 413 511 q 303 567 332 540 q 258 635 274 594 q 242 725 242 675 q 261 827 242 779 q 315 910 281 875 q 397 966 349 946 q 501 986 444 986 q 589 972 549 986 q 658 930 629 957 q 703 863 688 903 q 719 772 719 822 q 700 670 719 718 q 647 587 681 622 q 565 531 613 551 q 460 511 517 511 m 463 599 q 527 612 497 599 q 578 648 557 625 q 612 701 600 671 q 624 768 624 732 q 591 863 624 828 q 499 899 558 899 q 433 885 463 899 q 383 849 404 872 q 349 795 361 826 q 338 729 338 764 q 370 634 338 669 q 463 599 403 599 z "},"′":{"ha":833,"x_min":354,"x_max":608,"o":"m 354 528 l 506 969 l 608 969 l 457 528 l 354 528 z "},"″":{"ha":833,"x_min":232,"x_max":731,"o":"m 232 528 l 383 969 l 486 969 l 335 528 l 232 528 m 476 528 l 628 969 l 731 969 l 579 528 l 476 528 z "},"*":{"ha":833,"x_min":78,"x_max":781,"o":"m 201 76 l 128 138 l 336 371 l 78 467 l 119 550 l 383 461 l 433 761 l 533 761 l 483 461 l 768 550 l 781 461 l 493 367 l 625 133 l 544 76 l 411 315 l 201 76 z "},"†":{"ha":833,"x_min":143,"x_max":790,"o":"m 263 -278 l 413 629 l 143 629 l 158 717 l 428 717 l 479 1028 l 574 1028 l 521 717 l 790 717 l 776 629 l 507 629 l 357 -278 l 263 -278 z "},"‡":{"ha":833,"x_min":44,"x_max":790,"o":"m 263 -278 l 314 33 l 44 33 l 58 121 l 328 121 l 413 629 l 143 629 l 158 717 l 428 717 l 479 1028 l 574 1028 l 521 717 l 790 717 l 776 629 l 507 629 l 424 121 l 693 121 l 678 33 l 408 33 l 357 -278 l 263 -278 z "},"#":{"ha":833,"x_min":17,"x_max":860,"o":"m 197 301 l 17 301 l 32 390 l 228 390 l 292 579 l 113 579 l 128 668 l 322 668 l 425 969 l 526 969 l 196 0 l 94 0 l 197 301 m 681 969 l 782 969 l 679 668 l 860 668 l 844 579 l 649 579 l 585 390 l 764 390 l 749 301 l 554 301 l 451 0 l 350 0 l 681 969 z "},"^":{"ha":833,"x_min":90,"x_max":794,"o":"m 704 407 l 515 875 l 510 875 l 171 407 l 90 456 l 464 969 l 586 969 l 794 444 l 704 407 z "},"~":{"ha":833,"x_min":64,"x_max":790,"o":"m 553 274 q 468 300 503 274 q 406 371 433 326 q 353 450 376 419 q 296 481 329 481 q 218 433 253 481 q 149 288 183 385 l 64 313 q 169 511 111 449 q 301 574 228 574 q 386 547 351 574 q 449 476 421 521 q 501 397 478 428 q 558 367 525 367 q 636 415 601 367 q 706 560 671 463 l 790 535 q 685 336 743 399 q 553 274 626 274 z "},"+":{"ha":833,"x_min":93,"x_max":761,"o":"m 319 86 l 368 378 l 93 378 l 108 469 l 383 469 l 432 761 l 535 761 l 486 469 l 761 469 l 746 378 l 471 378 l 422 86 l 319 86 z "},"−":{"ha":833,"x_min":93,"x_max":763,"o":"m 93 378 l 108 469 l 763 469 l 747 378 l 93 378 z "},"±":{"ha":833,"x_min":29,"x_max":778,"o":"m 340 210 l 386 488 l 110 488 l 125 579 l 400 579 l 446 857 l 549 857 l 503 579 l 778 579 l 764 488 l 489 488 l 443 210 l 340 210 m 29 0 l 44 92 l 701 92 l 686 0 l 29 0 z "},"×":{"ha":833,"x_min":97,"x_max":763,"o":"m 422 363 l 156 132 l 97 201 l 365 432 l 178 658 l 249 718 l 438 489 l 704 718 l 763 649 l 494 418 l 682 192 l 611 132 l 422 363 z "},"÷":{"ha":833,"x_min":93,"x_max":763,"o":"m 93 378 l 108 469 l 763 469 l 747 378 l 93 378 m 374 72 q 312 88 329 72 q 294 128 294 104 q 296 149 294 139 q 299 165 297 158 q 325 216 304 197 q 392 235 346 235 q 453 219 436 235 q 471 179 471 203 q 469 158 471 168 q 467 142 468 149 q 440 91 461 110 q 374 72 419 72 m 464 613 q 402 628 419 613 q 385 668 385 644 q 386 689 385 679 q 389 706 388 699 q 415 756 394 738 q 482 775 436 775 q 544 759 526 775 q 561 719 561 743 q 560 699 561 708 q 557 682 558 689 q 531 631 551 650 q 464 613 510 613 z "},"=":{"ha":833,"x_min":71,"x_max":786,"o":"m 117 518 l 132 610 l 786 610 l 771 518 l 117 518 m 71 242 l 86 333 l 740 333 l 725 242 l 71 242 z "},"≈":{"ha":833,"x_min":57,"x_max":799,"o":"m 594 467 q 513 481 549 467 q 446 511 478 494 q 375 547 410 531 q 306 563 340 563 q 235 535 264 563 q 183 467 207 508 l 104 513 q 186 617 136 579 q 308 656 236 656 q 390 642 354 656 q 457 611 425 628 q 528 576 493 592 q 597 560 563 560 q 667 587 639 560 q 719 656 696 614 l 799 610 q 717 505 767 543 q 594 467 667 467 m 547 193 q 466 207 501 193 q 399 238 431 221 q 328 273 363 257 q 258 289 293 289 q 188 262 217 289 q 136 193 160 235 l 57 239 q 139 344 89 306 q 261 382 189 382 q 342 368 307 382 q 410 338 378 354 q 481 302 446 318 q 550 286 515 286 q 620 313 592 286 q 672 382 649 340 l 751 336 q 669 231 719 269 q 547 193 619 193 z "},"≠":{"ha":833,"x_min":71,"x_max":786,"o":"m 147 103 l 246 242 l 71 242 l 86 333 l 313 333 l 440 518 l 117 518 l 132 610 l 504 610 l 603 749 l 710 749 l 611 610 l 786 610 l 771 518 l 544 518 l 417 333 l 740 333 l 725 242 l 353 242 l 254 103 l 147 103 z "},"<":{"ha":833,"x_min":122,"x_max":790,"o":"m 122 372 l 140 478 l 790 824 l 771 706 l 233 424 l 232 413 l 675 132 l 657 28 l 122 372 z "},">":{"ha":833,"x_min":68,"x_max":736,"o":"m 88 147 l 625 428 l 626 439 l 183 721 l 201 824 l 736 479 l 718 374 l 68 28 l 88 147 z "},"≤":{"ha":833,"x_min":61,"x_max":790,"o":"m 61 0 l 76 93 l 671 93 l 656 0 l 61 0 m 772 710 l 247 494 l 246 485 l 701 272 l 683 168 l 136 435 l 156 553 l 790 819 l 772 710 z "},"≥":{"ha":833,"x_min":64,"x_max":749,"o":"m 113 278 l 638 493 l 639 503 l 183 715 l 201 819 l 749 553 l 729 435 l 94 168 l 113 278 m 79 93 l 674 93 l 658 0 l 64 0 l 79 93 z "},"·":{"ha":833,"x_min":322,"x_max":531,"o":"m 413 328 q 343 346 364 328 q 322 390 322 364 q 324 410 322 399 q 328 435 325 422 q 361 494 335 472 q 440 517 388 517 q 510 499 489 517 q 531 454 531 481 q 529 434 531 446 q 525 410 528 422 q 492 350 518 372 q 413 328 465 328 z "},"•":{"ha":833,"x_min":256,"x_max":599,"o":"m 400 260 q 288 292 321 260 q 256 375 256 325 q 257 394 256 382 q 264 439 258 407 q 319 544 275 501 q 454 586 363 586 q 566 553 533 586 q 599 471 599 521 q 597 451 599 464 q 590 407 596 439 q 535 302 579 344 q 400 260 492 260 z "},"◊":{"ha":833,"x_min":81,"x_max":792,"o":"m 300 0 l 81 485 l 461 969 l 572 969 l 792 485 l 411 0 l 300 0 m 372 99 l 682 492 l 510 871 l 500 871 l 190 478 l 363 99 l 372 99 z "},"¬":{"ha":833,"x_min":93,"x_max":747,"o":"m 593 108 l 638 378 l 93 378 l 108 469 l 747 469 l 688 108 l 593 108 z "},"√":{"ha":833,"x_min":86,"x_max":896,"o":"m 297 0 l 226 631 l 86 631 l 100 717 l 321 717 l 344 490 l 383 90 l 390 90 l 569 490 l 785 969 l 896 969 l 451 0 l 297 0 z "},"∫":{"ha":833,"x_min":-37,"x_max":875,"o":"m 257 -294 q 215 -285 235 -294 q 172 -257 196 -276 q 119 -206 149 -237 q 47 -129 89 -175 l -37 -36 l 36 31 l 250 -197 l 275 -192 l 451 865 q 508 982 463 936 q 635 1028 554 1028 l 875 1028 l 860 935 l 571 935 l 390 -149 q 376 -204 386 -178 q 351 -251 367 -231 q 311 -283 335 -271 q 257 -294 288 -294 z "},"∞":{"ha":833,"x_min":22,"x_max":829,"o":"m 189 175 q 130 186 160 175 q 76 222 100 197 q 38 286 53 247 q 22 381 22 325 q 39 490 22 438 q 87 584 56 543 q 162 649 118 625 q 261 674 206 674 q 390 624 340 674 q 453 492 440 575 l 460 492 q 545 628 492 583 q 663 674 599 674 q 722 663 692 674 q 775 626 751 651 q 814 563 799 601 q 829 468 829 524 q 813 358 829 411 q 765 265 796 306 q 690 199 733 224 q 590 175 646 175 q 462 224 511 175 q 399 358 413 274 l 392 358 q 306 221 360 267 q 189 175 253 175 m 214 261 q 307 301 267 261 q 382 417 347 340 q 370 487 378 456 q 349 540 363 518 q 316 574 336 563 q 265 586 296 586 q 179 551 214 586 q 133 447 144 517 q 127 408 131 435 q 124 361 124 381 q 147 289 124 317 q 214 261 169 261 m 586 261 q 672 296 638 261 q 718 400 707 331 q 724 440 721 413 q 728 486 728 467 q 705 558 728 531 q 638 586 682 586 q 544 547 585 586 q 469 432 504 508 q 481 360 474 392 q 502 307 489 329 q 535 273 515 285 q 586 261 556 261 z "},"℮":{"ha":833,"x_min":36,"x_max":797,"o":"m 201 151 q 290 78 235 110 q 417 47 344 47 q 513 61 469 47 q 590 100 556 75 q 651 160 624 125 q 701 236 679 194 l 758 204 q 701 119 733 158 q 628 49 669 79 q 533 1 586 18 q 417 -17 481 -17 q 260 22 331 -17 q 140 126 190 60 q 63 285 90 193 q 36 485 36 376 q 63 685 36 593 q 140 843 90 776 q 260 948 190 910 q 417 986 331 986 q 573 948 503 986 q 693 843 643 910 q 770 685 743 776 q 797 485 797 593 l 201 485 l 201 151 m 632 540 l 632 825 q 542 897 596 868 q 417 925 488 925 q 292 897 346 925 q 201 825 238 868 l 201 540 l 632 540 z "},"ℓ":{"ha":833,"x_min":97,"x_max":707,"o":"m 446 -17 q 279 49 336 -17 q 222 221 222 115 l 222 256 q 143 203 183 228 l 97 275 q 160 314 128 294 q 222 357 193 333 l 222 771 q 237 898 222 846 q 278 983 251 950 q 343 1030 306 1015 q 426 1044 381 1044 q 571 985 521 1044 q 621 813 621 925 q 546 554 621 674 q 329 310 471 435 l 329 247 q 361 113 329 151 q 451 74 393 74 q 551 113 513 74 q 628 222 589 151 l 707 175 q 667 100 690 135 q 613 39 644 65 q 539 -2 581 13 q 446 -17 497 -17 m 428 954 q 356 917 383 954 q 329 781 329 879 l 329 426 q 471 612 422 519 q 519 799 519 704 l 519 822 q 494 924 519 894 q 428 954 468 954 z "},"№":{"ha":833,"x_min":4,"x_max":885,"o":"m 689 479 q 571 635 571 479 q 574 681 571 657 q 581 735 576 706 q 767 981 615 981 q 885 825 885 981 q 882 778 885 803 q 875 725 879 754 q 689 479 839 479 m 4 0 l 167 969 l 335 969 l 329 485 l 322 122 l 331 122 l 472 969 l 565 969 l 403 0 l 235 0 l 240 485 l 247 847 l 239 847 l 97 0 l 4 0 m 699 553 q 756 586 739 553 q 782 676 772 619 l 800 786 q 805 814 803 799 q 807 842 807 829 q 796 889 807 871 q 757 907 785 907 q 700 874 717 907 q 674 783 683 840 l 656 674 q 651 646 653 661 q 649 618 649 631 q 660 571 649 589 q 699 553 671 553 m 524 357 l 536 433 l 822 433 l 810 357 l 524 357 z "},"∂":{"ha":833,"x_min":78,"x_max":743,"o":"m 350 -17 q 238 4 289 -17 q 152 63 188 25 q 97 156 117 101 q 78 275 78 210 q 103 442 78 364 q 176 576 129 519 q 287 667 222 633 q 428 700 351 700 q 556 666 499 700 q 639 574 613 632 l 643 576 q 527 804 615 703 q 300 969 439 906 l 474 969 q 583 886 533 936 q 669 772 633 836 q 724 634 704 708 q 743 476 743 560 q 715 274 743 365 q 636 119 688 183 q 512 19 585 54 q 350 -17 439 -17 m 363 79 q 522 132 456 79 q 607 293 589 185 l 619 371 q 625 411 624 396 q 626 440 626 426 q 578 563 626 522 q 450 604 531 604 q 290 551 357 604 q 206 390 224 499 l 193 313 q 188 272 189 288 q 186 243 186 257 q 234 120 186 161 q 363 79 282 79 z "},"¤":{"ha":833,"x_min":56,"x_max":813,"o":"m 389 165 q 320 173 353 165 q 264 194 288 181 l 139 32 l 56 83 l 192 258 q 147 419 147 324 q 149 456 147 438 q 154 493 151 474 q 264 722 179 640 l 192 892 l 278 938 l 346 778 q 479 804 403 804 q 548 797 515 804 q 604 775 581 789 l 729 938 l 813 886 l 676 711 q 721 550 721 646 q 719 514 721 532 q 714 476 717 496 q 604 247 689 329 l 676 78 l 590 32 l 522 192 q 389 165 465 165 m 396 257 q 524 303 471 257 q 592 440 576 349 l 606 526 q 610 576 610 551 q 572 678 610 644 q 472 713 535 713 q 344 667 397 713 q 276 529 292 621 l 263 443 q 258 393 258 418 q 296 291 258 325 q 396 257 333 257 z "},"¢":{"ha":833,"x_min":104,"x_max":724,"o":"m 314 -11 q 157 88 210 8 q 104 286 104 167 q 130 461 104 382 q 201 598 156 540 q 307 690 246 656 q 439 731 368 724 l 463 875 l 549 875 l 525 729 q 660 671 613 718 q 724 561 707 624 l 631 525 q 583 603 613 578 q 506 636 553 629 l 414 79 q 457 89 435 81 q 504 117 479 97 q 560 169 529 136 q 628 253 590 201 l 706 207 q 640 115 674 156 q 571 47 607 75 q 492 3 535 19 q 400 -15 450 -12 l 376 -158 l 290 -158 l 314 -11 m 214 257 q 246 140 214 182 q 333 83 278 97 l 425 636 q 301 567 350 625 q 235 407 251 508 l 221 324 q 215 285 217 299 q 214 257 214 271 z "},"€":{"ha":833,"x_min":108,"x_max":808,"o":"m 393 -17 q 177 75 246 -17 q 108 333 108 167 q 135 582 108 464 q 217 790 163 700 q 354 933 272 879 q 546 986 436 986 q 658 967 613 986 q 735 916 704 947 q 783 846 767 885 q 808 767 800 807 l 706 733 q 687 792 699 764 q 656 840 675 819 q 607 874 636 861 q 535 886 578 886 q 372 822 436 886 q 275 650 307 758 l 589 650 l 572 556 l 254 556 q 242 474 247 508 q 233 414 236 440 l 549 414 l 533 319 l 222 319 q 230 231 222 274 q 258 156 238 189 q 315 103 279 122 q 404 83 350 83 q 478 94 447 83 q 535 128 510 106 q 585 181 561 150 q 636 254 608 213 l 728 208 q 666 117 697 158 q 597 46 635 75 q 509 0 558 17 q 393 -17 460 -17 z "},"ƒ":{"ha":833,"x_min":-117,"x_max":882,"o":"m 193 -294 q 149 -287 169 -294 q 106 -264 128 -281 q 58 -221 85 -247 q -3 -157 32 -194 l -117 -33 l -44 31 l 172 -200 l 197 -189 l 388 515 l 163 515 l 178 608 l 413 608 l 467 807 q 536 924 486 879 q 667 969 586 969 l 882 969 l 867 876 l 594 876 l 521 608 l 788 608 l 772 515 l 496 515 l 313 -165 q 270 -261 296 -228 q 193 -294 244 -294 z "},"£":{"ha":833,"x_min":25,"x_max":797,"o":"m 643 -17 q 563 -6 608 -17 q 469 17 518 6 l 154 90 l 140 0 l 25 0 l 42 110 q 113 149 81 128 q 167 201 144 171 q 203 272 190 232 q 217 368 217 313 q 213 425 217 400 l 72 425 l 88 519 l 196 519 q 185 576 189 547 q 182 636 182 604 q 206 776 182 713 q 274 887 231 840 q 381 960 318 933 q 518 986 443 986 q 633 968 583 986 q 717 922 682 950 q 771 858 751 893 q 797 788 790 822 l 699 749 q 639 849 682 807 q 511 890 596 890 q 352 821 407 890 q 297 625 297 751 q 300 570 297 596 q 308 519 303 544 l 558 519 l 543 425 l 325 425 q 328 399 328 414 q 329 372 329 385 q 322 306 329 339 q 298 247 314 274 q 256 201 282 219 q 194 179 231 183 l 192 174 l 644 86 l 660 101 l 615 282 l 701 308 l 724 256 q 749 178 739 218 q 760 104 760 138 q 731 17 760 51 q 643 -17 701 -17 z "},"$":{"ha":833,"x_min":32,"x_max":813,"o":"m 310 -12 q 140 44 210 -1 q 32 157 69 90 l 118 225 q 208 129 158 164 q 326 85 257 94 l 388 454 l 365 460 q 142 697 142 510 q 166 815 142 763 q 234 906 190 868 q 340 963 278 943 q 476 986 401 983 l 500 1126 l 583 1126 l 558 982 q 717 926 654 969 q 813 825 781 883 l 729 764 q 542 885 661 868 l 483 539 l 519 531 q 690 443 638 503 q 742 294 742 383 q 717 172 742 228 q 648 76 693 117 q 538 10 603 35 q 393 -17 474 -14 l 369 -157 l 286 -157 l 310 -12 m 258 706 q 296 609 258 642 q 406 557 333 576 l 460 888 q 312 833 365 881 q 258 706 258 785 m 625 285 q 589 381 625 344 q 467 436 553 418 l 408 83 q 567 145 508 92 q 625 285 625 199 z "},"¥":{"ha":833,"x_min":46,"x_max":904,"o":"m 61 94 l 318 94 l 363 356 l 104 356 l 119 450 l 317 450 l 135 969 l 256 969 l 424 450 l 429 450 l 772 969 l 904 969 l 547 450 l 744 450 l 729 356 l 471 356 l 426 94 l 686 94 l 671 0 l 46 0 l 61 94 z "},"฿":{"ha":833,"x_min":65,"x_max":796,"o":"m 371 -157 l 288 -157 l 314 0 l 65 0 l 228 969 l 475 969 l 501 1126 l 585 1126 l 558 969 q 736 909 676 969 q 796 749 796 849 q 740 589 796 651 q 597 504 685 526 l 597 500 q 701 437 661 482 q 742 304 742 392 q 719 188 742 243 q 656 92 697 133 q 554 25 614 50 q 419 0 494 0 l 397 0 l 371 -157 m 403 547 l 456 871 l 322 871 l 269 547 l 403 547 m 679 765 q 641 846 679 821 q 538 871 603 871 l 488 547 q 611 583 565 550 q 668 679 657 617 l 675 721 q 679 765 679 746 m 329 99 l 388 456 l 254 456 l 194 99 l 329 99 m 625 340 q 585 424 625 393 q 471 456 546 456 l 413 99 q 549 135 499 99 q 613 247 600 172 l 619 289 q 624 314 622 301 q 625 340 625 326 z "},"₡":{"ha":833,"x_min":108,"x_max":817,"o":"m 351 -15 q 276 3 307 -8 l 233 -157 l 149 -157 l 203 47 q 108 333 108 136 q 130 556 108 449 q 194 749 151 663 q 302 894 238 835 q 454 975 367 954 l 496 1126 l 581 1126 l 542 986 q 585 984 565 986 q 621 979 604 982 l 661 1126 l 746 1126 l 699 949 q 778 869 751 917 q 817 769 806 821 l 714 736 q 696 792 707 765 q 665 839 685 818 l 461 85 q 554 143 517 99 q 636 254 592 188 l 728 208 q 672 124 700 163 q 609 57 643 86 q 533 9 575 28 q 436 -15 492 -10 l 399 -157 l 314 -157 l 351 -15 m 535 892 q 514 890 521 892 l 301 107 q 381 79 336 83 l 597 883 q 535 892 569 892 m 222 306 q 243 185 222 235 l 428 867 q 315 751 358 831 q 256 564 272 672 l 233 425 q 225 361 228 392 q 222 306 222 331 z "},"₤":{"ha":833,"x_min":25,"x_max":797,"o":"m 650 -17 q 563 -6 606 -17 q 469 17 519 6 l 154 89 l 140 0 l 25 0 l 42 110 q 103 143 75 125 q 154 186 132 161 q 192 243 176 211 q 213 318 207 275 l 53 318 l 68 407 l 214 407 q 206 464 211 435 q 194 522 201 493 l 86 522 l 101 611 l 182 611 l 182 632 q 206 775 182 710 q 274 887 231 840 q 380 960 318 933 q 517 986 442 986 q 631 969 582 986 q 715 923 681 951 q 770 859 750 894 q 797 788 790 824 l 699 749 q 639 849 682 807 q 511 890 596 890 q 351 822 407 890 q 296 626 296 753 l 296 611 l 578 611 l 563 522 l 307 522 q 317 463 313 492 q 325 407 322 435 l 544 407 l 529 318 l 322 318 q 282 226 313 265 q 194 179 251 186 l 192 174 l 644 86 l 660 101 l 615 282 l 701 308 l 724 256 q 749 178 739 218 q 760 101 760 138 q 729 17 760 50 q 650 -17 699 -17 z "},"₦":{"ha":833,"x_min":44,"x_max":843,"o":"m 418 344 l 232 344 l 175 0 l 78 0 l 133 339 l 44 339 l 60 429 l 149 429 l 168 540 l 78 540 l 93 631 l 182 631 l 239 969 l 408 969 l 469 625 l 656 625 l 713 969 l 810 969 l 753 631 l 843 631 l 828 540 l 739 540 l 719 429 l 810 429 l 794 339 l 704 339 l 649 0 l 479 0 l 418 344 m 406 424 l 328 867 l 318 867 l 244 424 l 406 424 m 560 103 l 569 103 l 643 546 l 482 546 l 560 103 z "},"₨":{"ha":833,"x_min":15,"x_max":854,"o":"m 15 0 l 175 969 l 349 969 q 506 916 457 969 q 554 760 554 863 q 543 663 554 710 q 509 577 532 617 q 449 509 486 538 q 363 467 413 481 l 418 244 q 476 115 440 156 q 578 75 511 75 q 661 101 636 75 q 686 169 686 128 q 670 236 686 206 q 629 294 654 267 l 607 319 q 554 393 575 356 q 533 479 533 431 q 546 549 533 515 q 583 607 558 582 q 644 647 608 632 q 726 661 681 661 q 795 651 763 661 q 854 617 828 640 l 799 543 q 764 565 783 557 q 721 574 744 574 q 658 549 681 574 q 635 489 635 525 q 649 438 635 461 q 693 376 663 415 l 710 356 q 740 317 725 336 q 765 276 754 297 q 783 230 776 254 q 790 175 790 206 q 736 38 790 92 q 571 -17 682 -17 q 401 41 461 -17 q 314 217 342 99 l 258 447 l 199 447 l 125 0 l 15 0 m 272 543 q 379 569 343 543 q 426 658 415 594 l 440 747 q 442 764 442 754 q 443 782 443 774 q 328 871 443 871 l 269 871 l 215 543 l 272 543 z "},"₩":{"ha":833,"x_min":42,"x_max":842,"o":"m 125 344 l 42 344 l 57 435 l 138 435 l 153 554 l 76 554 l 92 644 l 165 644 l 210 969 l 313 969 l 261 638 l 672 638 l 732 969 l 832 969 l 768 644 l 842 644 l 826 554 l 750 554 l 726 435 l 807 435 l 792 344 l 708 344 l 639 0 l 461 0 l 464 561 l 442 561 l 256 0 l 78 0 l 125 344 m 206 103 l 358 561 l 250 561 l 182 103 l 206 103 m 574 103 l 658 561 l 550 561 l 550 103 l 574 103 z "},"₪":{"ha":833,"x_min":29,"x_max":857,"o":"m 343 765 l 449 765 l 336 88 l 451 88 q 572 128 526 88 q 632 247 618 168 l 751 969 l 857 969 l 740 264 q 436 0 697 0 l 217 0 l 343 765 m 189 969 l 413 969 q 574 917 519 969 q 629 764 629 865 q 628 729 629 750 q 622 683 626 708 l 543 204 l 438 204 l 522 718 q 526 743 525 729 q 528 771 528 757 q 497 853 528 824 q 399 882 465 882 l 281 882 l 135 0 l 29 0 l 189 969 z "},"₫":{"ha":833,"x_min":60,"x_max":868,"o":"m 567 324 l 561 324 q 473 220 529 261 q 336 179 417 179 q 189 240 243 179 q 135 413 135 300 q 158 564 135 496 q 221 680 181 632 q 314 754 261 728 q 428 781 367 781 q 502 768 471 781 q 556 735 533 756 q 593 688 579 714 q 615 636 607 663 l 619 636 l 657 861 l 446 861 l 460 944 l 671 944 l 685 1028 l 788 1028 l 774 944 l 868 944 l 854 861 l 760 861 l 647 192 l 544 192 l 567 324 m 372 267 q 449 279 413 267 q 513 314 485 292 q 559 367 540 336 q 585 433 578 397 l 604 549 q 600 604 610 578 q 569 651 590 631 q 517 682 549 671 q 449 693 486 693 q 315 648 360 693 q 260 528 271 603 q 246 440 250 468 q 242 397 242 413 q 278 302 242 338 q 372 267 314 267 m 60 0 l 75 93 l 674 93 l 658 0 l 60 0 z "},"₭":{"ha":833,"x_min":29,"x_max":833,"o":"m 172 0 l 58 0 l 135 456 l 29 456 l 44 549 l 150 549 l 221 969 l 335 969 l 264 549 l 332 549 l 700 969 l 833 969 l 468 549 l 772 549 l 757 456 l 446 456 l 682 0 l 554 0 l 326 456 l 249 456 l 172 0 z "},"₮":{"ha":833,"x_min":121,"x_max":901,"o":"m 464 300 l 414 0 l 300 0 l 342 246 l 133 156 l 149 251 l 357 342 l 379 468 l 171 378 l 186 474 l 394 564 l 446 869 l 121 869 l 138 969 l 901 969 l 885 869 l 560 869 l 518 618 l 726 710 l 711 614 l 501 522 l 481 396 l 689 488 l 674 392 l 464 300 z "},"₱":{"ha":833,"x_min":63,"x_max":865,"o":"m 140 468 l 64 468 l 79 557 l 154 557 l 175 682 l 99 682 l 114 771 l 189 771 l 222 969 l 544 969 q 769 771 746 969 l 865 771 l 850 682 l 771 682 q 756 557 769 617 l 829 557 l 814 468 l 725 468 q 603 322 681 372 q 426 271 526 271 l 221 271 l 176 0 l 63 0 l 140 468 m 668 768 q 629 847 664 821 q 532 872 594 872 l 321 872 l 303 768 l 668 768 m 640 554 q 652 631 647 599 q 660 685 657 663 l 289 685 l 268 554 l 640 554 m 438 368 q 555 394 506 368 q 624 471 604 421 l 253 471 l 236 368 l 438 368 z "},"₲":{"ha":833,"x_min":92,"x_max":794,"o":"m 238 7 q 128 124 165 42 q 92 331 92 206 q 118 581 92 461 q 198 790 144 700 q 332 933 251 879 q 521 986 413 986 q 548 985 535 986 q 571 983 561 985 l 619 1126 l 706 1126 l 649 961 q 749 878 714 931 q 794 767 783 825 l 699 735 q 670 809 689 775 q 614 863 651 843 l 482 478 l 743 478 l 721 344 q 681 201 708 267 q 610 86 654 135 q 501 10 565 38 q 349 -17 438 -17 q 332 -17 340 -17 q 315 -15 324 -17 l 267 -157 l 182 -157 l 238 7 m 201 314 q 219 190 201 243 q 274 108 238 138 l 539 885 q 520 886 529 886 q 500 886 511 886 q 399 863 443 886 q 322 798 356 840 q 267 696 289 756 q 233 564 246 636 l 211 428 q 203 367 206 396 q 201 314 201 338 m 344 76 q 358 75 351 75 q 371 75 364 75 q 533 140 471 75 q 614 322 594 204 l 625 389 l 451 389 l 344 76 z "},"₴":{"ha":833,"x_min":43,"x_max":844,"o":"m 396 -17 q 289 2 338 -17 q 206 53 240 21 q 151 131 171 86 q 132 226 132 175 q 142 299 132 267 q 168 354 153 331 l 43 354 l 58 443 l 235 443 l 476 563 l 478 568 l 79 568 l 94 657 l 608 657 q 626 694 619 674 q 632 743 632 715 q 590 852 632 814 q 472 890 547 890 q 372 872 421 890 q 282 813 322 853 l 222 892 q 344 963 276 940 q 482 986 411 986 q 674 924 604 986 q 743 763 743 863 q 736 703 743 729 q 718 657 729 676 l 844 657 l 829 568 l 649 568 l 406 449 l 404 443 l 810 443 l 794 354 l 282 354 q 252 300 263 329 q 242 236 242 271 q 286 122 242 165 q 406 79 331 79 q 511 106 458 79 q 628 193 564 132 l 693 119 q 553 17 631 51 q 396 -17 475 -17 z "},"₵":{"ha":833,"x_min":108,"x_max":808,"o":"m 249 15 q 142 135 176 54 q 108 333 108 215 q 135 582 108 464 q 217 790 163 700 q 354 933 272 879 q 546 986 436 986 q 563 986 554 986 q 578 985 571 986 l 626 1126 l 713 1126 l 657 967 q 763 883 728 939 q 808 767 797 828 l 711 733 q 681 815 700 778 q 624 872 663 853 l 354 85 q 404 79 375 79 q 481 91 449 79 q 539 125 513 103 q 590 180 565 147 q 642 254 614 213 l 728 208 q 666 117 697 158 q 597 46 635 75 q 509 0 558 17 q 393 -17 460 -17 q 357 -15 374 -17 q 324 -11 340 -14 l 274 -157 l 189 -157 l 249 15 m 218 306 q 235 195 218 243 q 285 119 251 147 l 547 892 l 535 892 q 428 868 475 892 q 345 801 381 844 q 287 698 310 758 q 251 564 264 638 l 229 425 q 221 361 224 392 q 218 306 218 331 z "},"₸":{"ha":833,"x_min":119,"x_max":868,"o":"m 156 875 l 171 969 l 868 969 l 853 875 l 156 875 m 524 656 l 414 0 l 300 0 l 410 656 l 119 656 l 135 750 l 831 750 l 815 656 l 524 656 z "},"₹":{"ha":833,"x_min":89,"x_max":867,"o":"m 510 0 l 275 404 l 89 404 l 104 499 l 331 499 q 483 538 432 499 q 547 656 533 578 l 131 656 l 146 750 l 554 750 q 519 846 551 817 q 404 875 488 875 l 167 875 l 182 969 l 867 969 l 851 875 l 579 875 l 578 868 q 633 826 613 853 q 660 750 654 799 l 831 750 l 815 656 l 657 656 q 579 486 642 549 q 400 408 517 424 l 642 0 l 510 0 z "},"₺":{"ha":833,"x_min":71,"x_max":778,"o":"m 218 342 l 71 278 l 86 375 l 235 439 l 256 565 l 107 500 l 124 597 l 271 661 l 322 969 l 436 969 l 394 715 l 665 833 l 647 736 l 378 618 l 357 493 l 628 611 l 613 514 l 340 396 l 292 100 l 383 100 q 568 184 493 100 q 667 424 643 268 l 778 424 q 729 251 763 329 q 645 117 696 172 q 527 31 594 61 q 376 0 460 0 l 161 0 l 218 342 z "},"₽":{"ha":833,"x_min":40,"x_max":829,"o":"m 269 188 l 239 0 l 125 0 l 156 188 l 40 188 l 56 282 l 171 282 l 193 410 l 78 410 l 93 504 l 208 504 l 286 969 l 590 969 q 771 906 713 969 q 829 738 829 843 q 746 497 829 585 q 510 410 663 410 l 307 410 l 285 282 l 597 282 l 582 188 l 269 188 m 322 504 l 521 504 q 642 540 594 504 q 700 646 689 576 l 708 697 q 712 726 711 714 q 713 746 713 739 q 677 839 713 808 q 576 869 642 869 l 383 869 l 322 504 z "},"₿":{"ha":833,"x_min":64,"x_max":772,"o":"m 379 0 l 283 0 l 257 -157 l 172 -157 l 199 0 l 64 0 l 226 969 l 361 969 l 388 1126 l 472 1126 l 446 969 l 542 969 l 568 1126 l 653 1126 l 625 960 q 735 883 697 939 q 772 746 772 826 q 721 590 772 650 q 589 508 669 531 l 588 503 q 647 478 619 493 q 695 439 675 463 q 726 383 715 415 q 738 308 738 351 q 717 198 738 251 q 661 103 697 144 q 575 34 625 61 q 464 1 525 7 l 438 -157 l 353 -157 l 379 0 m 268 549 l 467 549 q 590 583 546 549 q 644 679 633 617 l 651 721 q 656 765 656 746 q 619 845 656 821 q 519 869 582 869 l 321 869 l 268 549 m 193 100 l 411 100 q 545 136 494 100 q 608 247 596 172 l 615 289 q 619 314 618 301 q 621 340 621 326 q 581 424 621 393 q 469 454 542 454 l 253 454 l 193 100 z "},"ﬁ":{"ha":833,"x_min":99,"x_max":831,"o":"m 203 624 l 103 624 l 118 717 l 218 717 l 243 865 q 263 929 249 900 q 298 981 276 958 q 351 1015 319 1003 q 424 1028 382 1028 l 579 1028 l 563 935 l 363 935 l 326 717 l 756 717 l 636 0 l 528 0 l 632 624 l 311 624 l 207 0 l 99 0 l 203 624 m 733 876 q 671 893 689 876 q 653 932 653 910 q 655 953 653 940 q 658 972 657 965 q 682 1018 663 997 q 750 1039 701 1039 q 813 1022 794 1039 q 831 983 831 1006 q 828 963 831 975 q 825 943 826 950 q 801 897 821 918 q 733 876 782 876 z "},"ﬂ":{"ha":833,"x_min":99,"x_max":807,"o":"m 203 624 l 103 624 l 118 717 l 218 717 l 243 865 q 263 929 249 900 q 298 981 276 958 q 351 1015 319 1003 q 424 1028 382 1028 l 593 1028 l 578 935 l 363 935 l 326 717 l 543 717 l 528 624 l 311 624 l 207 0 l 99 0 l 203 624 m 699 1028 l 807 1028 l 636 0 l 528 0 l 699 1028 z "},"á":{"ha":833,"x_min":78,"x_max":749,"o":"m 296 -17 q 134 53 190 -17 q 78 261 78 122 q 95 416 78 333 q 151 569 113 499 q 254 687 190 640 q 411 733 318 733 q 540 698 489 733 q 615 592 592 663 l 619 592 l 640 717 l 749 717 l 646 97 l 744 97 l 728 0 l 647 0 q 556 35 581 0 q 540 118 532 69 l 549 169 l 544 169 q 446 34 503 85 q 296 -17 389 -17 m 333 79 q 420 98 378 79 q 499 158 463 117 q 547 232 526 190 q 575 322 567 274 l 601 481 q 567 597 614 556 q 442 638 521 638 q 284 575 342 638 q 210 413 226 513 l 193 313 q 189 278 190 293 q 188 250 188 264 q 224 124 188 169 q 333 79 261 79 m 467 813 l 401 851 l 551 1082 l 646 1028 l 467 813 z "},"ă":{"ha":833,"x_min":78,"x_max":749,"o":"m 296 -17 q 134 53 190 -17 q 78 261 78 122 q 95 416 78 333 q 151 569 113 499 q 254 687 190 640 q 411 733 318 733 q 540 698 489 733 q 615 592 592 663 l 619 592 l 640 717 l 749 717 l 646 97 l 744 97 l 728 0 l 647 0 q 556 35 581 0 q 540 118 532 69 l 549 169 l 544 169 q 446 34 503 85 q 296 -17 389 -17 m 333 79 q 420 98 378 79 q 499 158 463 117 q 547 232 526 190 q 575 322 567 274 l 601 481 q 567 597 614 556 q 442 638 521 638 q 284 575 342 638 q 210 413 226 513 l 193 313 q 189 278 190 293 q 188 250 188 264 q 224 124 188 169 q 333 79 261 79 m 460 826 q 369 847 404 826 q 311 899 333 868 q 278 967 289 931 q 264 1036 268 1004 l 331 1065 l 351 1018 q 373 972 363 992 q 395 940 383 953 q 423 920 407 926 q 463 914 439 914 q 501 919 485 914 q 533 938 517 925 q 565 970 549 950 q 604 1018 582 990 l 642 1065 l 711 1036 q 675 967 696 1004 q 625 899 654 931 q 555 847 596 868 q 460 826 514 826 z "},"ǎ":{"ha":833,"x_min":78,"x_max":749,"o":"m 296 -17 q 134 53 190 -17 q 78 261 78 122 q 95 416 78 333 q 151 569 113 499 q 254 687 190 640 q 411 733 318 733 q 540 698 489 733 q 615 592 592 663 l 619 592 l 640 717 l 749 717 l 646 97 l 744 97 l 728 0 l 647 0 q 556 35 581 0 q 540 118 532 69 l 549 169 l 544 169 q 446 34 503 85 q 296 -17 389 -17 m 333 79 q 420 98 378 79 q 499 158 463 117 q 547 232 526 190 q 575 322 567 274 l 601 481 q 567 597 614 556 q 442 638 521 638 q 284 575 342 638 q 210 413 226 513 l 193 313 q 189 278 190 293 q 188 250 188 264 q 224 124 188 169 q 333 79 261 79 m 389 832 l 268 1036 l 332 1074 l 465 911 l 656 1074 l 710 1028 l 525 832 l 389 832 z "},"â":{"ha":833,"x_min":78,"x_max":749,"o":"m 296 -17 q 134 53 190 -17 q 78 261 78 122 q 95 416 78 333 q 151 569 113 499 q 254 687 190 640 q 411 733 318 733 q 540 698 489 733 q 615 592 592 663 l 619 592 l 640 717 l 749 717 l 646 97 l 744 97 l 728 0 l 647 0 q 556 35 581 0 q 540 118 532 69 l 549 169 l 544 169 q 446 34 503 85 q 296 -17 389 -17 m 333 79 q 420 98 378 79 q 499 158 463 117 q 547 232 526 190 q 575 322 567 274 l 601 481 q 567 597 614 556 q 442 638 521 638 q 284 575 342 638 q 210 413 226 513 l 193 313 q 189 278 190 293 q 188 250 188 264 q 224 124 188 169 q 333 79 261 79 m 563 1063 l 683 858 l 619 821 l 486 983 l 296 821 l 242 867 l 426 1063 l 563 1063 z "},"ä":{"ha":833,"x_min":78,"x_max":749,"o":"m 296 -17 q 134 53 190 -17 q 78 261 78 122 q 95 416 78 333 q 151 569 113 499 q 254 687 190 640 q 411 733 318 733 q 540 698 489 733 q 615 592 592 663 l 619 592 l 640 717 l 749 717 l 646 97 l 744 97 l 728 0 l 647 0 q 556 35 581 0 q 540 118 532 69 l 549 169 l 544 169 q 446 34 503 85 q 296 -17 389 -17 m 333 79 q 420 98 378 79 q 499 158 463 117 q 547 232 526 190 q 575 322 567 274 l 601 481 q 567 597 614 556 q 442 638 521 638 q 284 575 342 638 q 210 413 226 513 l 193 313 q 189 278 190 293 q 188 250 188 264 q 224 124 188 169 q 333 79 261 79 m 336 860 q 280 875 296 860 q 264 910 264 890 q 265 926 264 917 q 269 944 267 935 q 293 988 276 972 q 351 1004 310 1004 q 408 989 392 1004 q 424 954 424 974 q 422 938 424 947 q 418 919 421 929 q 394 876 411 892 q 336 860 378 860 m 594 860 q 538 875 554 860 q 522 910 522 890 q 524 926 522 917 q 528 944 525 935 q 551 988 535 972 q 610 1004 568 1004 q 666 989 650 1004 q 682 954 682 974 q 681 938 682 947 q 676 919 679 929 q 653 876 669 892 q 594 860 636 860 z "},"ạ":{"ha":833,"x_min":78,"x_max":749,"o":"m 296 -17 q 134 53 190 -17 q 78 261 78 122 q 95 416 78 333 q 151 569 113 499 q 254 687 190 640 q 411 733 318 733 q 540 698 489 733 q 615 592 592 663 l 619 592 l 640 717 l 749 717 l 646 97 l 744 97 l 728 0 l 647 0 q 556 35 581 0 q 540 118 532 69 l 549 169 l 544 169 q 446 34 503 85 q 296 -17 389 -17 m 333 79 q 420 98 378 79 q 499 158 463 117 q 547 232 526 190 q 575 322 567 274 l 601 481 q 567 597 614 556 q 442 638 521 638 q 284 575 342 638 q 210 413 226 513 l 193 313 q 189 278 190 293 q 188 250 188 264 q 224 124 188 169 q 333 79 261 79 m 299 -237 q 242 -222 258 -237 q 226 -187 226 -207 q 228 -169 226 -181 q 232 -151 229 -158 q 256 -108 239 -125 q 314 -92 272 -92 q 370 -107 354 -92 q 386 -142 386 -122 q 385 -160 386 -149 q 381 -178 383 -171 q 357 -221 374 -204 q 299 -237 340 -237 z "},"à":{"ha":833,"x_min":78,"x_max":749,"o":"m 296 -17 q 134 53 190 -17 q 78 261 78 122 q 95 416 78 333 q 151 569 113 499 q 254 687 190 640 q 411 733 318 733 q 540 698 489 733 q 615 592 592 663 l 619 592 l 640 717 l 749 717 l 646 97 l 744 97 l 728 0 l 647 0 q 556 35 581 0 q 540 118 532 69 l 549 169 l 544 169 q 446 34 503 85 q 296 -17 389 -17 m 333 79 q 420 98 378 79 q 499 158 463 117 q 547 232 526 190 q 575 322 567 274 l 601 481 q 567 597 614 556 q 442 638 521 638 q 284 575 342 638 q 210 413 226 513 l 193 313 q 189 278 190 293 q 188 250 188 264 q 224 124 188 169 q 333 79 261 79 m 340 1044 l 443 1082 l 515 840 l 444 813 l 340 1044 z "},"ả":{"ha":833,"x_min":78,"x_max":749,"o":"m 296 -17 q 134 53 190 -17 q 78 261 78 122 q 95 416 78 333 q 151 569 113 499 q 254 687 190 640 q 411 733 318 733 q 540 698 489 733 q 615 592 592 663 l 619 592 l 640 717 l 749 717 l 646 97 l 744 97 l 728 0 l 647 0 q 556 35 581 0 q 540 118 532 69 l 549 169 l 544 169 q 446 34 503 85 q 296 -17 389 -17 m 333 79 q 420 98 378 79 q 499 158 463 117 q 547 232 526 190 q 575 322 567 274 l 601 481 q 567 597 614 556 q 442 638 521 638 q 284 575 342 638 q 210 413 226 513 l 193 313 q 189 278 190 293 q 188 250 188 264 q 224 124 188 169 q 333 79 261 79 m 381 1063 l 522 1063 q 593 1042 571 1063 q 615 990 615 1022 q 597 927 615 958 q 543 860 578 896 l 488 801 l 428 839 l 526 978 l 367 978 l 381 1063 z "},"ā":{"ha":833,"x_min":78,"x_max":749,"o":"m 296 -17 q 134 53 190 -17 q 78 261 78 122 q 95 416 78 333 q 151 569 113 499 q 254 687 190 640 q 411 733 318 733 q 540 698 489 733 q 615 592 592 663 l 619 592 l 640 717 l 749 717 l 646 97 l 744 97 l 728 0 l 647 0 q 556 35 581 0 q 540 118 532 69 l 549 169 l 544 169 q 446 34 503 85 q 296 -17 389 -17 m 333 79 q 420 98 378 79 q 499 158 463 117 q 547 232 526 190 q 575 322 567 274 l 601 481 q 567 597 614 556 q 442 638 521 638 q 284 575 342 638 q 210 413 226 513 l 193 313 q 189 278 190 293 q 188 250 188 264 q 224 124 188 169 q 333 79 261 79 m 288 979 l 672 979 l 657 886 l 272 886 l 288 979 z "},"ą":{"ha":833,"x_min":78,"x_max":749,"o":"m 601 -287 q 550 -282 575 -287 q 506 -264 525 -276 q 476 -231 488 -251 q 465 -183 465 -211 q 514 -85 465 -126 q 640 -7 563 -43 l 640 0 q 555 36 578 3 q 540 118 532 69 l 549 169 l 544 169 q 446 34 503 85 q 296 -17 389 -17 q 134 53 190 -17 q 78 261 78 122 q 95 416 78 333 q 151 569 113 499 q 254 687 190 640 q 411 733 318 733 q 540 698 489 733 q 615 592 592 663 l 619 592 l 640 717 l 749 717 l 646 97 l 744 97 l 728 0 q 639 -63 672 -36 q 588 -110 606 -90 q 565 -144 571 -131 q 560 -169 560 -158 q 574 -203 560 -193 q 607 -212 588 -212 q 685 -176 644 -212 l 738 -236 q 684 -272 718 -256 q 601 -287 650 -287 m 333 79 q 420 98 378 79 q 499 158 463 117 q 547 232 526 190 q 575 322 567 274 l 601 481 q 567 597 614 556 q 442 638 521 638 q 284 575 342 638 q 210 413 226 513 l 193 313 q 189 278 190 293 q 188 250 188 264 q 224 124 188 169 q 333 79 261 79 z "},"å":{"ha":833,"x_min":78,"x_max":749,"o":"m 296 -17 q 134 53 190 -17 q 78 261 78 122 q 95 416 78 333 q 151 569 113 499 q 254 687 190 640 q 411 733 318 733 q 540 698 489 733 q 615 592 592 663 l 619 592 l 640 717 l 749 717 l 646 97 l 744 97 l 728 0 l 647 0 q 556 35 581 0 q 540 118 532 69 l 549 169 l 544 169 q 446 34 503 85 q 296 -17 389 -17 m 333 79 q 420 98 378 79 q 499 158 463 117 q 547 232 526 190 q 575 322 567 274 l 601 481 q 567 597 614 556 q 442 638 521 638 q 284 575 342 638 q 210 413 226 513 l 193 313 q 189 278 190 293 q 188 250 188 264 q 224 124 188 169 q 333 79 261 79 m 457 803 q 356 841 394 803 q 317 940 317 879 q 331 1010 317 978 q 371 1065 346 1042 q 428 1103 396 1089 q 496 1117 460 1117 q 597 1078 558 1117 q 636 979 636 1040 q 622 910 636 942 q 582 854 607 878 q 524 817 557 831 q 457 803 492 803 m 463 868 q 523 888 499 868 q 554 946 547 908 q 558 971 557 958 q 560 990 560 983 q 542 1035 560 1018 q 490 1051 525 1051 q 430 1031 454 1051 q 399 974 406 1011 q 394 949 396 961 q 393 929 393 936 q 410 885 393 901 q 463 868 428 868 z "},"ǻ":{"ha":833,"x_min":78,"x_max":749,"o":"m 296 -17 q 134 53 190 -17 q 78 261 78 122 q 95 416 78 333 q 151 569 113 499 q 254 687 190 640 q 411 733 318 733 q 540 698 489 733 q 615 592 592 663 l 619 592 l 640 717 l 749 717 l 646 97 l 744 97 l 728 0 l 647 0 q 556 35 581 0 q 540 118 532 69 l 549 169 l 544 169 q 446 34 503 85 q 296 -17 389 -17 m 333 79 q 420 98 378 79 q 499 158 463 117 q 547 232 526 190 q 575 322 567 274 l 601 481 q 567 597 614 556 q 442 638 521 638 q 284 575 342 638 q 210 413 226 513 l 193 313 q 189 278 190 293 q 188 250 188 264 q 224 124 188 169 q 333 79 261 79 m 511 1131 l 460 1169 l 585 1328 l 658 1274 l 511 1131 m 457 789 q 356 827 394 789 q 317 926 317 865 q 331 996 317 964 q 371 1051 346 1028 q 428 1089 396 1075 q 496 1103 460 1103 q 597 1065 558 1103 q 636 965 636 1026 q 622 896 636 928 q 582 840 607 864 q 524 803 557 817 q 457 789 492 789 m 463 854 q 519 872 494 854 q 554 932 544 889 q 560 976 560 960 q 542 1021 560 1004 q 490 1038 525 1038 q 433 1020 458 1038 q 399 960 408 1003 q 393 915 393 932 q 410 871 393 888 q 463 854 428 854 z "},"ã":{"ha":833,"x_min":78,"x_max":749,"o":"m 296 -17 q 134 53 190 -17 q 78 261 78 122 q 95 416 78 333 q 151 569 113 499 q 254 687 190 640 q 411 733 318 733 q 540 698 489 733 q 615 592 592 663 l 619 592 l 640 717 l 749 717 l 646 97 l 744 97 l 728 0 l 647 0 q 556 35 581 0 q 540 118 532 69 l 549 169 l 544 169 q 446 34 503 85 q 296 -17 389 -17 m 333 79 q 420 98 378 79 q 499 158 463 117 q 547 232 526 190 q 575 322 567 274 l 601 481 q 567 597 614 556 q 442 638 521 638 q 284 575 342 638 q 210 413 226 513 l 193 313 q 189 278 190 293 q 188 250 188 264 q 224 124 188 169 q 333 79 261 79 m 565 850 q 506 863 531 850 q 460 889 481 876 q 413 913 436 904 q 371 921 390 921 q 328 910 349 921 q 283 881 307 900 l 244 938 q 303 988 268 965 q 382 1010 338 1010 q 442 997 417 1010 q 488 971 467 983 q 534 947 511 956 q 576 939 557 939 q 619 949 599 939 q 664 979 640 960 l 703 922 q 644 872 679 894 q 565 850 610 850 z "},"ắ":{"ha":833,"x_min":78,"x_max":749,"o":"m 296 -17 q 134 53 190 -17 q 78 261 78 122 q 95 416 78 333 q 151 569 113 499 q 254 687 190 640 q 411 733 318 733 q 540 698 489 733 q 615 592 592 663 l 619 592 l 640 717 l 749 717 l 646 97 l 744 97 l 728 0 l 647 0 q 556 35 581 0 q 540 118 532 69 l 549 169 l 544 169 q 446 34 503 85 q 296 -17 389 -17 m 333 79 q 420 98 378 79 q 499 158 463 117 q 547 232 526 190 q 575 322 567 274 l 601 481 q 567 597 614 556 q 442 638 521 638 q 284 575 342 638 q 210 413 226 513 l 193 313 q 189 278 190 293 q 188 250 188 264 q 224 124 188 169 q 333 79 261 79 m 454 813 q 362 831 397 813 q 304 878 326 850 q 272 941 282 907 q 257 1006 261 975 l 319 1038 l 342 993 q 392 921 367 943 q 461 899 417 899 q 535 919 501 899 q 613 993 568 939 l 649 1038 l 717 1006 q 678 938 700 972 q 624 876 656 904 q 550 831 592 849 q 454 813 508 813 m 481 983 l 419 1019 l 569 1250 l 660 1199 l 481 983 z "},"ặ":{"ha":833,"x_min":78,"x_max":749,"o":"m 296 -17 q 134 53 190 -17 q 78 261 78 122 q 95 416 78 333 q 151 569 113 499 q 254 687 190 640 q 411 733 318 733 q 540 698 489 733 q 615 592 592 663 l 619 592 l 640 717 l 749 717 l 646 97 l 744 97 l 728 0 l 647 0 q 556 35 581 0 q 540 118 532 69 l 549 169 l 544 169 q 446 34 503 85 q 296 -17 389 -17 m 333 79 q 420 98 378 79 q 499 158 463 117 q 547 232 526 190 q 575 322 567 274 l 601 481 q 567 597 614 556 q 442 638 521 638 q 284 575 342 638 q 210 413 226 513 l 193 313 q 189 278 190 293 q 188 250 188 264 q 224 124 188 169 q 333 79 261 79 m 460 826 q 369 847 404 826 q 311 899 333 868 q 278 967 289 931 q 264 1036 268 1004 l 331 1065 l 351 1018 q 373 972 363 992 q 395 940 383 953 q 423 920 407 926 q 463 914 439 914 q 501 919 485 914 q 533 938 517 925 q 565 970 549 950 q 604 1018 582 990 l 642 1065 l 711 1036 q 675 967 696 1004 q 625 899 654 931 q 555 847 596 868 q 460 826 514 826 m 299 -237 q 242 -222 258 -237 q 226 -187 226 -207 q 228 -169 226 -181 q 232 -151 229 -158 q 256 -108 239 -125 q 314 -92 272 -92 q 370 -107 354 -92 q 386 -142 386 -122 q 385 -160 386 -149 q 381 -178 383 -171 q 357 -221 374 -204 q 299 -237 340 -237 z "},"ằ":{"ha":833,"x_min":78,"x_max":749,"o":"m 296 -17 q 134 53 190 -17 q 78 261 78 122 q 95 416 78 333 q 151 569 113 499 q 254 687 190 640 q 411 733 318 733 q 540 698 489 733 q 615 592 592 663 l 619 592 l 640 717 l 749 717 l 646 97 l 744 97 l 728 0 l 647 0 q 556 35 581 0 q 540 118 532 69 l 549 169 l 544 169 q 446 34 503 85 q 296 -17 389 -17 m 333 79 q 420 98 378 79 q 499 158 463 117 q 547 232 526 190 q 575 322 567 274 l 601 481 q 567 597 614 556 q 442 638 521 638 q 284 575 342 638 q 210 413 226 513 l 193 313 q 189 278 190 293 q 188 250 188 264 q 224 124 188 169 q 333 79 261 79 m 454 813 q 362 831 397 813 q 304 878 326 850 q 272 941 282 907 q 257 1006 261 975 l 319 1038 l 342 993 q 392 921 367 943 q 461 899 417 899 q 535 919 501 899 q 613 993 568 939 l 649 1038 l 717 1006 q 678 938 700 972 q 624 876 656 904 q 550 831 592 849 q 454 813 508 813 m 347 1214 l 446 1250 l 518 1008 l 451 983 l 347 1214 z "},"ẳ":{"ha":833,"x_min":78,"x_max":749,"o":"m 296 -17 q 134 53 190 -17 q 78 261 78 122 q 95 416 78 333 q 151 569 113 499 q 254 687 190 640 q 411 733 318 733 q 540 698 489 733 q 615 592 592 663 l 619 592 l 640 717 l 749 717 l 646 97 l 744 97 l 728 0 l 647 0 q 556 35 581 0 q 540 118 532 69 l 549 169 l 544 169 q 446 34 503 85 q 296 -17 389 -17 m 333 79 q 420 98 378 79 q 499 158 463 117 q 547 232 526 190 q 575 322 567 274 l 601 481 q 567 597 614 556 q 442 638 521 638 q 284 575 342 638 q 210 413 226 513 l 193 313 q 189 278 190 293 q 188 250 188 264 q 224 124 188 169 q 333 79 261 79 m 454 813 q 362 831 397 813 q 304 878 326 850 q 272 941 282 907 q 257 1006 261 975 l 319 1038 l 342 993 q 392 921 367 943 q 461 899 417 899 q 535 919 501 899 q 613 993 568 939 l 649 1038 l 717 1006 q 678 938 700 972 q 624 876 656 904 q 550 831 592 849 q 454 813 508 813 m 383 1236 l 507 1236 q 578 1215 556 1236 q 600 1165 600 1194 q 586 1115 600 1140 q 549 1063 572 1090 l 471 975 l 413 1013 l 511 1151 l 368 1151 l 383 1236 z "},"ẵ":{"ha":833,"x_min":78,"x_max":749,"o":"m 296 -17 q 134 53 190 -17 q 78 261 78 122 q 95 416 78 333 q 151 569 113 499 q 254 687 190 640 q 411 733 318 733 q 540 698 489 733 q 615 592 592 663 l 619 592 l 640 717 l 749 717 l 646 97 l 744 97 l 728 0 l 647 0 q 556 35 581 0 q 540 118 532 69 l 549 169 l 544 169 q 446 34 503 85 q 296 -17 389 -17 m 333 79 q 420 98 378 79 q 499 158 463 117 q 547 232 526 190 q 575 322 567 274 l 601 481 q 567 597 614 556 q 442 638 521 638 q 284 575 342 638 q 210 413 226 513 l 193 313 q 189 278 190 293 q 188 250 188 264 q 224 124 188 169 q 333 79 261 79 m 454 813 q 362 831 397 813 q 304 878 326 850 q 272 941 282 907 q 257 1006 261 975 l 319 1038 l 342 993 q 392 921 367 943 q 461 899 417 899 q 535 919 501 899 q 613 993 568 939 l 649 1038 l 717 1006 q 678 938 700 972 q 624 876 656 904 q 550 831 592 849 q 454 813 508 813 m 586 1079 q 526 1090 551 1079 q 481 1110 500 1100 q 392 1138 424 1138 q 350 1128 369 1138 q 307 1100 331 1118 l 268 1149 q 325 1199 292 1176 q 407 1221 358 1221 q 467 1210 442 1221 q 513 1190 493 1200 q 601 1163 569 1163 q 643 1172 624 1163 q 686 1200 663 1182 l 725 1151 q 668 1101 701 1124 q 586 1079 635 1079 z "},"ấ":{"ha":833,"x_min":78,"x_max":867,"o":"m 296 -17 q 134 53 190 -17 q 78 261 78 122 q 95 416 78 333 q 151 569 113 499 q 254 687 190 640 q 411 733 318 733 q 540 698 489 733 q 615 592 592 663 l 619 592 l 640 717 l 749 717 l 646 97 l 744 97 l 728 0 l 647 0 q 556 35 581 0 q 540 118 532 69 l 549 169 l 544 169 q 446 34 503 85 q 296 -17 389 -17 m 333 79 q 420 98 378 79 q 499 158 463 117 q 547 232 526 190 q 575 322 567 274 l 601 481 q 567 597 614 556 q 442 638 521 638 q 284 575 342 638 q 210 413 226 513 l 193 313 q 189 278 190 293 q 188 250 188 264 q 224 124 188 169 q 333 79 261 79 m 688 983 l 626 1019 l 776 1250 l 867 1199 l 688 983 m 560 1049 l 681 844 l 617 807 l 483 969 l 293 807 l 239 853 l 424 1049 l 560 1049 z "},"ậ":{"ha":833,"x_min":78,"x_max":749,"o":"m 296 -17 q 134 53 190 -17 q 78 261 78 122 q 95 416 78 333 q 151 569 113 499 q 254 687 190 640 q 411 733 318 733 q 540 698 489 733 q 615 592 592 663 l 619 592 l 640 717 l 749 717 l 646 97 l 744 97 l 728 0 l 647 0 q 556 35 581 0 q 540 118 532 69 l 549 169 l 544 169 q 446 34 503 85 q 296 -17 389 -17 m 333 79 q 420 98 378 79 q 499 158 463 117 q 547 232 526 190 q 575 322 567 274 l 601 481 q 567 597 614 556 q 442 638 521 638 q 284 575 342 638 q 210 413 226 513 l 193 313 q 189 278 190 293 q 188 250 188 264 q 224 124 188 169 q 333 79 261 79 m 563 1063 l 683 858 l 619 821 l 486 983 l 296 821 l 242 867 l 426 1063 l 563 1063 m 299 -237 q 242 -222 258 -237 q 226 -187 226 -207 q 228 -169 226 -181 q 232 -151 229 -158 q 256 -108 239 -125 q 314 -92 272 -92 q 370 -107 354 -92 q 386 -142 386 -122 q 385 -160 386 -149 q 381 -178 383 -171 q 357 -221 374 -204 q 299 -237 340 -237 z "},"ầ":{"ha":833,"x_min":78,"x_max":749,"o":"m 296 -17 q 134 53 190 -17 q 78 261 78 122 q 95 416 78 333 q 151 569 113 499 q 254 687 190 640 q 411 733 318 733 q 540 698 489 733 q 615 592 592 663 l 619 592 l 640 717 l 749 717 l 646 97 l 744 97 l 728 0 l 647 0 q 556 35 581 0 q 540 118 532 69 l 549 169 l 544 169 q 446 34 503 85 q 296 -17 389 -17 m 333 79 q 420 98 378 79 q 499 158 463 117 q 547 232 526 190 q 575 322 567 274 l 601 481 q 567 597 614 556 q 442 638 521 638 q 284 575 342 638 q 210 413 226 513 l 193 313 q 189 278 190 293 q 188 250 188 264 q 224 124 188 169 q 333 79 261 79 m 168 1221 l 267 1257 l 339 1015 l 272 990 l 168 1221 m 560 1049 l 681 844 l 617 807 l 483 969 l 293 807 l 239 853 l 424 1049 l 560 1049 z "},"ẩ":{"ha":833,"x_min":78,"x_max":818,"o":"m 296 -17 q 134 53 190 -17 q 78 261 78 122 q 95 416 78 333 q 151 569 113 499 q 254 687 190 640 q 411 733 318 733 q 540 698 489 733 q 615 592 592 663 l 619 592 l 640 717 l 749 717 l 646 97 l 744 97 l 728 0 l 647 0 q 556 35 581 0 q 540 118 532 69 l 549 169 l 544 169 q 446 34 503 85 q 296 -17 389 -17 m 333 79 q 420 98 378 79 q 499 158 463 117 q 547 232 526 190 q 575 322 567 274 l 601 481 q 567 597 614 556 q 442 638 521 638 q 284 575 342 638 q 210 413 226 513 l 193 313 q 189 278 190 293 q 188 250 188 264 q 224 124 188 169 q 333 79 261 79 m 585 1243 l 725 1243 q 796 1222 774 1243 q 818 1172 818 1201 q 804 1122 818 1147 q 767 1069 790 1097 l 689 982 l 631 1019 l 729 1158 l 569 1158 l 585 1243 m 560 1049 l 681 844 l 617 807 l 483 969 l 293 807 l 239 853 l 424 1049 l 560 1049 z "},"ẫ":{"ha":833,"x_min":78,"x_max":749,"o":"m 296 -17 q 134 53 190 -17 q 78 261 78 122 q 95 416 78 333 q 151 569 113 499 q 254 687 190 640 q 411 733 318 733 q 540 698 489 733 q 615 592 592 663 l 619 592 l 640 717 l 749 717 l 646 97 l 744 97 l 728 0 l 647 0 q 556 35 581 0 q 540 118 532 69 l 549 169 l 544 169 q 446 34 503 85 q 296 -17 389 -17 m 333 79 q 420 98 378 79 q 499 158 463 117 q 547 232 526 190 q 575 322 567 274 l 601 481 q 567 597 614 556 q 442 638 521 638 q 284 575 342 638 q 210 413 226 513 l 193 313 q 189 278 190 293 q 188 250 188 264 q 224 124 188 169 q 333 79 261 79 m 422 1242 q 482 1228 457 1242 q 528 1203 507 1215 q 574 1179 551 1188 q 617 1171 597 1171 q 660 1181 639 1171 q 704 1211 681 1192 l 743 1154 q 685 1104 719 1126 q 606 1082 650 1082 q 546 1095 571 1082 q 500 1121 521 1108 q 453 1144 476 1136 q 411 1153 431 1153 q 368 1142 389 1153 q 324 1113 347 1132 l 285 1169 q 343 1219 308 1197 q 422 1242 378 1242 m 563 1035 l 685 842 l 619 807 l 483 961 l 296 807 l 242 856 l 425 1035 l 563 1035 z "},"æ":{"ha":833,"x_min":0,"x_max":828,"o":"m 168 -17 q 48 28 96 -17 q 0 161 0 74 q 78 329 0 271 q 286 394 157 388 l 372 399 l 386 476 q 390 512 389 496 q 392 539 392 528 q 289 651 392 651 q 200 624 236 651 q 132 546 164 597 l 68 594 q 157 693 100 653 q 297 733 214 733 q 372 722 342 733 q 422 690 403 710 q 451 647 442 671 q 460 597 460 622 l 465 597 q 546 698 497 663 q 661 733 594 733 q 781 690 733 733 q 828 567 828 647 q 810 481 828 522 q 751 407 793 440 q 638 352 708 374 q 460 328 567 331 l 454 294 q 450 255 451 275 q 449 221 449 235 q 476 108 449 146 q 557 69 504 69 q 644 106 611 69 q 704 196 676 143 l 779 158 q 743 95 764 126 q 694 39 722 64 q 629 -1 665 14 q 550 -17 593 -17 q 424 31 474 -17 q 371 169 374 79 l 363 169 q 294 31 342 79 q 168 -17 246 -17 m 192 65 q 288 106 246 65 q 340 208 329 146 l 360 325 l 285 321 q 156 292 203 317 q 99 199 110 267 q 95 169 96 179 q 94 153 94 160 q 121 88 94 111 q 192 65 147 65 m 654 651 q 587 633 617 651 q 534 583 557 614 q 497 511 511 551 q 475 426 482 471 l 471 401 q 598 418 547 404 q 679 453 649 432 q 723 503 710 475 q 736 564 736 532 q 715 628 736 606 q 654 651 694 651 z "},"ǽ":{"ha":833,"x_min":0,"x_max":828,"o":"m 168 -17 q 48 28 96 -17 q 0 161 0 74 q 78 329 0 271 q 286 394 157 388 l 372 399 l 386 476 q 390 512 389 496 q 392 539 392 528 q 289 651 392 651 q 200 624 236 651 q 132 546 164 597 l 68 594 q 157 693 100 653 q 297 733 214 733 q 372 722 342 733 q 422 690 403 710 q 451 647 442 671 q 460 597 460 622 l 465 597 q 546 698 497 663 q 661 733 594 733 q 781 690 733 733 q 828 567 828 647 q 810 481 828 522 q 751 407 793 440 q 638 352 708 374 q 460 328 567 331 l 454 294 q 450 255 451 275 q 449 221 449 235 q 476 108 449 146 q 557 69 504 69 q 644 106 611 69 q 704 196 676 143 l 779 158 q 743 95 764 126 q 694 39 722 64 q 629 -1 665 14 q 550 -17 593 -17 q 424 31 474 -17 q 371 169 374 79 l 363 169 q 294 31 342 79 q 168 -17 246 -17 m 192 65 q 288 106 246 65 q 340 208 329 146 l 360 325 l 285 321 q 156 292 203 317 q 99 199 110 267 q 95 169 96 179 q 94 153 94 160 q 121 88 94 111 q 192 65 147 65 m 654 651 q 587 633 617 651 q 534 583 557 614 q 497 511 511 551 q 475 426 482 471 l 471 401 q 598 418 547 404 q 679 453 649 432 q 723 503 710 475 q 736 564 736 532 q 715 628 736 606 q 654 651 694 651 m 514 813 l 449 851 l 599 1082 l 693 1028 l 514 813 z "},"ć":{"ha":833,"x_min":104,"x_max":724,"o":"m 375 -17 q 258 6 308 -17 q 173 67 207 28 q 122 163 139 107 q 104 286 104 219 q 133 472 104 389 q 213 613 163 554 q 330 702 263 671 q 474 733 397 733 q 573 719 531 733 q 646 683 615 706 q 695 628 676 660 q 724 561 714 596 l 631 525 q 569 615 610 592 q 461 639 528 639 q 312 579 369 639 q 235 407 254 519 l 221 324 q 215 285 217 299 q 214 257 214 271 q 262 122 214 165 q 389 78 310 78 q 437 83 413 78 q 490 107 461 89 q 551 160 518 125 q 628 253 585 194 l 706 207 q 638 110 672 153 q 563 40 603 68 q 477 -2 524 13 q 375 -17 431 -17 m 499 813 l 433 851 l 583 1082 l 678 1028 l 499 813 z "},"č":{"ha":833,"x_min":104,"x_max":742,"o":"m 375 -17 q 258 6 308 -17 q 173 67 207 28 q 122 163 139 107 q 104 286 104 219 q 133 472 104 389 q 213 613 163 554 q 330 702 263 671 q 474 733 397 733 q 573 719 531 733 q 646 683 615 706 q 695 628 676 660 q 724 561 714 596 l 631 525 q 569 615 610 592 q 461 639 528 639 q 312 579 369 639 q 235 407 254 519 l 221 324 q 215 285 217 299 q 214 257 214 271 q 262 122 214 165 q 389 78 310 78 q 437 83 413 78 q 490 107 461 89 q 551 160 518 125 q 628 253 585 194 l 706 207 q 638 110 672 153 q 563 40 603 68 q 477 -2 524 13 q 375 -17 431 -17 m 421 832 l 300 1036 l 364 1074 l 497 911 l 688 1074 l 742 1028 l 557 832 l 421 832 z "},"ç":{"ha":833,"x_min":104,"x_max":724,"o":"m 474 733 q 573 719 531 733 q 646 683 615 706 q 695 628 676 660 q 724 561 714 596 l 631 525 q 569 615 610 592 q 461 639 528 639 q 312 579 369 639 q 235 407 254 519 l 221 324 q 215 285 217 299 q 214 257 214 271 q 262 122 214 165 q 389 78 310 78 q 437 83 413 78 q 490 107 461 89 q 551 160 518 125 q 628 253 585 194 l 706 207 q 574 48 643 104 q 406 -15 504 -8 l 381 -85 l 383 -89 q 413 -85 399 -86 q 435 -83 426 -83 q 495 -104 474 -83 q 517 -165 517 -125 q 503 -221 517 -197 q 469 -259 490 -244 q 418 -281 447 -274 q 357 -287 389 -287 q 270 -270 303 -287 q 224 -231 238 -253 l 279 -175 q 308 -201 290 -190 q 357 -212 326 -212 q 407 -201 388 -212 q 426 -165 426 -189 q 411 -134 426 -150 q 343 -111 396 -118 l 303 -106 l 336 -14 q 235 17 279 -8 q 163 81 192 42 q 119 172 133 119 q 104 286 104 224 q 133 472 104 389 q 213 613 163 554 q 330 702 263 671 q 474 733 397 733 z "},"ĉ":{"ha":833,"x_min":104,"x_max":724,"o":"m 375 -17 q 258 6 308 -17 q 173 67 207 28 q 122 163 139 107 q 104 286 104 219 q 133 472 104 389 q 213 613 163 554 q 330 702 263 671 q 474 733 397 733 q 573 719 531 733 q 646 683 615 706 q 695 628 676 660 q 724 561 714 596 l 631 525 q 569 615 610 592 q 461 639 528 639 q 312 579 369 639 q 235 407 254 519 l 221 324 q 215 285 217 299 q 214 257 214 271 q 262 122 214 165 q 389 78 310 78 q 437 83 413 78 q 490 107 461 89 q 551 160 518 125 q 628 253 585 194 l 706 207 q 638 110 672 153 q 563 40 603 68 q 477 -2 524 13 q 375 -17 431 -17 m 594 1063 l 715 858 l 651 821 l 518 983 l 328 821 l 274 867 l 458 1063 l 594 1063 z "},"ċ":{"ha":833,"x_min":104,"x_max":724,"o":"m 375 -17 q 258 6 308 -17 q 173 67 207 28 q 122 163 139 107 q 104 286 104 219 q 133 472 104 389 q 213 613 163 554 q 330 702 263 671 q 474 733 397 733 q 573 719 531 733 q 646 683 615 706 q 695 628 676 660 q 724 561 714 596 l 631 525 q 569 615 610 592 q 461 639 528 639 q 312 579 369 639 q 235 407 254 519 l 221 324 q 215 285 217 299 q 214 257 214 271 q 262 122 214 165 q 389 78 310 78 q 437 83 413 78 q 490 107 461 89 q 551 160 518 125 q 628 253 585 194 l 706 207 q 638 110 672 153 q 563 40 603 68 q 477 -2 524 13 q 375 -17 431 -17 m 494 850 q 432 867 450 850 q 414 906 414 883 q 416 926 414 913 q 419 946 418 939 q 444 992 424 971 q 511 1013 465 1013 q 574 996 556 1013 q 592 957 592 979 q 590 937 592 950 q 586 917 588 924 q 561 871 582 892 q 494 850 540 850 z "},"ď":{"ha":833,"x_min":56,"x_max":1011,"o":"m 268 -17 q 110 53 165 -17 q 56 261 56 122 q 63 362 56 308 q 87 468 71 415 q 128 569 103 521 q 189 653 153 617 q 273 712 225 690 q 382 733 321 733 q 511 698 458 733 q 585 592 564 663 l 589 592 l 661 1028 l 769 1028 l 597 0 l 489 0 l 517 169 l 513 169 q 415 34 472 85 q 268 -17 358 -17 m 308 79 q 387 96 346 79 q 468 160 428 113 q 513 231 492 188 q 543 324 535 274 l 569 481 q 567 549 576 519 q 535 598 557 578 q 481 628 513 618 q 414 638 450 638 q 260 576 317 638 q 188 414 204 514 l 171 314 q 167 280 168 294 q 165 251 165 265 q 201 124 165 169 q 308 79 238 79 m 869 1028 l 1011 1028 l 900 768 l 819 768 l 869 1028 z "},"đ":{"ha":833,"x_min":78,"x_max":885,"o":"m 560 169 l 556 169 q 455 34 514 85 q 301 -17 396 -17 q 135 53 193 -17 q 78 261 78 122 q 95 416 78 333 q 152 569 113 499 q 257 687 192 640 q 417 733 322 733 q 549 698 496 733 q 626 592 603 663 l 631 592 l 674 846 l 461 846 l 475 929 l 688 929 l 704 1028 l 813 1028 l 796 929 l 885 929 l 871 846 l 782 846 l 640 0 l 532 0 l 560 169 m 339 79 q 426 98 383 79 q 507 158 469 117 q 556 231 535 189 q 586 322 578 272 l 613 481 q 577 597 625 556 q 449 638 529 638 q 285 575 344 638 q 210 413 226 513 l 193 313 q 189 278 190 293 q 188 250 188 264 q 226 124 188 169 q 339 79 264 79 z "},"ð":{"ha":833,"x_min":83,"x_max":749,"o":"m 601 896 q 657 815 631 860 q 704 716 683 769 q 737 600 725 663 q 749 465 749 538 q 723 267 749 356 q 647 115 697 178 q 524 17 597 51 q 356 -17 450 -17 q 244 4 294 -17 q 158 63 193 25 q 103 156 122 101 q 83 275 83 210 q 110 442 83 364 q 184 576 136 519 q 297 667 232 633 q 440 700 363 700 q 565 665 510 700 q 642 574 619 629 l 649 576 q 603 710 636 642 q 518 843 571 778 l 374 753 l 331 817 l 464 901 q 384 969 428 938 q 289 1028 340 1000 l 463 1028 q 504 996 482 1014 q 550 954 526 978 l 694 1046 l 738 982 l 601 896 m 374 78 q 533 132 468 78 q 617 293 599 186 l 629 368 q 635 410 633 393 q 636 439 636 428 q 588 565 636 524 q 457 606 539 606 q 298 552 364 606 q 214 390 232 499 l 201 315 q 196 273 197 290 q 194 244 194 256 q 243 119 194 160 q 374 78 292 78 z "},"é":{"ha":833,"x_min":101,"x_max":739,"o":"m 385 -17 q 175 59 249 -17 q 101 290 101 135 q 131 469 101 388 q 212 609 160 550 q 337 701 264 668 q 496 733 410 733 q 593 721 549 733 q 670 684 638 708 q 721 624 703 660 q 739 540 739 588 q 722 463 739 503 q 649 388 704 422 q 491 329 594 353 q 217 301 388 306 q 215 281 215 290 q 215 269 215 272 q 222 197 215 232 q 249 135 229 163 q 303 92 268 108 q 394 76 338 76 q 465 85 433 76 q 524 113 496 94 q 580 162 553 132 q 638 235 607 192 l 714 188 q 576 35 653 88 q 385 -17 499 -17 m 486 643 q 310 578 378 643 q 226 390 242 513 l 225 376 q 435 397 356 381 q 558 435 515 413 q 614 483 600 457 q 628 536 628 510 q 620 578 628 558 q 596 612 613 597 q 552 635 579 626 q 486 643 525 643 m 519 813 l 454 851 l 604 1082 l 699 1028 l 519 813 z "},"ĕ":{"ha":833,"x_min":101,"x_max":764,"o":"m 385 -17 q 175 59 249 -17 q 101 290 101 135 q 131 469 101 388 q 212 609 160 550 q 337 701 264 668 q 496 733 410 733 q 593 721 549 733 q 670 684 638 708 q 721 624 703 660 q 739 540 739 588 q 722 463 739 503 q 649 388 704 422 q 491 329 594 353 q 217 301 388 306 q 215 281 215 290 q 215 269 215 272 q 222 197 215 232 q 249 135 229 163 q 303 92 268 108 q 394 76 338 76 q 465 85 433 76 q 524 113 496 94 q 580 162 553 132 q 638 235 607 192 l 714 188 q 576 35 653 88 q 385 -17 499 -17 m 486 643 q 310 578 378 643 q 226 390 242 513 l 225 376 q 435 397 356 381 q 558 435 515 413 q 614 483 600 457 q 628 536 628 510 q 620 578 628 558 q 596 612 613 597 q 552 635 579 626 q 486 643 525 643 m 513 826 q 422 847 457 826 q 364 899 386 868 q 331 967 342 931 q 317 1036 321 1004 l 383 1065 l 404 1018 q 426 972 415 992 q 448 940 436 953 q 476 920 460 926 q 515 914 492 914 q 553 919 538 914 q 585 938 569 925 q 618 970 601 950 q 657 1018 635 990 l 694 1065 l 764 1036 q 728 967 749 1004 q 678 899 707 931 q 608 847 649 868 q 513 826 567 826 z "},"ě":{"ha":833,"x_min":101,"x_max":763,"o":"m 385 -17 q 175 59 249 -17 q 101 290 101 135 q 131 469 101 388 q 212 609 160 550 q 337 701 264 668 q 496 733 410 733 q 593 721 549 733 q 670 684 638 708 q 721 624 703 660 q 739 540 739 588 q 722 463 739 503 q 649 388 704 422 q 491 329 594 353 q 217 301 388 306 q 215 281 215 290 q 215 269 215 272 q 222 197 215 232 q 249 135 229 163 q 303 92 268 108 q 394 76 338 76 q 465 85 433 76 q 524 113 496 94 q 580 162 553 132 q 638 235 607 192 l 714 188 q 576 35 653 88 q 385 -17 499 -17 m 486 643 q 310 578 378 643 q 226 390 242 513 l 225 376 q 435 397 356 381 q 558 435 515 413 q 614 483 600 457 q 628 536 628 510 q 620 578 628 558 q 596 612 613 597 q 552 635 579 626 q 486 643 525 643 m 442 832 l 321 1036 l 385 1074 l 518 911 l 708 1074 l 763 1028 l 578 832 l 442 832 z "},"ê":{"ha":833,"x_min":101,"x_max":739,"o":"m 385 -17 q 175 59 249 -17 q 101 290 101 135 q 131 469 101 388 q 212 609 160 550 q 337 701 264 668 q 496 733 410 733 q 593 721 549 733 q 670 684 638 708 q 721 624 703 660 q 739 540 739 588 q 722 463 739 503 q 649 388 704 422 q 491 329 594 353 q 217 301 388 306 q 215 281 215 290 q 215 269 215 272 q 222 197 215 232 q 249 135 229 163 q 303 92 268 108 q 394 76 338 76 q 465 85 433 76 q 524 113 496 94 q 580 162 553 132 q 638 235 607 192 l 714 188 q 576 35 653 88 q 385 -17 499 -17 m 486 643 q 310 578 378 643 q 226 390 242 513 l 225 376 q 435 397 356 381 q 558 435 515 413 q 614 483 600 457 q 628 536 628 510 q 620 578 628 558 q 596 612 613 597 q 552 635 579 626 q 486 643 525 643 m 615 1063 l 736 858 l 672 821 l 539 983 l 349 821 l 294 867 l 479 1063 l 615 1063 z "},"ë":{"ha":833,"x_min":101,"x_max":739,"o":"m 385 -17 q 175 59 249 -17 q 101 290 101 135 q 131 469 101 388 q 212 609 160 550 q 337 701 264 668 q 496 733 410 733 q 593 721 549 733 q 670 684 638 708 q 721 624 703 660 q 739 540 739 588 q 722 463 739 503 q 649 388 704 422 q 491 329 594 353 q 217 301 388 306 q 215 281 215 290 q 215 269 215 272 q 222 197 215 232 q 249 135 229 163 q 303 92 268 108 q 394 76 338 76 q 465 85 433 76 q 524 113 496 94 q 580 162 553 132 q 638 235 607 192 l 714 188 q 576 35 653 88 q 385 -17 499 -17 m 486 643 q 310 578 378 643 q 226 390 242 513 l 225 376 q 435 397 356 381 q 558 435 515 413 q 614 483 600 457 q 628 536 628 510 q 620 578 628 558 q 596 612 613 597 q 552 635 579 626 q 486 643 525 643 m 389 860 q 333 875 349 860 q 317 910 317 890 q 318 926 317 917 q 322 944 319 935 q 346 988 329 972 q 404 1004 363 1004 q 460 989 444 1004 q 476 954 476 974 q 475 938 476 947 q 471 919 474 929 q 447 876 464 892 q 389 860 431 860 m 647 860 q 591 875 607 860 q 575 910 575 890 q 576 926 575 917 q 581 944 578 935 q 604 988 588 972 q 663 1004 621 1004 q 719 989 703 1004 q 735 954 735 974 q 733 938 735 947 q 729 919 732 929 q 706 876 722 892 q 647 860 689 860 z "},"ė":{"ha":833,"x_min":101,"x_max":739,"o":"m 385 -17 q 175 59 249 -17 q 101 290 101 135 q 131 469 101 388 q 212 609 160 550 q 337 701 264 668 q 496 733 410 733 q 593 721 549 733 q 670 684 638 708 q 721 624 703 660 q 739 540 739 588 q 722 463 739 503 q 649 388 704 422 q 491 329 594 353 q 217 301 388 306 q 215 281 215 290 q 215 269 215 272 q 222 197 215 232 q 249 135 229 163 q 303 92 268 108 q 394 76 338 76 q 465 85 433 76 q 524 113 496 94 q 580 162 553 132 q 638 235 607 192 l 714 188 q 576 35 653 88 q 385 -17 499 -17 m 486 643 q 310 578 378 643 q 226 390 242 513 l 225 376 q 435 397 356 381 q 558 435 515 413 q 614 483 600 457 q 628 536 628 510 q 620 578 628 558 q 596 612 613 597 q 552 635 579 626 q 486 643 525 643 m 515 850 q 453 867 471 850 q 435 906 435 883 q 437 926 435 913 q 440 946 439 939 q 465 992 444 971 q 532 1013 486 1013 q 594 996 576 1013 q 613 957 613 979 q 610 937 613 950 q 607 917 608 924 q 582 871 603 892 q 515 850 561 850 z "},"ẹ":{"ha":833,"x_min":101,"x_max":739,"o":"m 385 -17 q 175 59 249 -17 q 101 290 101 135 q 131 469 101 388 q 212 609 160 550 q 337 701 264 668 q 496 733 410 733 q 593 721 549 733 q 670 684 638 708 q 721 624 703 660 q 739 540 739 588 q 722 463 739 503 q 649 388 704 422 q 491 329 594 353 q 217 301 388 306 q 215 281 215 290 q 215 269 215 272 q 222 197 215 232 q 249 135 229 163 q 303 92 268 108 q 394 76 338 76 q 465 85 433 76 q 524 113 496 94 q 580 162 553 132 q 638 235 607 192 l 714 188 q 576 35 653 88 q 385 -17 499 -17 m 486 643 q 310 578 378 643 q 226 390 242 513 l 225 376 q 435 397 356 381 q 558 435 515 413 q 614 483 600 457 q 628 536 628 510 q 620 578 628 558 q 596 612 613 597 q 552 635 579 626 q 486 643 525 643 m 356 -237 q 299 -222 315 -237 q 283 -187 283 -207 q 285 -169 283 -181 q 289 -151 286 -158 q 313 -108 296 -125 q 371 -92 329 -92 q 427 -107 411 -92 q 443 -142 443 -122 q 442 -160 443 -149 q 438 -178 440 -171 q 414 -221 431 -204 q 356 -237 397 -237 z "},"è":{"ha":833,"x_min":101,"x_max":739,"o":"m 385 -17 q 175 59 249 -17 q 101 290 101 135 q 131 469 101 388 q 212 609 160 550 q 337 701 264 668 q 496 733 410 733 q 593 721 549 733 q 670 684 638 708 q 721 624 703 660 q 739 540 739 588 q 722 463 739 503 q 649 388 704 422 q 491 329 594 353 q 217 301 388 306 q 215 281 215 290 q 215 269 215 272 q 222 197 215 232 q 249 135 229 163 q 303 92 268 108 q 394 76 338 76 q 465 85 433 76 q 524 113 496 94 q 580 162 553 132 q 638 235 607 192 l 714 188 q 576 35 653 88 q 385 -17 499 -17 m 486 643 q 310 578 378 643 q 226 390 242 513 l 225 376 q 435 397 356 381 q 558 435 515 413 q 614 483 600 457 q 628 536 628 510 q 620 578 628 558 q 596 612 613 597 q 552 635 579 626 q 486 643 525 643 m 393 1044 l 496 1082 l 568 840 l 497 813 l 393 1044 z "},"ẻ":{"ha":833,"x_min":101,"x_max":739,"o":"m 385 -17 q 175 59 249 -17 q 101 290 101 135 q 131 469 101 388 q 212 609 160 550 q 337 701 264 668 q 496 733 410 733 q 593 721 549 733 q 670 684 638 708 q 721 624 703 660 q 739 540 739 588 q 722 463 739 503 q 649 388 704 422 q 491 329 594 353 q 217 301 388 306 q 215 281 215 290 q 215 269 215 272 q 222 197 215 232 q 249 135 229 163 q 303 92 268 108 q 394 76 338 76 q 465 85 433 76 q 524 113 496 94 q 580 162 553 132 q 638 235 607 192 l 714 188 q 576 35 653 88 q 385 -17 499 -17 m 486 643 q 310 578 378 643 q 226 390 242 513 l 225 376 q 435 397 356 381 q 558 435 515 413 q 614 483 600 457 q 628 536 628 510 q 620 578 628 558 q 596 612 613 597 q 552 635 579 626 q 486 643 525 643 m 433 1063 l 575 1063 q 646 1042 624 1063 q 668 990 668 1022 q 649 927 668 958 q 596 860 631 896 l 540 801 l 481 839 l 579 978 l 419 978 l 433 1063 z "},"ē":{"ha":833,"x_min":101,"x_max":739,"o":"m 385 -17 q 175 59 249 -17 q 101 290 101 135 q 131 469 101 388 q 212 609 160 550 q 337 701 264 668 q 496 733 410 733 q 593 721 549 733 q 670 684 638 708 q 721 624 703 660 q 739 540 739 588 q 722 463 739 503 q 649 388 704 422 q 491 329 594 353 q 217 301 388 306 q 215 281 215 290 q 215 269 215 272 q 222 197 215 232 q 249 135 229 163 q 303 92 268 108 q 394 76 338 76 q 465 85 433 76 q 524 113 496 94 q 580 162 553 132 q 638 235 607 192 l 714 188 q 576 35 653 88 q 385 -17 499 -17 m 486 643 q 310 578 378 643 q 226 390 242 513 l 225 376 q 435 397 356 381 q 558 435 515 413 q 614 483 600 457 q 628 536 628 510 q 620 578 628 558 q 596 612 613 597 q 552 635 579 626 q 486 643 525 643 m 340 979 l 725 979 l 710 886 l 325 886 l 340 979 z "},"ę":{"ha":833,"x_min":101,"x_max":739,"o":"m 443 -287 q 392 -282 417 -287 q 348 -264 367 -276 q 318 -231 329 -251 q 307 -183 307 -211 q 345 -90 307 -129 q 450 -18 383 -50 l 449 -12 q 385 -17 419 -17 q 175 59 249 -17 q 101 290 101 135 q 131 469 101 388 q 212 609 160 550 q 337 701 264 668 q 496 733 410 733 q 593 721 549 733 q 670 684 638 708 q 721 624 703 660 q 739 540 739 588 q 722 463 739 503 q 649 388 704 422 q 491 329 594 353 q 217 301 388 306 q 215 281 215 290 q 215 269 215 272 q 222 197 215 232 q 249 135 229 163 q 303 92 268 108 q 394 76 338 76 q 465 85 433 76 q 524 113 496 94 q 580 162 553 132 q 638 235 607 192 l 714 188 q 647 99 682 135 q 569 33 611 63 q 485 -31 518 -3 q 434 -84 453 -60 q 408 -128 415 -108 q 401 -165 401 -147 q 417 -201 401 -190 q 451 -212 432 -212 q 526 -176 486 -212 l 579 -236 q 526 -272 560 -256 q 443 -287 492 -287 m 486 643 q 310 578 378 643 q 226 390 242 513 l 225 376 q 435 397 356 381 q 558 435 515 413 q 614 483 600 457 q 628 536 628 510 q 620 578 628 558 q 596 612 613 597 q 552 635 579 626 q 486 643 525 643 z "},"ẽ":{"ha":833,"x_min":101,"x_max":756,"o":"m 385 -17 q 175 59 249 -17 q 101 290 101 135 q 131 469 101 388 q 212 609 160 550 q 337 701 264 668 q 496 733 410 733 q 593 721 549 733 q 670 684 638 708 q 721 624 703 660 q 739 540 739 588 q 722 463 739 503 q 649 388 704 422 q 491 329 594 353 q 217 301 388 306 q 215 281 215 290 q 215 269 215 272 q 222 197 215 232 q 249 135 229 163 q 303 92 268 108 q 394 76 338 76 q 465 85 433 76 q 524 113 496 94 q 580 162 553 132 q 638 235 607 192 l 714 188 q 576 35 653 88 q 385 -17 499 -17 m 486 643 q 310 578 378 643 q 226 390 242 513 l 225 376 q 435 397 356 381 q 558 435 515 413 q 614 483 600 457 q 628 536 628 510 q 620 578 628 558 q 596 612 613 597 q 552 635 579 626 q 486 643 525 643 m 618 850 q 558 863 583 850 q 513 889 533 876 q 466 913 489 904 q 424 921 443 921 q 381 910 401 921 q 336 881 360 900 l 297 938 q 356 988 321 965 q 435 1010 390 1010 q 494 997 469 1010 q 540 971 519 983 q 587 947 564 956 q 629 939 610 939 q 672 949 651 939 q 717 979 693 960 l 756 922 q 697 872 732 894 q 618 850 663 850 z "},"ế":{"ha":833,"x_min":101,"x_max":919,"o":"m 385 -17 q 175 59 249 -17 q 101 290 101 135 q 131 469 101 388 q 212 609 160 550 q 337 701 264 668 q 496 733 410 733 q 593 721 549 733 q 670 684 638 708 q 721 624 703 660 q 739 540 739 588 q 722 463 739 503 q 649 388 704 422 q 491 329 594 353 q 217 301 388 306 q 215 281 215 290 q 215 269 215 272 q 222 197 215 232 q 249 135 229 163 q 303 92 268 108 q 394 76 338 76 q 465 85 433 76 q 524 113 496 94 q 580 162 553 132 q 638 235 607 192 l 714 188 q 576 35 653 88 q 385 -17 499 -17 m 486 643 q 310 578 378 643 q 226 390 242 513 l 225 376 q 435 397 356 381 q 558 435 515 413 q 614 483 600 457 q 628 536 628 510 q 620 578 628 558 q 596 612 613 597 q 552 635 579 626 q 486 643 525 643 m 740 983 l 679 1019 l 829 1250 l 919 1199 l 740 983 m 613 1049 l 733 844 l 669 807 l 536 969 l 346 807 l 292 853 l 476 1049 l 613 1049 z "},"ệ":{"ha":833,"x_min":101,"x_max":739,"o":"m 385 -17 q 175 59 249 -17 q 101 290 101 135 q 131 469 101 388 q 212 609 160 550 q 337 701 264 668 q 496 733 410 733 q 593 721 549 733 q 670 684 638 708 q 721 624 703 660 q 739 540 739 588 q 722 463 739 503 q 649 388 704 422 q 491 329 594 353 q 217 301 388 306 q 215 281 215 290 q 215 269 215 272 q 222 197 215 232 q 249 135 229 163 q 303 92 268 108 q 394 76 338 76 q 465 85 433 76 q 524 113 496 94 q 580 162 553 132 q 638 235 607 192 l 714 188 q 576 35 653 88 q 385 -17 499 -17 m 486 643 q 310 578 378 643 q 226 390 242 513 l 225 376 q 435 397 356 381 q 558 435 515 413 q 614 483 600 457 q 628 536 628 510 q 620 578 628 558 q 596 612 613 597 q 552 635 579 626 q 486 643 525 643 m 615 1063 l 736 858 l 672 821 l 539 983 l 349 821 l 294 867 l 479 1063 l 615 1063 m 356 -237 q 299 -222 315 -237 q 283 -187 283 -207 q 285 -169 283 -181 q 289 -151 286 -158 q 313 -108 296 -125 q 371 -92 329 -92 q 427 -107 411 -92 q 443 -142 443 -122 q 442 -160 443 -149 q 438 -178 440 -171 q 414 -221 431 -204 q 356 -237 397 -237 z "},"ề":{"ha":833,"x_min":101,"x_max":739,"o":"m 385 -17 q 175 59 249 -17 q 101 290 101 135 q 131 469 101 388 q 212 609 160 550 q 337 701 264 668 q 496 733 410 733 q 593 721 549 733 q 670 684 638 708 q 721 624 703 660 q 739 540 739 588 q 722 463 739 503 q 649 388 704 422 q 491 329 594 353 q 217 301 388 306 q 215 281 215 290 q 215 269 215 272 q 222 197 215 232 q 249 135 229 163 q 303 92 268 108 q 394 76 338 76 q 465 85 433 76 q 524 113 496 94 q 580 162 553 132 q 638 235 607 192 l 714 188 q 576 35 653 88 q 385 -17 499 -17 m 486 643 q 310 578 378 643 q 226 390 242 513 l 225 376 q 435 397 356 381 q 558 435 515 413 q 614 483 600 457 q 628 536 628 510 q 620 578 628 558 q 596 612 613 597 q 552 635 579 626 q 486 643 525 643 m 221 1221 l 319 1257 l 392 1015 l 325 990 l 221 1221 m 613 1049 l 733 844 l 669 807 l 536 969 l 346 807 l 292 853 l 476 1049 l 613 1049 z "},"ể":{"ha":833,"x_min":101,"x_max":871,"o":"m 385 -17 q 175 59 249 -17 q 101 290 101 135 q 131 469 101 388 q 212 609 160 550 q 337 701 264 668 q 496 733 410 733 q 593 721 549 733 q 670 684 638 708 q 721 624 703 660 q 739 540 739 588 q 722 463 739 503 q 649 388 704 422 q 491 329 594 353 q 217 301 388 306 q 215 281 215 290 q 215 269 215 272 q 222 197 215 232 q 249 135 229 163 q 303 92 268 108 q 394 76 338 76 q 465 85 433 76 q 524 113 496 94 q 580 162 553 132 q 638 235 607 192 l 714 188 q 576 35 653 88 q 385 -17 499 -17 m 486 643 q 310 578 378 643 q 226 390 242 513 l 225 376 q 435 397 356 381 q 558 435 515 413 q 614 483 600 457 q 628 536 628 510 q 620 578 628 558 q 596 612 613 597 q 552 635 579 626 q 486 643 525 643 m 638 1243 l 778 1243 q 849 1222 826 1243 q 871 1172 871 1201 q 857 1122 871 1147 q 819 1069 843 1097 l 742 982 l 683 1019 l 782 1158 l 622 1158 l 638 1243 m 613 1049 l 733 844 l 669 807 l 536 969 l 346 807 l 292 853 l 476 1049 l 613 1049 z "},"ễ":{"ha":833,"x_min":101,"x_max":796,"o":"m 385 -17 q 175 59 249 -17 q 101 290 101 135 q 131 469 101 388 q 212 609 160 550 q 337 701 264 668 q 496 733 410 733 q 593 721 549 733 q 670 684 638 708 q 721 624 703 660 q 739 540 739 588 q 722 463 739 503 q 649 388 704 422 q 491 329 594 353 q 217 301 388 306 q 215 281 215 290 q 215 269 215 272 q 222 197 215 232 q 249 135 229 163 q 303 92 268 108 q 394 76 338 76 q 465 85 433 76 q 524 113 496 94 q 580 162 553 132 q 638 235 607 192 l 714 188 q 576 35 653 88 q 385 -17 499 -17 m 486 643 q 310 578 378 643 q 226 390 242 513 l 225 376 q 435 397 356 381 q 558 435 515 413 q 614 483 600 457 q 628 536 628 510 q 620 578 628 558 q 596 612 613 597 q 552 635 579 626 q 486 643 525 643 m 475 1242 q 535 1228 510 1242 q 581 1203 560 1215 q 627 1179 604 1188 q 669 1171 650 1171 q 713 1181 692 1171 q 757 1211 733 1192 l 796 1154 q 738 1104 772 1126 q 658 1082 703 1082 q 599 1095 624 1082 q 553 1121 574 1108 q 506 1144 529 1136 q 464 1153 483 1153 q 421 1142 442 1153 q 376 1113 400 1132 l 338 1169 q 396 1219 361 1197 q 475 1242 431 1242 m 615 1035 l 738 842 l 672 807 l 536 961 l 349 807 l 294 856 l 478 1035 l 615 1035 z "},"ə":{"ha":833,"x_min":94,"x_max":732,"o":"m 338 -17 q 240 -4 285 -17 q 163 33 196 8 q 113 93 131 57 q 94 176 94 129 q 112 254 94 214 q 184 329 129 294 q 342 388 239 364 q 617 415 446 411 q 618 435 618 426 q 618 447 618 444 q 611 519 618 485 q 585 581 604 554 q 530 624 565 608 q 439 640 494 640 q 369 631 400 640 q 309 603 338 622 q 253 555 281 585 q 196 482 226 525 l 119 529 q 258 681 181 629 q 449 733 335 733 q 658 658 585 733 q 732 426 732 582 q 703 248 732 329 q 622 108 674 167 q 497 16 569 49 q 338 -17 424 -17 m 347 74 q 524 139 456 74 q 607 326 592 204 l 608 340 q 397 320 476 336 q 276 282 318 304 q 219 233 233 260 q 206 181 206 207 q 238 105 206 136 q 347 74 269 74 z "},"ğ":{"ha":833,"x_min":43,"x_max":760,"o":"m 294 -294 q 43 -196 122 -294 l 118 -124 q 190 -179 146 -160 q 301 -199 235 -199 q 458 -149 400 -199 q 536 21 517 -99 l 565 193 l 560 193 q 459 57 519 107 q 304 7 399 7 q 136 77 193 7 q 79 279 79 147 q 97 428 79 349 q 156 576 115 508 q 260 688 196 643 q 417 733 324 733 q 549 698 496 733 q 626 592 603 663 l 631 592 l 651 717 l 760 717 l 640 0 q 521 -226 613 -158 q 294 -294 429 -294 m 342 103 q 429 121 386 103 q 511 182 472 139 q 556 245 531 204 q 590 344 581 286 l 613 481 q 577 597 625 556 q 449 638 529 638 q 287 576 347 638 q 210 415 226 515 l 197 340 q 192 308 194 321 q 190 279 190 294 q 228 148 190 193 q 342 103 267 103 m 476 826 q 385 847 421 826 q 328 899 350 868 q 295 967 306 931 q 281 1036 285 1004 l 347 1065 l 368 1018 q 390 972 379 992 q 412 940 400 953 q 440 920 424 926 q 479 914 456 914 q 517 919 501 914 q 549 938 533 925 q 582 970 565 950 q 621 1018 599 990 l 658 1065 l 728 1036 q 692 967 713 1004 q 642 899 671 931 q 572 847 613 868 q 476 826 531 826 z "},"ĝ":{"ha":833,"x_min":43,"x_max":760,"o":"m 294 -294 q 43 -196 122 -294 l 118 -124 q 190 -179 146 -160 q 301 -199 235 -199 q 458 -149 400 -199 q 536 21 517 -99 l 565 193 l 560 193 q 459 57 519 107 q 304 7 399 7 q 136 77 193 7 q 79 279 79 147 q 97 428 79 349 q 156 576 115 508 q 260 688 196 643 q 417 733 324 733 q 549 698 496 733 q 626 592 603 663 l 631 592 l 651 717 l 760 717 l 640 0 q 521 -226 613 -158 q 294 -294 429 -294 m 342 103 q 429 121 386 103 q 511 182 472 139 q 556 245 531 204 q 590 344 581 286 l 613 481 q 577 597 625 556 q 449 638 529 638 q 287 576 347 638 q 210 415 226 515 l 197 340 q 192 308 194 321 q 190 279 190 294 q 228 148 190 193 q 342 103 267 103 m 579 1063 l 700 858 l 636 821 l 503 983 l 313 821 l 258 867 l 443 1063 l 579 1063 z "},"ģ":{"ha":833,"x_min":43,"x_max":760,"o":"m 294 -294 q 43 -196 122 -294 l 118 -124 q 190 -179 146 -160 q 301 -199 235 -199 q 458 -149 400 -199 q 536 21 517 -99 l 565 193 l 560 193 q 459 57 519 107 q 304 7 399 7 q 136 77 193 7 q 79 279 79 147 q 97 428 79 349 q 156 576 115 508 q 260 688 196 643 q 417 733 324 733 q 549 698 496 733 q 626 592 603 663 l 631 592 l 651 717 l 760 717 l 640 0 q 521 -226 613 -158 q 294 -294 429 -294 m 342 103 q 429 121 386 103 q 511 182 472 139 q 556 245 531 204 q 590 344 581 286 l 613 481 q 577 597 625 556 q 449 638 529 638 q 287 576 347 638 q 210 415 226 515 l 197 340 q 192 308 194 321 q 190 279 190 294 q 228 148 190 193 q 342 103 267 103 m 538 1075 l 622 1075 l 546 818 l 396 818 l 538 1075 z "},"ġ":{"ha":833,"x_min":43,"x_max":760,"o":"m 294 -294 q 43 -196 122 -294 l 118 -124 q 190 -179 146 -160 q 301 -199 235 -199 q 458 -149 400 -199 q 536 21 517 -99 l 565 193 l 560 193 q 459 57 519 107 q 304 7 399 7 q 136 77 193 7 q 79 279 79 147 q 97 428 79 349 q 156 576 115 508 q 260 688 196 643 q 417 733 324 733 q 549 698 496 733 q 626 592 603 663 l 631 592 l 651 717 l 760 717 l 640 0 q 521 -226 613 -158 q 294 -294 429 -294 m 342 103 q 429 121 386 103 q 511 182 472 139 q 556 245 531 204 q 590 344 581 286 l 613 481 q 577 597 625 556 q 449 638 529 638 q 287 576 347 638 q 210 415 226 515 l 197 340 q 192 308 194 321 q 190 279 190 294 q 228 148 190 193 q 342 103 267 103 m 479 850 q 417 867 435 850 q 399 906 399 883 q 401 926 399 913 q 404 946 403 939 q 429 992 408 971 q 496 1013 450 1013 q 558 996 540 1013 q 576 957 576 979 q 574 937 576 950 q 571 917 572 924 q 546 871 567 892 q 479 850 525 850 z "},"ħ":{"ha":833,"x_min":82,"x_max":721,"o":"m 224 846 l 133 846 l 147 929 l 238 929 l 254 1028 l 363 1028 l 346 929 l 556 929 l 542 846 l 332 846 l 282 547 l 288 547 q 383 683 328 633 q 526 733 439 733 q 669 679 617 733 q 721 526 721 625 q 719 481 721 506 q 713 433 717 457 l 640 0 l 532 0 l 603 424 q 608 469 607 449 q 610 500 610 489 q 581 601 610 564 q 490 638 551 638 q 406 617 443 638 q 339 560 369 596 q 322 538 333 553 q 297 502 310 524 q 274 453 285 481 q 257 396 263 426 l 190 0 l 82 0 l 224 846 z "},"ĥ":{"ha":833,"x_min":82,"x_max":721,"o":"m 254 1028 l 363 1028 l 282 547 l 288 547 q 383 683 328 633 q 526 733 439 733 q 669 679 617 733 q 721 526 721 625 q 719 481 721 506 q 713 433 717 457 l 640 0 l 532 0 l 603 424 q 608 469 607 449 q 610 500 610 489 q 581 601 610 564 q 490 638 551 638 q 406 617 443 638 q 339 560 369 596 q 322 538 333 553 q 297 502 310 524 q 274 453 285 481 q 257 396 263 426 l 190 0 l 82 0 l 254 1028 m 419 1315 l 540 1111 l 476 1074 l 343 1236 l 153 1074 l 99 1119 l 283 1315 l 419 1315 z "},"ı":{"ha":833,"x_min":114,"x_max":749,"o":"m 378 -17 q 298 10 325 -17 q 271 79 271 38 q 273 108 271 93 q 278 135 275 122 l 372 624 l 114 624 l 129 717 l 499 717 l 378 92 l 410 79 l 683 315 l 749 254 l 622 138 q 538 63 574 92 q 475 15 503 33 q 424 -10 447 -3 q 378 -17 401 -17 z "},"í":{"ha":833,"x_min":114,"x_max":749,"o":"m 378 -17 q 298 10 325 -17 q 271 79 271 38 q 273 108 271 93 q 278 135 275 122 l 372 624 l 114 624 l 129 717 l 499 717 l 378 92 l 410 79 l 683 315 l 749 254 l 622 138 q 538 63 574 92 q 475 15 503 33 q 424 -10 447 -3 q 378 -17 401 -17 m 467 813 l 401 851 l 551 1082 l 646 1028 l 467 813 z "},"ĭ":{"ha":833,"x_min":114,"x_max":749,"o":"m 378 -17 q 298 10 325 -17 q 271 79 271 38 q 273 108 271 93 q 278 135 275 122 l 372 624 l 114 624 l 129 717 l 499 717 l 378 92 l 410 79 l 683 315 l 749 254 l 622 138 q 538 63 574 92 q 475 15 503 33 q 424 -10 447 -3 q 378 -17 401 -17 m 460 826 q 369 847 404 826 q 311 899 333 868 q 278 967 289 931 q 264 1036 268 1004 l 331 1065 l 351 1018 q 373 972 363 992 q 395 940 383 953 q 423 920 407 926 q 463 914 439 914 q 501 919 485 914 q 533 938 517 925 q 565 970 549 950 q 604 1018 582 990 l 642 1065 l 711 1036 q 675 967 696 1004 q 625 899 654 931 q 555 847 596 868 q 460 826 514 826 z "},"ǐ":{"ha":833,"x_min":114,"x_max":749,"o":"m 378 -17 q 298 10 325 -17 q 271 79 271 38 q 273 108 271 93 q 278 135 275 122 l 372 624 l 114 624 l 129 717 l 499 717 l 378 92 l 410 79 l 683 315 l 749 254 l 622 138 q 538 63 574 92 q 475 15 503 33 q 424 -10 447 -3 q 378 -17 401 -17 m 389 832 l 268 1036 l 332 1074 l 465 911 l 656 1074 l 710 1028 l 525 832 l 389 832 z "},"î":{"ha":833,"x_min":114,"x_max":749,"o":"m 378 -17 q 298 10 325 -17 q 271 79 271 38 q 273 108 271 93 q 278 135 275 122 l 372 624 l 114 624 l 129 717 l 499 717 l 378 92 l 410 79 l 683 315 l 749 254 l 622 138 q 538 63 574 92 q 475 15 503 33 q 424 -10 447 -3 q 378 -17 401 -17 m 563 1063 l 683 858 l 619 821 l 486 983 l 296 821 l 242 867 l 426 1063 l 563 1063 z "},"ï":{"ha":833,"x_min":114,"x_max":749,"o":"m 378 -17 q 298 10 325 -17 q 271 79 271 38 q 273 108 271 93 q 278 135 275 122 l 372 624 l 114 624 l 129 717 l 499 717 l 378 92 l 410 79 l 683 315 l 749 254 l 622 138 q 538 63 574 92 q 475 15 503 33 q 424 -10 447 -3 q 378 -17 401 -17 m 336 860 q 280 875 296 860 q 264 910 264 890 q 265 926 264 917 q 269 944 267 935 q 293 988 276 972 q 351 1004 310 1004 q 408 989 392 1004 q 424 954 424 974 q 422 938 424 947 q 418 919 421 929 q 394 876 411 892 q 336 860 378 860 m 594 860 q 538 875 554 860 q 522 910 522 890 q 524 926 522 917 q 528 944 525 935 q 551 988 535 972 q 610 1004 568 1004 q 666 989 650 1004 q 682 954 682 974 q 681 938 682 947 q 676 919 679 929 q 653 876 669 892 q 594 860 636 860 z "},"ị":{"ha":833,"x_min":114,"x_max":749,"o":"m 472 876 q 410 893 428 876 q 392 932 392 910 q 393 950 392 940 q 397 972 394 960 q 425 1022 403 1004 q 489 1039 447 1039 q 551 1022 533 1039 q 569 983 569 1006 q 568 965 569 975 q 564 943 567 956 q 536 894 558 911 q 472 876 514 876 m 378 -17 q 298 10 325 -17 q 271 79 271 38 q 273 108 271 93 q 278 135 275 122 l 372 624 l 114 624 l 129 717 l 499 717 l 378 92 l 410 79 l 683 315 l 749 254 l 622 138 q 538 63 574 92 q 475 15 503 33 q 424 -10 447 -3 q 378 -17 401 -17 m 332 -237 q 276 -222 292 -237 q 260 -187 260 -207 q 261 -169 260 -181 q 265 -151 263 -158 q 289 -108 272 -125 q 347 -92 306 -92 q 403 -107 388 -92 q 419 -142 419 -122 q 418 -160 419 -149 q 414 -178 417 -171 q 390 -221 407 -204 q 332 -237 374 -237 z "},"ì":{"ha":833,"x_min":114,"x_max":749,"o":"m 378 -17 q 298 10 325 -17 q 271 79 271 38 q 273 108 271 93 q 278 135 275 122 l 372 624 l 114 624 l 129 717 l 499 717 l 378 92 l 410 79 l 683 315 l 749 254 l 622 138 q 538 63 574 92 q 475 15 503 33 q 424 -10 447 -3 q 378 -17 401 -17 m 340 1044 l 443 1082 l 515 840 l 444 813 l 340 1044 z "},"ỉ":{"ha":833,"x_min":114,"x_max":749,"o":"m 378 -17 q 298 10 325 -17 q 271 79 271 38 q 273 108 271 93 q 278 135 275 122 l 372 624 l 114 624 l 129 717 l 499 717 l 378 92 l 410 79 l 683 315 l 749 254 l 622 138 q 538 63 574 92 q 475 15 503 33 q 424 -10 447 -3 q 378 -17 401 -17 m 381 1063 l 522 1063 q 593 1042 571 1063 q 615 990 615 1022 q 597 927 615 958 q 543 860 578 896 l 488 801 l 428 839 l 526 978 l 367 978 l 381 1063 z "},"ī":{"ha":833,"x_min":114,"x_max":749,"o":"m 378 -17 q 298 10 325 -17 q 271 79 271 38 q 273 108 271 93 q 278 135 275 122 l 372 624 l 114 624 l 129 717 l 499 717 l 378 92 l 410 79 l 683 315 l 749 254 l 622 138 q 538 63 574 92 q 475 15 503 33 q 424 -10 447 -3 q 378 -17 401 -17 m 288 979 l 672 979 l 657 886 l 272 886 l 288 979 z "},"į":{"ha":833,"x_min":114,"x_max":749,"o":"m 367 -287 q 315 -282 340 -287 q 272 -264 290 -276 q 242 -231 253 -251 q 231 -183 231 -211 q 271 -92 231 -131 q 374 -21 311 -54 l 372 -14 l 351 -14 q 291 15 311 -14 q 271 79 271 44 q 273 108 271 93 q 278 135 275 122 l 372 624 l 114 624 l 129 717 l 499 717 l 378 92 l 410 79 l 683 315 l 749 254 l 492 29 q 406 -49 439 -17 q 356 -104 374 -82 q 331 -142 338 -126 q 325 -169 325 -157 q 339 -203 325 -193 q 372 -212 353 -212 q 450 -176 410 -212 l 503 -236 q 449 -272 483 -256 q 367 -287 415 -287 m 472 876 q 410 893 428 876 q 392 932 392 910 q 393 950 392 940 q 397 972 394 960 q 425 1022 403 1004 q 489 1039 447 1039 q 551 1022 533 1039 q 569 983 569 1006 q 568 965 569 975 q 564 943 567 956 q 536 894 558 911 q 472 876 514 876 z "},"ĩ":{"ha":833,"x_min":114,"x_max":749,"o":"m 378 -17 q 298 10 325 -17 q 271 79 271 38 q 273 108 271 93 q 278 135 275 122 l 372 624 l 114 624 l 129 717 l 499 717 l 378 92 l 410 79 l 683 315 l 749 254 l 622 138 q 538 63 574 92 q 475 15 503 33 q 424 -10 447 -3 q 378 -17 401 -17 m 565 850 q 506 863 531 850 q 460 889 481 876 q 413 913 436 904 q 371 921 390 921 q 328 910 349 921 q 283 881 307 900 l 244 938 q 303 988 268 965 q 382 1010 338 1010 q 442 997 417 1010 q 488 971 467 983 q 534 947 511 956 q 576 939 557 939 q 619 949 599 939 q 664 979 640 960 l 703 922 q 644 872 679 894 q 565 850 610 850 z "},"ĳ":{"ha":833,"x_min":88,"x_max":817,"o":"m 207 717 l 315 717 l 196 0 l 88 0 l 207 717 m 465 -294 q 424 -285 443 -294 q 384 -260 404 -276 q 341 -219 364 -243 q 289 -164 318 -194 l 240 -111 l 314 -44 l 458 -197 l 483 -192 l 635 717 l 743 717 l 599 -149 q 585 -204 594 -178 q 559 -251 575 -231 q 519 -283 543 -271 q 465 -294 496 -294 m 292 876 q 229 893 247 876 q 211 932 211 910 q 213 950 211 940 q 217 972 214 960 q 244 1022 222 1004 q 308 1039 267 1039 q 371 1022 353 1039 q 389 983 389 1006 q 388 965 389 975 q 383 943 386 956 q 356 894 378 911 q 292 876 333 876 m 719 876 q 657 893 675 876 q 639 932 639 910 q 640 950 639 940 q 644 972 642 960 q 672 1022 650 1004 q 736 1039 694 1039 q 799 1022 781 1039 q 817 983 817 1006 q 815 965 817 975 q 811 943 814 956 q 783 894 806 911 q 719 876 761 876 z "},"ȷ":{"ha":833,"x_min":81,"x_max":658,"o":"m 382 -294 q 342 -287 361 -294 q 299 -260 322 -279 q 246 -210 276 -242 q 171 -129 215 -178 l 81 -31 l 154 36 l 374 -197 l 399 -192 l 535 624 l 239 624 l 254 717 l 658 717 l 514 -149 q 500 -204 510 -178 q 474 -251 490 -231 q 435 -283 458 -271 q 382 -294 413 -294 z "},"ĵ":{"ha":833,"x_min":81,"x_max":849,"o":"m 382 -294 q 342 -287 361 -294 q 299 -260 322 -279 q 246 -210 276 -242 q 171 -129 215 -178 l 81 -31 l 154 36 l 374 -197 l 399 -192 l 535 624 l 239 624 l 254 717 l 658 717 l 514 -149 q 500 -204 510 -178 q 474 -251 490 -231 q 435 -283 458 -271 q 382 -294 413 -294 m 728 1063 l 849 858 l 785 821 l 651 983 l 461 821 l 407 867 l 592 1063 l 728 1063 z "},"ķ":{"ha":833,"x_min":82,"x_max":792,"o":"m 254 1028 l 363 1028 l 282 547 l 288 547 q 385 682 326 631 q 533 733 443 733 q 670 685 619 733 q 721 557 721 638 q 710 488 721 525 q 667 416 699 451 q 578 349 635 381 q 431 296 522 318 l 529 81 l 547 78 l 732 247 l 792 185 l 693 86 q 603 8 639 32 q 526 -17 567 -17 q 466 3 490 -17 q 419 71 442 22 l 307 315 q 452 362 394 336 q 545 415 510 388 q 595 474 581 443 q 610 536 610 504 q 580 613 610 585 q 493 640 550 640 q 403 617 440 640 q 336 558 365 594 q 285 481 306 521 q 257 396 264 440 l 190 0 l 82 0 l 254 1028 m 260 -89 l 410 -89 l 268 -346 l 183 -346 l 260 -89 z "},"ĸ":{"ha":833,"x_min":99,"x_max":821,"o":"m 411 360 l 244 218 l 207 0 l 99 0 l 217 717 l 325 717 l 265 353 l 272 353 l 424 488 l 681 717 l 821 717 l 497 426 l 746 0 l 621 0 l 411 360 z "},"ĺ":{"ha":833,"x_min":149,"x_max":731,"o":"m 346 -17 q 265 11 289 -17 q 242 82 242 39 q 242 104 242 92 q 246 126 243 117 l 401 935 l 149 935 l 164 1028 l 529 1028 l 349 90 l 383 79 l 668 321 l 731 260 l 586 129 q 500 55 536 83 q 437 10 464 26 q 388 -11 410 -6 q 346 -17 367 -17 m 489 1065 l 424 1104 l 574 1335 l 668 1281 l 489 1065 z "},"ľ":{"ha":833,"x_min":149,"x_max":796,"o":"m 346 -17 q 265 11 289 -17 q 242 82 242 39 q 242 104 242 92 q 246 126 243 117 l 401 935 l 149 935 l 164 1028 l 529 1028 l 349 90 l 383 79 l 668 321 l 731 260 l 586 129 q 500 55 536 83 q 437 10 464 26 q 388 -11 410 -6 q 346 -17 367 -17 m 685 768 l 604 768 l 654 1028 l 796 1028 l 685 768 z "},"ļ":{"ha":833,"x_min":149,"x_max":731,"o":"m 346 -17 q 265 11 289 -17 q 242 82 242 39 q 242 104 242 92 q 246 126 243 117 l 401 935 l 149 935 l 164 1028 l 529 1028 l 349 90 l 383 79 l 668 321 l 731 260 l 586 129 q 500 55 536 83 q 437 10 464 26 q 388 -11 410 -6 q 346 -17 367 -17 m 256 -89 l 406 -89 l 264 -346 l 179 -346 l 256 -89 z "},"ŀ":{"ha":833,"x_min":149,"x_max":747,"o":"m 346 -17 q 265 11 289 -17 q 242 82 242 39 q 242 104 242 92 q 246 126 243 117 l 401 935 l 149 935 l 164 1028 l 529 1028 l 349 90 l 383 79 l 668 321 l 731 260 l 586 129 q 500 55 536 83 q 437 10 464 26 q 388 -11 410 -6 q 346 -17 367 -17 m 650 450 q 588 467 606 450 q 569 506 569 483 q 572 526 569 513 q 575 546 574 539 q 600 592 579 571 q 667 613 621 613 q 729 596 711 613 q 747 557 747 579 q 745 537 747 550 q 742 517 743 524 q 717 471 738 492 q 650 450 696 450 z "},"ł":{"ha":833,"x_min":82,"x_max":731,"o":"m 346 -17 q 265 11 289 -17 q 242 82 242 39 q 242 104 242 92 q 246 126 243 117 l 299 399 l 82 333 l 99 429 l 317 496 l 401 935 l 149 935 l 164 1028 l 529 1028 l 433 531 l 649 596 l 633 500 l 415 433 l 349 90 l 383 79 l 668 321 l 731 260 l 586 129 q 500 55 536 83 q 437 10 464 26 q 388 -11 410 -6 q 346 -17 367 -17 z "},"ń":{"ha":833,"x_min":82,"x_max":721,"o":"m 82 0 l 201 717 l 310 717 l 282 547 l 288 547 q 383 683 328 633 q 526 733 439 733 q 669 679 617 733 q 721 526 721 625 q 719 481 721 506 q 713 433 717 457 l 640 0 l 532 0 l 603 424 q 608 469 607 449 q 610 500 610 489 q 581 601 610 564 q 490 638 551 638 q 406 617 443 638 q 339 560 369 596 q 322 538 333 553 q 297 502 310 524 q 274 453 285 481 q 257 396 263 426 l 190 0 l 82 0 m 496 813 l 431 851 l 581 1082 l 675 1028 l 496 813 z "},"ň":{"ha":833,"x_min":82,"x_max":739,"o":"m 82 0 l 201 717 l 310 717 l 282 547 l 288 547 q 383 683 328 633 q 526 733 439 733 q 669 679 617 733 q 721 526 721 625 q 719 481 721 506 q 713 433 717 457 l 640 0 l 532 0 l 603 424 q 608 469 607 449 q 610 500 610 489 q 581 601 610 564 q 490 638 551 638 q 406 617 443 638 q 339 560 369 596 q 322 538 333 553 q 297 502 310 524 q 274 453 285 481 q 257 396 263 426 l 190 0 l 82 0 m 418 832 l 297 1036 l 361 1074 l 494 911 l 685 1074 l 739 1028 l 554 832 l 418 832 z "},"ņ":{"ha":833,"x_min":82,"x_max":721,"o":"m 82 0 l 201 717 l 310 717 l 282 547 l 288 547 q 383 683 328 633 q 526 733 439 733 q 669 679 617 733 q 721 526 721 625 q 719 481 721 506 q 713 433 717 457 l 640 0 l 532 0 l 603 424 q 608 469 607 449 q 610 500 610 489 q 581 601 610 564 q 490 638 551 638 q 406 617 443 638 q 339 560 369 596 q 322 538 333 553 q 297 502 310 524 q 274 453 285 481 q 257 396 263 426 l 190 0 l 82 0 m 263 -89 l 413 -89 l 271 -346 l 186 -346 l 263 -89 z "},"ñ":{"ha":833,"x_min":82,"x_max":732,"o":"m 82 0 l 201 717 l 310 717 l 282 547 l 288 547 q 383 683 328 633 q 526 733 439 733 q 669 679 617 733 q 721 526 721 625 q 719 481 721 506 q 713 433 717 457 l 640 0 l 532 0 l 603 424 q 608 469 607 449 q 610 500 610 489 q 581 601 610 564 q 490 638 551 638 q 406 617 443 638 q 339 560 369 596 q 322 538 333 553 q 297 502 310 524 q 274 453 285 481 q 257 396 263 426 l 190 0 l 82 0 m 594 850 q 535 863 560 850 q 489 889 510 876 q 442 913 465 904 q 400 921 419 921 q 357 910 378 921 q 313 881 336 900 l 274 938 q 332 988 297 965 q 411 1010 367 1010 q 471 997 446 1010 q 517 971 496 983 q 563 947 540 956 q 606 939 586 939 q 649 949 628 939 q 693 979 669 960 l 732 922 q 674 872 708 894 q 594 850 639 850 z "},"ŉ":{"ha":833,"x_min":72,"x_max":721,"o":"m 200 717 l 308 717 l 281 547 l 286 547 q 382 683 326 633 q 525 733 438 733 q 668 679 615 733 q 721 526 721 625 q 719 486 721 507 q 713 438 717 465 l 640 0 l 532 0 l 603 428 q 608 470 607 451 q 610 500 610 489 q 580 601 610 564 q 489 638 550 638 q 405 617 442 638 q 338 560 368 596 q 320 538 332 553 q 296 502 308 524 q 272 453 283 481 q 256 396 261 426 l 190 0 l 82 0 l 200 717 m 132 1028 l 258 1028 l 144 772 l 72 772 l 132 1028 z "},"ŋ":{"ha":833,"x_min":82,"x_max":721,"o":"m 482 -294 q 440 -285 460 -294 q 401 -260 421 -276 q 358 -219 381 -243 q 306 -164 335 -194 l 257 -111 l 331 -44 l 475 -197 l 500 -192 l 603 424 q 608 469 607 449 q 610 500 610 489 q 581 601 610 564 q 490 638 551 638 q 406 617 443 638 q 339 560 369 596 q 322 538 333 553 q 297 502 310 524 q 274 453 285 481 q 257 396 263 426 l 190 0 l 82 0 l 201 717 l 310 717 l 282 547 l 288 547 q 383 683 328 633 q 526 733 439 733 q 669 679 617 733 q 721 526 721 625 q 719 481 721 506 q 713 433 717 457 l 615 -149 q 601 -204 611 -178 q 576 -251 592 -231 q 536 -283 560 -271 q 482 -294 513 -294 z "},"ó":{"ha":833,"x_min":89,"x_max":744,"o":"m 368 -17 q 247 6 299 -17 q 160 67 194 28 q 107 163 125 107 q 89 286 89 219 q 118 472 89 389 q 198 613 147 554 q 317 702 249 671 q 464 733 385 733 q 586 711 533 733 q 674 649 639 689 q 727 553 710 610 q 744 431 744 497 q 715 245 744 328 q 635 104 686 163 q 516 15 585 46 q 368 -17 447 -17 m 374 78 q 535 140 475 78 q 614 308 596 201 l 628 392 q 633 433 632 417 q 635 463 635 450 q 588 597 635 554 q 460 639 540 639 q 298 577 358 639 q 219 408 238 515 l 206 325 q 200 283 201 300 q 199 254 199 267 q 246 120 199 163 q 374 78 293 78 m 504 813 l 439 851 l 589 1082 l 683 1028 l 504 813 z "},"ŏ":{"ha":833,"x_min":89,"x_max":749,"o":"m 368 -17 q 247 6 299 -17 q 160 67 194 28 q 107 163 125 107 q 89 286 89 219 q 118 472 89 389 q 198 613 147 554 q 317 702 249 671 q 464 733 385 733 q 586 711 533 733 q 674 649 639 689 q 727 553 710 610 q 744 431 744 497 q 715 245 744 328 q 635 104 686 163 q 516 15 585 46 q 368 -17 447 -17 m 374 78 q 535 140 475 78 q 614 308 596 201 l 628 392 q 633 433 632 417 q 635 463 635 450 q 588 597 635 554 q 460 639 540 639 q 298 577 358 639 q 219 408 238 515 l 206 325 q 200 283 201 300 q 199 254 199 267 q 246 120 199 163 q 374 78 293 78 m 497 826 q 406 847 442 826 q 349 899 371 868 q 316 967 326 931 q 301 1036 306 1004 l 368 1065 l 389 1018 q 410 972 400 992 q 433 940 421 953 q 460 920 444 926 q 500 914 476 914 q 538 919 522 914 q 570 938 554 925 q 603 970 586 950 q 642 1018 619 990 l 679 1065 l 749 1036 q 713 967 733 1004 q 663 899 692 931 q 592 847 633 868 q 497 826 551 826 z "},"ǒ":{"ha":833,"x_min":89,"x_max":747,"o":"m 368 -17 q 247 6 299 -17 q 160 67 194 28 q 107 163 125 107 q 89 286 89 219 q 118 472 89 389 q 198 613 147 554 q 317 702 249 671 q 464 733 385 733 q 586 711 533 733 q 674 649 639 689 q 727 553 710 610 q 744 431 744 497 q 715 245 744 328 q 635 104 686 163 q 516 15 585 46 q 368 -17 447 -17 m 374 78 q 535 140 475 78 q 614 308 596 201 l 628 392 q 633 433 632 417 q 635 463 635 450 q 588 597 635 554 q 460 639 540 639 q 298 577 358 639 q 219 408 238 515 l 206 325 q 200 283 201 300 q 199 254 199 267 q 246 120 199 163 q 374 78 293 78 m 426 832 l 306 1036 l 369 1074 l 503 911 l 693 1074 l 747 1028 l 563 832 l 426 832 z "},"ô":{"ha":833,"x_min":89,"x_max":744,"o":"m 368 -17 q 247 6 299 -17 q 160 67 194 28 q 107 163 125 107 q 89 286 89 219 q 118 472 89 389 q 198 613 147 554 q 317 702 249 671 q 464 733 385 733 q 586 711 533 733 q 674 649 639 689 q 727 553 710 610 q 744 431 744 497 q 715 245 744 328 q 635 104 686 163 q 516 15 585 46 q 368 -17 447 -17 m 374 78 q 535 140 475 78 q 614 308 596 201 l 628 392 q 633 433 632 417 q 635 463 635 450 q 588 597 635 554 q 460 639 540 639 q 298 577 358 639 q 219 408 238 515 l 206 325 q 200 283 201 300 q 199 254 199 267 q 246 120 199 163 q 374 78 293 78 m 600 1063 l 721 858 l 657 821 l 524 983 l 333 821 l 279 867 l 464 1063 l 600 1063 z "},"ö":{"ha":833,"x_min":89,"x_max":744,"o":"m 368 -17 q 247 6 299 -17 q 160 67 194 28 q 107 163 125 107 q 89 286 89 219 q 118 472 89 389 q 198 613 147 554 q 317 702 249 671 q 464 733 385 733 q 586 711 533 733 q 674 649 639 689 q 727 553 710 610 q 744 431 744 497 q 715 245 744 328 q 635 104 686 163 q 516 15 585 46 q 368 -17 447 -17 m 374 78 q 535 140 475 78 q 614 308 596 201 l 628 392 q 633 433 632 417 q 635 463 635 450 q 588 597 635 554 q 460 639 540 639 q 298 577 358 639 q 219 408 238 515 l 206 325 q 200 283 201 300 q 199 254 199 267 q 246 120 199 163 q 374 78 293 78 m 374 860 q 317 875 333 860 q 301 910 301 890 q 303 926 301 917 q 307 944 304 935 q 331 988 314 972 q 389 1004 347 1004 q 445 989 429 1004 q 461 954 461 974 q 460 938 461 947 q 456 919 458 929 q 432 876 449 892 q 374 860 415 860 m 632 860 q 576 875 592 860 q 560 910 560 890 q 561 926 560 917 q 565 944 563 935 q 589 988 572 972 q 647 1004 606 1004 q 703 989 688 1004 q 719 954 719 974 q 718 938 719 947 q 714 919 717 929 q 690 876 707 892 q 632 860 674 860 z "},"ọ":{"ha":833,"x_min":89,"x_max":744,"o":"m 368 -17 q 247 6 299 -17 q 160 67 194 28 q 107 163 125 107 q 89 286 89 219 q 118 472 89 389 q 198 613 147 554 q 317 702 249 671 q 464 733 385 733 q 586 711 533 733 q 674 649 639 689 q 727 553 710 610 q 744 431 744 497 q 715 245 744 328 q 635 104 686 163 q 516 15 585 46 q 368 -17 447 -17 m 374 78 q 535 140 475 78 q 614 308 596 201 l 628 392 q 633 433 632 417 q 635 463 635 450 q 588 597 635 554 q 460 639 540 639 q 298 577 358 639 q 219 408 238 515 l 206 325 q 200 283 201 300 q 199 254 199 267 q 246 120 199 163 q 374 78 293 78 m 322 -237 q 266 -222 282 -237 q 250 -187 250 -207 q 251 -169 250 -181 q 256 -151 253 -158 q 279 -108 263 -125 q 338 -92 296 -92 q 394 -107 378 -92 q 410 -142 410 -122 q 408 -160 410 -149 q 404 -178 407 -171 q 381 -221 397 -204 q 322 -237 364 -237 z "},"ò":{"ha":833,"x_min":89,"x_max":744,"o":"m 368 -17 q 247 6 299 -17 q 160 67 194 28 q 107 163 125 107 q 89 286 89 219 q 118 472 89 389 q 198 613 147 554 q 317 702 249 671 q 464 733 385 733 q 586 711 533 733 q 674 649 639 689 q 727 553 710 610 q 744 431 744 497 q 715 245 744 328 q 635 104 686 163 q 516 15 585 46 q 368 -17 447 -17 m 374 78 q 535 140 475 78 q 614 308 596 201 l 628 392 q 633 433 632 417 q 635 463 635 450 q 588 597 635 554 q 460 639 540 639 q 298 577 358 639 q 219 408 238 515 l 206 325 q 200 283 201 300 q 199 254 199 267 q 246 120 199 163 q 374 78 293 78 m 378 1044 l 481 1082 l 553 840 l 482 813 l 378 1044 z "},"ỏ":{"ha":833,"x_min":89,"x_max":744,"o":"m 368 -17 q 247 6 299 -17 q 160 67 194 28 q 107 163 125 107 q 89 286 89 219 q 118 472 89 389 q 198 613 147 554 q 317 702 249 671 q 464 733 385 733 q 586 711 533 733 q 674 649 639 689 q 727 553 710 610 q 744 431 744 497 q 715 245 744 328 q 635 104 686 163 q 516 15 585 46 q 368 -17 447 -17 m 374 78 q 535 140 475 78 q 614 308 596 201 l 628 392 q 633 433 632 417 q 635 463 635 450 q 588 597 635 554 q 460 639 540 639 q 298 577 358 639 q 219 408 238 515 l 206 325 q 200 283 201 300 q 199 254 199 267 q 246 120 199 163 q 374 78 293 78 m 418 1063 l 560 1063 q 631 1042 608 1063 q 653 990 653 1022 q 634 927 653 958 q 581 860 615 896 l 525 801 l 465 839 l 564 978 l 404 978 l 418 1063 z "},"ő":{"ha":833,"x_min":89,"x_max":794,"o":"m 368 -17 q 247 6 299 -17 q 160 67 194 28 q 107 163 125 107 q 89 286 89 219 q 118 472 89 389 q 198 613 147 554 q 317 702 249 671 q 464 733 385 733 q 586 711 533 733 q 674 649 639 689 q 727 553 710 610 q 744 431 744 497 q 715 245 744 328 q 635 104 686 163 q 516 15 585 46 q 368 -17 447 -17 m 374 78 q 535 140 475 78 q 614 308 596 201 l 628 392 q 633 433 632 417 q 635 463 635 450 q 588 597 635 554 q 460 639 540 639 q 298 577 358 639 q 219 408 238 515 l 206 325 q 200 283 201 300 q 199 254 199 267 q 246 120 199 163 q 374 78 293 78 m 393 814 l 332 850 l 481 1081 l 571 1029 l 393 814 m 617 814 l 556 850 l 704 1081 l 794 1029 l 617 814 z "},"ō":{"ha":833,"x_min":89,"x_max":744,"o":"m 368 -17 q 247 6 299 -17 q 160 67 194 28 q 107 163 125 107 q 89 286 89 219 q 118 472 89 389 q 198 613 147 554 q 317 702 249 671 q 464 733 385 733 q 586 711 533 733 q 674 649 639 689 q 727 553 710 610 q 744 431 744 497 q 715 245 744 328 q 635 104 686 163 q 516 15 585 46 q 368 -17 447 -17 m 374 78 q 535 140 475 78 q 614 308 596 201 l 628 392 q 633 433 632 417 q 635 463 635 450 q 588 597 635 554 q 460 639 540 639 q 298 577 358 639 q 219 408 238 515 l 206 325 q 200 283 201 300 q 199 254 199 267 q 246 120 199 163 q 374 78 293 78 m 325 979 l 710 979 l 694 886 l 310 886 l 325 979 z "},"ø":{"ha":833,"x_min":11,"x_max":822,"o":"m 11 0 l 126 118 q 99 195 108 153 q 89 286 89 238 q 118 472 89 389 q 198 613 147 554 q 317 702 249 671 q 465 733 386 733 q 578 715 529 733 q 663 661 626 696 l 763 764 l 822 717 l 707 599 q 735 522 725 564 q 744 431 744 479 q 715 245 744 328 q 635 104 686 163 q 516 15 585 46 q 368 -17 447 -17 q 256 2 304 -17 q 171 56 207 21 l 71 -47 l 11 0 m 460 639 q 298 577 358 639 q 219 408 238 515 l 206 325 q 200 283 201 300 q 199 254 199 267 q 200 223 199 238 q 206 194 201 208 l 592 592 q 460 639 546 639 m 374 78 q 535 140 475 78 q 614 308 596 201 l 628 392 q 633 433 632 417 q 635 463 635 450 q 633 494 635 479 q 628 522 632 508 l 242 125 q 374 78 288 78 z "},"ǿ":{"ha":833,"x_min":11,"x_max":822,"o":"m 11 0 l 126 118 q 99 195 108 153 q 89 286 89 238 q 118 472 89 389 q 198 613 147 554 q 317 702 249 671 q 465 733 386 733 q 578 715 529 733 q 663 661 626 696 l 763 764 l 822 717 l 707 599 q 735 522 725 564 q 744 431 744 479 q 715 245 744 328 q 635 104 686 163 q 516 15 585 46 q 368 -17 447 -17 q 256 2 304 -17 q 171 56 207 21 l 71 -47 l 11 0 m 460 639 q 298 577 358 639 q 219 408 238 515 l 206 325 q 200 283 201 300 q 199 254 199 267 q 200 223 199 238 q 206 194 201 208 l 592 592 q 460 639 546 639 m 374 78 q 535 140 475 78 q 614 308 596 201 l 628 392 q 633 433 632 417 q 635 463 635 450 q 633 494 635 479 q 628 522 632 508 l 242 125 q 374 78 288 78 m 504 813 l 439 851 l 589 1082 l 683 1028 l 504 813 z "},"õ":{"ha":833,"x_min":89,"x_max":744,"o":"m 368 -17 q 247 6 299 -17 q 160 67 194 28 q 107 163 125 107 q 89 286 89 219 q 118 472 89 389 q 198 613 147 554 q 317 702 249 671 q 464 733 385 733 q 586 711 533 733 q 674 649 639 689 q 727 553 710 610 q 744 431 744 497 q 715 245 744 328 q 635 104 686 163 q 516 15 585 46 q 368 -17 447 -17 m 374 78 q 535 140 475 78 q 614 308 596 201 l 628 392 q 633 433 632 417 q 635 463 635 450 q 588 597 635 554 q 460 639 540 639 q 298 577 358 639 q 219 408 238 515 l 206 325 q 200 283 201 300 q 199 254 199 267 q 246 120 199 163 q 374 78 293 78 m 603 850 q 543 863 568 850 q 497 889 518 876 q 451 913 474 904 q 408 921 428 921 q 365 910 386 921 q 321 881 344 900 l 282 938 q 340 988 306 965 q 419 1010 375 1010 q 479 997 454 1010 q 525 971 504 983 q 572 947 549 956 q 614 939 594 939 q 657 949 636 939 q 701 979 678 960 l 740 922 q 682 872 717 894 q 603 850 647 850 z "},"ơ":{"ha":833,"x_min":89,"x_max":831,"o":"m 831 871 l 807 731 q 778 672 800 694 q 706 650 757 650 l 669 650 q 726 555 708 610 q 744 431 744 500 q 715 245 744 328 q 635 104 686 163 q 516 15 585 46 q 368 -17 447 -17 q 247 6 299 -17 q 160 67 194 28 q 107 163 125 107 q 89 286 89 219 q 118 472 89 389 q 198 613 147 554 q 317 702 249 671 q 464 733 385 733 q 571 717 525 733 l 710 717 l 735 871 l 831 871 m 374 78 q 535 140 475 78 q 614 308 596 201 l 628 392 q 633 433 632 417 q 635 463 635 450 q 588 597 635 554 q 460 639 540 639 q 298 577 358 639 q 219 408 238 515 l 206 325 q 200 283 201 300 q 199 254 199 267 q 246 120 199 163 q 374 78 293 78 z "},"ớ":{"ha":833,"x_min":89,"x_max":831,"o":"m 831 871 l 807 731 q 778 672 800 694 q 706 650 757 650 l 669 650 q 726 555 708 610 q 744 431 744 500 q 715 245 744 328 q 635 104 686 163 q 516 15 585 46 q 368 -17 447 -17 q 247 6 299 -17 q 160 67 194 28 q 107 163 125 107 q 89 286 89 219 q 118 472 89 389 q 198 613 147 554 q 317 702 249 671 q 464 733 385 733 q 571 717 525 733 l 710 717 l 735 871 l 831 871 m 374 78 q 535 140 475 78 q 614 308 596 201 l 628 392 q 633 433 632 417 q 635 463 635 450 q 588 597 635 554 q 460 639 540 639 q 298 577 358 639 q 219 408 238 515 l 206 325 q 200 283 201 300 q 199 254 199 267 q 246 120 199 163 q 374 78 293 78 m 504 813 l 439 851 l 589 1082 l 683 1028 l 504 813 z "},"ợ":{"ha":833,"x_min":89,"x_max":831,"o":"m 831 871 l 807 731 q 778 672 800 694 q 706 650 757 650 l 669 650 q 726 555 708 610 q 744 431 744 500 q 715 245 744 328 q 635 104 686 163 q 516 15 585 46 q 368 -17 447 -17 q 247 6 299 -17 q 160 67 194 28 q 107 163 125 107 q 89 286 89 219 q 118 472 89 389 q 198 613 147 554 q 317 702 249 671 q 464 733 385 733 q 571 717 525 733 l 710 717 l 735 871 l 831 871 m 374 78 q 535 140 475 78 q 614 308 596 201 l 628 392 q 633 433 632 417 q 635 463 635 450 q 588 597 635 554 q 460 639 540 639 q 298 577 358 639 q 219 408 238 515 l 206 325 q 200 283 201 300 q 199 254 199 267 q 246 120 199 163 q 374 78 293 78 m 322 -237 q 266 -222 282 -237 q 250 -187 250 -207 q 251 -169 250 -181 q 256 -151 253 -158 q 279 -108 263 -125 q 338 -92 296 -92 q 394 -107 378 -92 q 410 -142 410 -122 q 408 -160 410 -149 q 404 -178 407 -171 q 381 -221 397 -204 q 322 -237 364 -237 z "},"ờ":{"ha":833,"x_min":89,"x_max":831,"o":"m 831 871 l 807 731 q 778 672 800 694 q 706 650 757 650 l 669 650 q 726 555 708 610 q 744 431 744 500 q 715 245 744 328 q 635 104 686 163 q 516 15 585 46 q 368 -17 447 -17 q 247 6 299 -17 q 160 67 194 28 q 107 163 125 107 q 89 286 89 219 q 118 472 89 389 q 198 613 147 554 q 317 702 249 671 q 464 733 385 733 q 571 717 525 733 l 710 717 l 735 871 l 831 871 m 374 78 q 535 140 475 78 q 614 308 596 201 l 628 392 q 633 433 632 417 q 635 463 635 450 q 588 597 635 554 q 460 639 540 639 q 298 577 358 639 q 219 408 238 515 l 206 325 q 200 283 201 300 q 199 254 199 267 q 246 120 199 163 q 374 78 293 78 m 378 1044 l 481 1082 l 553 840 l 482 813 l 378 1044 z "},"ở":{"ha":833,"x_min":89,"x_max":831,"o":"m 831 871 l 807 731 q 778 672 800 694 q 706 650 757 650 l 669 650 q 726 555 708 610 q 744 431 744 500 q 715 245 744 328 q 635 104 686 163 q 516 15 585 46 q 368 -17 447 -17 q 247 6 299 -17 q 160 67 194 28 q 107 163 125 107 q 89 286 89 219 q 118 472 89 389 q 198 613 147 554 q 317 702 249 671 q 464 733 385 733 q 571 717 525 733 l 710 717 l 735 871 l 831 871 m 374 78 q 535 140 475 78 q 614 308 596 201 l 628 392 q 633 433 632 417 q 635 463 635 450 q 588 597 635 554 q 460 639 540 639 q 298 577 358 639 q 219 408 238 515 l 206 325 q 200 283 201 300 q 199 254 199 267 q 246 120 199 163 q 374 78 293 78 m 418 1063 l 560 1063 q 631 1042 608 1063 q 653 990 653 1022 q 634 927 653 958 q 581 860 615 896 l 525 801 l 465 839 l 564 978 l 404 978 l 418 1063 z "},"ỡ":{"ha":833,"x_min":89,"x_max":831,"o":"m 831 871 l 807 731 q 778 672 800 694 q 706 650 757 650 l 669 650 q 726 555 708 610 q 744 431 744 500 q 715 245 744 328 q 635 104 686 163 q 516 15 585 46 q 368 -17 447 -17 q 247 6 299 -17 q 160 67 194 28 q 107 163 125 107 q 89 286 89 219 q 118 472 89 389 q 198 613 147 554 q 317 702 249 671 q 464 733 385 733 q 571 717 525 733 l 710 717 l 735 871 l 831 871 m 374 78 q 535 140 475 78 q 614 308 596 201 l 628 392 q 633 433 632 417 q 635 463 635 450 q 588 597 635 554 q 460 639 540 639 q 298 577 358 639 q 219 408 238 515 l 206 325 q 200 283 201 300 q 199 254 199 267 q 246 120 199 163 q 374 78 293 78 m 589 856 q 542 866 560 856 q 500 889 524 876 q 459 909 476 901 q 424 917 442 917 q 381 907 401 917 q 339 879 361 897 l 296 935 q 353 984 319 963 q 431 1006 386 1006 q 478 995 460 1006 q 519 972 496 985 q 560 952 543 960 q 596 944 578 944 q 638 954 618 944 q 681 982 658 964 l 724 926 q 667 877 700 899 q 589 856 633 856 z "},"ố":{"ha":833,"x_min":89,"x_max":904,"o":"m 368 -17 q 247 6 299 -17 q 160 67 194 28 q 107 163 125 107 q 89 286 89 219 q 118 472 89 389 q 198 613 147 554 q 317 702 249 671 q 464 733 385 733 q 586 711 533 733 q 674 649 639 689 q 727 553 710 610 q 744 431 744 497 q 715 245 744 328 q 635 104 686 163 q 516 15 585 46 q 368 -17 447 -17 m 374 78 q 535 140 475 78 q 614 308 596 201 l 628 392 q 633 433 632 417 q 635 463 635 450 q 588 597 635 554 q 460 639 540 639 q 298 577 358 639 q 219 408 238 515 l 206 325 q 200 283 201 300 q 199 254 199 267 q 246 120 199 163 q 374 78 293 78 m 725 983 l 664 1019 l 814 1250 l 904 1199 l 725 983 m 597 1049 l 718 844 l 654 807 l 521 969 l 331 807 l 276 853 l 461 1049 l 597 1049 z "},"ộ":{"ha":833,"x_min":89,"x_max":744,"o":"m 368 -17 q 247 6 299 -17 q 160 67 194 28 q 107 163 125 107 q 89 286 89 219 q 118 472 89 389 q 198 613 147 554 q 317 702 249 671 q 464 733 385 733 q 586 711 533 733 q 674 649 639 689 q 727 553 710 610 q 744 431 744 497 q 715 245 744 328 q 635 104 686 163 q 516 15 585 46 q 368 -17 447 -17 m 374 78 q 535 140 475 78 q 614 308 596 201 l 628 392 q 633 433 632 417 q 635 463 635 450 q 588 597 635 554 q 460 639 540 639 q 298 577 358 639 q 219 408 238 515 l 206 325 q 200 283 201 300 q 199 254 199 267 q 246 120 199 163 q 374 78 293 78 m 600 1063 l 721 858 l 657 821 l 524 983 l 333 821 l 279 867 l 464 1063 l 600 1063 m 322 -237 q 266 -222 282 -237 q 250 -187 250 -207 q 251 -169 250 -181 q 256 -151 253 -158 q 279 -108 263 -125 q 338 -92 296 -92 q 394 -107 378 -92 q 410 -142 410 -122 q 408 -160 410 -149 q 404 -178 407 -171 q 381 -221 397 -204 q 322 -237 364 -237 z "},"ồ":{"ha":833,"x_min":89,"x_max":744,"o":"m 368 -17 q 247 6 299 -17 q 160 67 194 28 q 107 163 125 107 q 89 286 89 219 q 118 472 89 389 q 198 613 147 554 q 317 702 249 671 q 464 733 385 733 q 586 711 533 733 q 674 649 639 689 q 727 553 710 610 q 744 431 744 497 q 715 245 744 328 q 635 104 686 163 q 516 15 585 46 q 368 -17 447 -17 m 374 78 q 535 140 475 78 q 614 308 596 201 l 628 392 q 633 433 632 417 q 635 463 635 450 q 588 597 635 554 q 460 639 540 639 q 298 577 358 639 q 219 408 238 515 l 206 325 q 200 283 201 300 q 199 254 199 267 q 246 120 199 163 q 374 78 293 78 m 206 1221 l 304 1257 l 376 1015 l 310 990 l 206 1221 m 597 1049 l 718 844 l 654 807 l 521 969 l 331 807 l 276 853 l 461 1049 l 597 1049 z "},"ổ":{"ha":833,"x_min":89,"x_max":856,"o":"m 368 -17 q 247 6 299 -17 q 160 67 194 28 q 107 163 125 107 q 89 286 89 219 q 118 472 89 389 q 198 613 147 554 q 317 702 249 671 q 464 733 385 733 q 586 711 533 733 q 674 649 639 689 q 727 553 710 610 q 744 431 744 497 q 715 245 744 328 q 635 104 686 163 q 516 15 585 46 q 368 -17 447 -17 m 374 78 q 535 140 475 78 q 614 308 596 201 l 628 392 q 633 433 632 417 q 635 463 635 450 q 588 597 635 554 q 460 639 540 639 q 298 577 358 639 q 219 408 238 515 l 206 325 q 200 283 201 300 q 199 254 199 267 q 246 120 199 163 q 374 78 293 78 m 622 1243 l 763 1243 q 833 1222 811 1243 q 856 1172 856 1201 q 842 1122 856 1147 q 804 1069 828 1097 l 726 982 l 668 1019 l 767 1158 l 607 1158 l 622 1243 m 597 1049 l 718 844 l 654 807 l 521 969 l 331 807 l 276 853 l 461 1049 l 597 1049 z "},"ỗ":{"ha":833,"x_min":89,"x_max":781,"o":"m 368 -17 q 247 6 299 -17 q 160 67 194 28 q 107 163 125 107 q 89 286 89 219 q 118 472 89 389 q 198 613 147 554 q 317 702 249 671 q 464 733 385 733 q 586 711 533 733 q 674 649 639 689 q 727 553 710 610 q 744 431 744 497 q 715 245 744 328 q 635 104 686 163 q 516 15 585 46 q 368 -17 447 -17 m 374 78 q 535 140 475 78 q 614 308 596 201 l 628 392 q 633 433 632 417 q 635 463 635 450 q 588 597 635 554 q 460 639 540 639 q 298 577 358 639 q 219 408 238 515 l 206 325 q 200 283 201 300 q 199 254 199 267 q 246 120 199 163 q 374 78 293 78 m 460 1242 q 519 1228 494 1242 q 565 1203 544 1215 q 612 1179 589 1188 q 654 1171 635 1171 q 697 1181 676 1171 q 742 1211 718 1192 l 781 1154 q 722 1104 757 1126 q 643 1082 688 1082 q 583 1095 608 1082 q 538 1121 558 1108 q 491 1144 514 1136 q 449 1153 468 1153 q 406 1142 426 1153 q 361 1113 385 1132 l 322 1169 q 381 1219 346 1197 q 460 1242 415 1242 m 600 1035 l 722 842 l 657 807 l 521 961 l 333 807 l 279 856 l 463 1035 l 600 1035 z "},"œ":{"ha":833,"x_min":28,"x_max":842,"o":"m 565 -17 q 453 22 499 -17 q 400 136 407 60 l 393 136 q 324 26 374 69 q 201 -17 275 -17 q 119 3 153 -17 q 66 60 86 24 q 37 147 46 97 q 28 254 28 196 q 46 426 28 340 q 99 581 64 513 q 188 691 135 649 q 311 733 242 733 q 376 721 349 733 q 423 688 404 708 q 452 643 442 668 q 465 593 463 618 l 471 593 q 558 697 507 660 q 675 733 608 733 q 794 690 747 733 q 842 567 842 647 q 824 481 842 522 q 765 407 807 440 q 651 352 722 374 q 474 328 581 331 l 468 294 q 464 255 465 275 q 463 221 463 235 q 490 108 463 146 q 571 69 518 69 q 658 106 625 69 q 718 196 690 143 l 793 158 q 756 92 778 124 q 706 37 733 61 q 642 -2 678 13 q 565 -17 607 -17 m 218 65 q 310 117 271 65 q 369 286 350 168 l 393 429 q 399 477 397 454 q 400 514 400 500 q 374 620 400 589 q 304 651 347 651 q 212 600 251 651 q 153 431 172 549 l 129 288 q 124 240 125 263 q 122 203 122 217 q 149 97 122 128 q 218 65 175 65 m 668 651 q 601 633 631 651 q 548 583 571 614 q 510 511 525 551 q 489 426 496 471 l 485 401 q 612 418 561 404 q 693 453 663 432 q 737 503 724 475 q 750 564 750 532 q 729 628 750 606 q 668 651 708 651 z "},"ŕ":{"ha":833,"x_min":150,"x_max":818,"o":"m 247 0 l 351 624 l 150 624 l 165 717 l 475 717 l 443 525 l 450 525 q 492 603 468 568 q 547 664 515 639 q 618 703 578 689 q 710 717 658 717 l 818 717 l 800 608 l 678 608 q 574 591 615 608 q 500 536 532 574 q 481 513 493 528 q 457 478 469 499 q 434 431 444 457 q 418 374 424 404 l 356 0 l 247 0 m 540 813 l 475 851 l 625 1082 l 719 1028 l 540 813 z "},"ř":{"ha":833,"x_min":150,"x_max":818,"o":"m 247 0 l 351 624 l 150 624 l 165 717 l 475 717 l 443 525 l 450 525 q 492 603 468 568 q 547 664 515 639 q 618 703 578 689 q 710 717 658 717 l 818 717 l 800 608 l 678 608 q 574 591 615 608 q 500 536 532 574 q 481 513 493 528 q 457 478 469 499 q 434 431 444 457 q 418 374 424 404 l 356 0 l 247 0 m 463 832 l 342 1036 l 406 1074 l 539 911 l 729 1074 l 783 1028 l 599 832 l 463 832 z "},"ŗ":{"ha":833,"x_min":138,"x_max":818,"o":"m 247 0 l 351 624 l 150 624 l 165 717 l 475 717 l 443 525 l 450 525 q 492 603 468 568 q 547 664 515 639 q 618 703 578 689 q 710 717 658 717 l 818 717 l 800 608 l 678 608 q 574 591 615 608 q 500 536 532 574 q 481 513 493 528 q 457 478 469 499 q 434 431 444 457 q 418 374 424 404 l 356 0 l 247 0 m 214 -89 l 364 -89 l 222 -346 l 138 -346 l 214 -89 z "},"ś":{"ha":833,"x_min":67,"x_max":740,"o":"m 372 -17 q 191 18 268 -17 q 67 118 114 53 l 147 182 q 244 102 189 129 q 382 75 300 75 q 532 111 478 75 q 586 213 586 147 q 556 281 586 263 q 482 307 526 300 l 378 322 q 301 338 339 328 q 233 369 263 349 q 184 423 203 390 q 165 506 165 456 q 190 605 165 563 q 256 676 214 647 q 353 719 297 704 q 472 733 408 733 q 633 704 567 733 q 740 624 700 675 l 664 557 q 638 586 654 571 q 598 614 622 601 q 540 634 574 626 q 460 642 506 642 q 319 607 367 642 q 271 514 271 572 q 280 471 271 488 q 304 444 289 454 q 340 428 319 433 q 382 419 360 424 l 483 403 q 555 388 518 397 q 622 360 592 379 q 673 309 653 342 q 693 224 693 276 q 670 124 693 168 q 605 48 647 79 q 503 0 563 17 q 372 -17 444 -17 m 494 813 l 429 851 l 579 1082 l 674 1028 l 494 813 z "},"š":{"ha":833,"x_min":67,"x_max":740,"o":"m 372 -17 q 191 18 268 -17 q 67 118 114 53 l 147 182 q 244 102 189 129 q 382 75 300 75 q 532 111 478 75 q 586 213 586 147 q 556 281 586 263 q 482 307 526 300 l 378 322 q 301 338 339 328 q 233 369 263 349 q 184 423 203 390 q 165 506 165 456 q 190 605 165 563 q 256 676 214 647 q 353 719 297 704 q 472 733 408 733 q 633 704 567 733 q 740 624 700 675 l 664 557 q 638 586 654 571 q 598 614 622 601 q 540 634 574 626 q 460 642 506 642 q 319 607 367 642 q 271 514 271 572 q 280 471 271 488 q 304 444 289 454 q 340 428 319 433 q 382 419 360 424 l 483 403 q 555 388 518 397 q 622 360 592 379 q 673 309 653 342 q 693 224 693 276 q 670 124 693 168 q 605 48 647 79 q 503 0 563 17 q 372 -17 444 -17 m 417 832 l 296 1036 l 360 1074 l 493 911 l 683 1074 l 738 1028 l 553 832 l 417 832 z "},"ş":{"ha":833,"x_min":67,"x_max":740,"o":"m 357 -287 q 270 -270 303 -287 q 224 -231 238 -253 l 279 -175 q 308 -201 290 -190 q 357 -212 326 -212 q 407 -201 388 -212 q 426 -165 426 -189 q 411 -134 426 -150 q 343 -111 396 -118 l 303 -106 l 335 -15 q 67 118 154 -3 l 147 182 q 244 102 189 129 q 382 75 300 75 q 532 111 478 75 q 586 213 586 147 q 556 281 586 263 q 482 307 526 300 l 378 322 q 301 338 339 328 q 233 369 263 349 q 184 423 203 390 q 165 506 165 456 q 190 605 165 563 q 256 676 214 647 q 353 719 297 704 q 472 733 408 733 q 633 704 567 733 q 740 624 700 675 l 664 557 q 638 586 654 571 q 598 614 622 601 q 540 634 574 626 q 460 642 506 642 q 319 607 367 642 q 271 514 271 572 q 280 471 271 488 q 304 444 289 454 q 340 428 319 433 q 382 419 360 424 l 483 403 q 555 388 518 397 q 622 360 592 379 q 673 309 653 342 q 693 224 693 276 q 615 55 693 118 q 406 -15 536 -8 l 381 -85 l 383 -89 q 413 -85 399 -86 q 435 -83 426 -83 q 495 -104 474 -83 q 517 -165 517 -125 q 503 -221 517 -197 q 469 -259 490 -244 q 418 -281 447 -274 q 357 -287 389 -287 z "},"ŝ":{"ha":833,"x_min":67,"x_max":740,"o":"m 372 -17 q 191 18 268 -17 q 67 118 114 53 l 147 182 q 244 102 189 129 q 382 75 300 75 q 532 111 478 75 q 586 213 586 147 q 556 281 586 263 q 482 307 526 300 l 378 322 q 301 338 339 328 q 233 369 263 349 q 184 423 203 390 q 165 506 165 456 q 190 605 165 563 q 256 676 214 647 q 353 719 297 704 q 472 733 408 733 q 633 704 567 733 q 740 624 700 675 l 664 557 q 638 586 654 571 q 598 614 622 601 q 540 634 574 626 q 460 642 506 642 q 319 607 367 642 q 271 514 271 572 q 280 471 271 488 q 304 444 289 454 q 340 428 319 433 q 382 419 360 424 l 483 403 q 555 388 518 397 q 622 360 592 379 q 673 309 653 342 q 693 224 693 276 q 670 124 693 168 q 605 48 647 79 q 503 0 563 17 q 372 -17 444 -17 m 590 1063 l 711 858 l 647 821 l 514 983 l 324 821 l 269 867 l 454 1063 l 590 1063 z "},"ș":{"ha":833,"x_min":67,"x_max":740,"o":"m 372 -17 q 191 18 268 -17 q 67 118 114 53 l 147 182 q 244 102 189 129 q 382 75 300 75 q 532 111 478 75 q 586 213 586 147 q 556 281 586 263 q 482 307 526 300 l 378 322 q 301 338 339 328 q 233 369 263 349 q 184 423 203 390 q 165 506 165 456 q 190 605 165 563 q 256 676 214 647 q 353 719 297 704 q 472 733 408 733 q 633 704 567 733 q 740 624 700 675 l 664 557 q 638 586 654 571 q 598 614 622 601 q 540 634 574 626 q 460 642 506 642 q 319 607 367 642 q 271 514 271 572 q 280 471 271 488 q 304 444 289 454 q 340 428 319 433 q 382 419 360 424 l 483 403 q 555 388 518 397 q 622 360 592 379 q 673 309 653 342 q 693 224 693 276 q 670 124 693 168 q 605 48 647 79 q 503 0 563 17 q 372 -17 444 -17 m 289 -89 l 439 -89 l 297 -346 l 213 -346 l 289 -89 z "},"ſ":{"ha":833,"x_min":-22,"x_max":890,"o":"m 272 -294 q 231 -285 250 -294 q 188 -257 211 -276 q 134 -206 164 -237 q 63 -129 104 -175 l -22 -36 l 51 31 l 265 -197 l 290 -192 l 426 624 l 171 624 l 186 717 l 442 717 l 467 865 q 524 982 478 936 q 650 1028 569 1028 l 890 1028 l 875 935 l 586 935 l 406 -149 q 392 -204 401 -178 q 366 -251 382 -231 q 326 -283 350 -271 q 272 -294 303 -294 z "},"ß":{"ha":833,"x_min":89,"x_max":789,"o":"m 89 0 l 232 865 q 258 945 240 914 q 299 995 275 976 q 353 1021 324 1014 q 414 1028 382 1028 l 604 1028 l 589 935 l 350 935 l 314 717 l 789 717 l 771 608 l 485 290 q 674 225 607 281 q 740 64 740 169 q 713 -76 740 -14 q 635 -184 686 -139 q 507 -253 583 -229 q 333 -278 431 -278 l 236 -278 l 253 -185 l 343 -185 q 448 -174 400 -185 q 533 -140 496 -162 q 592 -81 569 -117 q 621 3 614 -46 q 626 52 625 36 q 628 79 628 68 q 570 183 628 154 q 385 213 513 213 l 363 213 l 378 306 l 664 624 l 299 624 l 196 0 l 89 0 z "},"ŧ":{"ha":833,"x_min":110,"x_max":736,"o":"m 332 -17 q 256 10 283 -17 q 229 86 229 36 q 230 113 229 96 q 233 140 231 129 l 274 372 l 138 372 l 151 457 l 288 457 l 317 624 l 110 624 l 125 717 l 271 717 q 324 731 307 717 q 349 782 342 746 l 381 969 l 483 969 l 440 717 l 736 717 l 721 624 l 425 624 l 397 457 l 607 457 l 593 372 l 382 372 l 336 93 l 364 76 l 676 285 l 731 215 l 574 104 q 490 47 525 69 q 426 10 454 24 q 375 -10 397 -4 q 332 -17 353 -17 z "},"ť":{"ha":833,"x_min":110,"x_max":779,"o":"m 332 -17 q 256 10 283 -17 q 229 86 229 36 q 230 113 229 96 q 233 140 231 129 l 317 624 l 110 624 l 125 717 l 271 717 q 324 731 307 717 q 349 782 342 746 l 381 969 l 483 969 l 440 717 l 736 717 l 721 624 l 425 624 l 336 93 l 364 76 l 676 285 l 731 215 l 574 104 q 490 47 525 69 q 426 10 454 24 q 375 -10 397 -4 q 332 -17 353 -17 m 668 796 l 588 796 l 638 1056 l 779 1056 l 668 796 z "},"ț":{"ha":833,"x_min":110,"x_max":736,"o":"m 332 -17 q 256 10 283 -17 q 229 86 229 36 q 230 113 229 96 q 233 140 231 129 l 317 624 l 110 624 l 125 717 l 271 717 q 324 731 307 717 q 349 782 342 746 l 381 969 l 483 969 l 440 717 l 736 717 l 721 624 l 425 624 l 336 93 l 364 76 l 676 285 l 731 215 l 574 104 q 490 47 525 69 q 426 10 454 24 q 375 -10 397 -4 q 332 -17 353 -17 m 235 -89 l 385 -89 l 243 -346 l 158 -346 l 235 -89 z "},"ţ":{"ha":833,"x_min":110,"x_max":736,"o":"m 303 -287 q 216 -270 249 -287 q 169 -231 183 -253 l 225 -175 q 254 -201 236 -190 q 303 -212 272 -212 q 353 -201 333 -212 q 372 -165 372 -189 q 357 -134 372 -150 q 289 -111 342 -118 l 249 -106 l 283 -8 q 229 86 229 14 q 230 113 229 96 q 233 140 231 129 l 317 624 l 110 624 l 125 717 l 271 717 q 324 731 307 717 q 349 782 342 746 l 381 969 l 483 969 l 440 717 l 736 717 l 721 624 l 425 624 l 336 93 l 364 76 l 676 285 l 731 215 l 574 104 q 497 52 531 74 q 438 16 464 31 q 392 -6 413 1 q 351 -15 371 -14 l 326 -85 l 329 -89 q 358 -85 344 -86 q 381 -83 372 -83 q 441 -104 419 -83 q 463 -165 463 -125 q 449 -221 463 -197 q 415 -259 436 -244 q 364 -281 393 -274 q 303 -287 335 -287 z "},"þ":{"ha":833,"x_min":26,"x_max":756,"o":"m 246 1028 l 354 1028 l 274 547 l 278 547 q 378 683 319 632 q 532 733 438 733 q 698 664 640 733 q 756 456 756 594 q 738 301 756 383 q 681 147 721 218 q 576 30 642 76 q 417 -17 511 -17 q 284 19 338 -17 q 207 125 231 54 l 203 125 l 135 -278 l 26 -278 l 246 1028 m 385 79 q 548 142 489 79 q 624 304 607 204 l 640 404 q 644 438 643 424 q 646 467 646 453 q 608 592 646 547 q 494 638 569 638 q 407 619 450 638 q 326 558 364 600 q 277 486 299 528 q 247 394 256 444 l 221 236 q 256 120 208 161 q 385 79 304 79 z "},"ú":{"ha":833,"x_min":115,"x_max":754,"o":"m 554 169 l 549 169 q 453 33 508 83 q 310 -17 397 -17 q 167 38 219 -17 q 115 190 115 92 q 124 283 115 235 l 196 717 l 304 717 l 233 293 q 228 248 229 268 q 226 217 226 228 q 256 116 226 153 q 346 79 285 79 q 430 100 393 79 q 497 157 467 121 q 515 178 503 164 q 539 215 526 193 q 563 263 551 236 q 579 321 574 290 l 646 717 l 754 717 l 635 0 l 526 0 l 554 169 m 500 813 l 435 851 l 585 1082 l 679 1028 l 500 813 z "},"ŭ":{"ha":833,"x_min":115,"x_max":754,"o":"m 554 169 l 549 169 q 453 33 508 83 q 310 -17 397 -17 q 167 38 219 -17 q 115 190 115 92 q 124 283 115 235 l 196 717 l 304 717 l 233 293 q 228 248 229 268 q 226 217 226 228 q 256 116 226 153 q 346 79 285 79 q 430 100 393 79 q 497 157 467 121 q 515 178 503 164 q 539 215 526 193 q 563 263 551 236 q 579 321 574 290 l 646 717 l 754 717 l 635 0 l 526 0 l 554 169 m 493 826 q 402 847 438 826 q 344 899 367 868 q 312 967 322 931 q 297 1036 301 1004 l 364 1065 l 385 1018 q 406 972 396 992 q 428 940 417 953 q 456 920 440 926 q 496 914 472 914 q 534 919 518 914 q 566 938 550 925 q 599 970 582 950 q 638 1018 615 990 l 675 1065 l 744 1036 q 708 967 729 1004 q 658 899 688 931 q 588 847 629 868 q 493 826 547 826 z "},"ǔ":{"ha":833,"x_min":115,"x_max":754,"o":"m 554 169 l 549 169 q 453 33 508 83 q 310 -17 397 -17 q 167 38 219 -17 q 115 190 115 92 q 124 283 115 235 l 196 717 l 304 717 l 233 293 q 228 248 229 268 q 226 217 226 228 q 256 116 226 153 q 346 79 285 79 q 430 100 393 79 q 497 157 467 121 q 515 178 503 164 q 539 215 526 193 q 563 263 551 236 q 579 321 574 290 l 646 717 l 754 717 l 635 0 l 526 0 l 554 169 m 422 832 l 301 1036 l 365 1074 l 499 911 l 689 1074 l 743 1028 l 558 832 l 422 832 z "},"û":{"ha":833,"x_min":115,"x_max":754,"o":"m 554 169 l 549 169 q 453 33 508 83 q 310 -17 397 -17 q 167 38 219 -17 q 115 190 115 92 q 124 283 115 235 l 196 717 l 304 717 l 233 293 q 228 248 229 268 q 226 217 226 228 q 256 116 226 153 q 346 79 285 79 q 430 100 393 79 q 497 157 467 121 q 515 178 503 164 q 539 215 526 193 q 563 263 551 236 q 579 321 574 290 l 646 717 l 754 717 l 635 0 l 526 0 l 554 169 m 596 1063 l 717 858 l 653 821 l 519 983 l 329 821 l 275 867 l 460 1063 l 596 1063 z "},"ü":{"ha":833,"x_min":115,"x_max":754,"o":"m 554 169 l 549 169 q 453 33 508 83 q 310 -17 397 -17 q 167 38 219 -17 q 115 190 115 92 q 124 283 115 235 l 196 717 l 304 717 l 233 293 q 228 248 229 268 q 226 217 226 228 q 256 116 226 153 q 346 79 285 79 q 430 100 393 79 q 497 157 467 121 q 515 178 503 164 q 539 215 526 193 q 563 263 551 236 q 579 321 574 290 l 646 717 l 754 717 l 635 0 l 526 0 l 554 169 m 369 860 q 313 875 329 860 q 297 910 297 890 q 299 926 297 917 q 303 944 300 935 q 326 988 310 972 q 385 1004 343 1004 q 441 989 425 1004 q 457 954 457 974 q 456 938 457 947 q 451 919 454 929 q 428 876 444 892 q 369 860 411 860 m 628 860 q 572 875 588 860 q 556 910 556 890 q 557 926 556 917 q 561 944 558 935 q 585 988 568 972 q 643 1004 601 1004 q 699 989 683 1004 q 715 954 715 974 q 714 938 715 947 q 710 919 713 929 q 686 876 703 892 q 628 860 669 860 z "},"ụ":{"ha":833,"x_min":115,"x_max":754,"o":"m 554 169 l 549 169 q 453 33 508 83 q 310 -17 397 -17 q 167 38 219 -17 q 115 190 115 92 q 124 283 115 235 l 196 717 l 304 717 l 233 293 q 228 248 229 268 q 226 217 226 228 q 256 116 226 153 q 346 79 285 79 q 430 100 393 79 q 497 157 467 121 q 515 178 503 164 q 539 215 526 193 q 563 263 551 236 q 579 321 574 290 l 646 717 l 754 717 l 635 0 l 526 0 l 554 169 m 328 -237 q 272 -222 288 -237 q 256 -187 256 -207 q 257 -169 256 -181 q 261 -151 258 -158 q 285 -108 268 -125 q 343 -92 301 -92 q 399 -107 383 -92 q 415 -142 415 -122 q 414 -160 415 -149 q 410 -178 413 -171 q 386 -221 403 -204 q 328 -237 369 -237 z "},"ù":{"ha":833,"x_min":115,"x_max":754,"o":"m 554 169 l 549 169 q 453 33 508 83 q 310 -17 397 -17 q 167 38 219 -17 q 115 190 115 92 q 124 283 115 235 l 196 717 l 304 717 l 233 293 q 228 248 229 268 q 226 217 226 228 q 256 116 226 153 q 346 79 285 79 q 430 100 393 79 q 497 157 467 121 q 515 178 503 164 q 539 215 526 193 q 563 263 551 236 q 579 321 574 290 l 646 717 l 754 717 l 635 0 l 526 0 l 554 169 m 374 1044 l 476 1082 l 549 840 l 478 813 l 374 1044 z "},"ủ":{"ha":833,"x_min":115,"x_max":754,"o":"m 554 169 l 549 169 q 453 33 508 83 q 310 -17 397 -17 q 167 38 219 -17 q 115 190 115 92 q 124 283 115 235 l 196 717 l 304 717 l 233 293 q 228 248 229 268 q 226 217 226 228 q 256 116 226 153 q 346 79 285 79 q 430 100 393 79 q 497 157 467 121 q 515 178 503 164 q 539 215 526 193 q 563 263 551 236 q 579 321 574 290 l 646 717 l 754 717 l 635 0 l 526 0 l 554 169 m 414 1063 l 556 1063 q 626 1042 604 1063 q 649 990 649 1022 q 630 927 649 958 q 576 860 611 896 l 521 801 l 461 839 l 560 978 l 400 978 l 414 1063 z "},"ű":{"ha":833,"x_min":115,"x_max":790,"o":"m 554 169 l 549 169 q 453 33 508 83 q 310 -17 397 -17 q 167 38 219 -17 q 115 190 115 92 q 124 283 115 235 l 196 717 l 304 717 l 233 293 q 228 248 229 268 q 226 217 226 228 q 256 116 226 153 q 346 79 285 79 q 430 100 393 79 q 497 157 467 121 q 515 178 503 164 q 539 215 526 193 q 563 263 551 236 q 579 321 574 290 l 646 717 l 754 717 l 635 0 l 526 0 l 554 169 m 389 814 l 328 850 l 476 1081 l 567 1029 l 389 814 m 613 814 l 551 850 l 700 1081 l 790 1029 l 613 814 z "},"ū":{"ha":833,"x_min":115,"x_max":754,"o":"m 554 169 l 549 169 q 453 33 508 83 q 310 -17 397 -17 q 167 38 219 -17 q 115 190 115 92 q 124 283 115 235 l 196 717 l 304 717 l 233 293 q 228 248 229 268 q 226 217 226 228 q 256 116 226 153 q 346 79 285 79 q 430 100 393 79 q 497 157 467 121 q 515 178 503 164 q 539 215 526 193 q 563 263 551 236 q 579 321 574 290 l 646 717 l 754 717 l 635 0 l 526 0 l 554 169 m 321 979 l 706 979 l 690 886 l 306 886 l 321 979 z "},"ų":{"ha":833,"x_min":115,"x_max":754,"o":"m 635 0 q 546 -63 579 -36 q 495 -110 513 -90 q 473 -144 478 -131 q 468 -169 468 -158 q 482 -203 468 -193 q 515 -212 496 -212 q 593 -176 553 -212 l 646 -236 q 592 -272 626 -256 q 510 -287 558 -287 q 458 -282 483 -287 q 415 -264 433 -276 q 385 -231 396 -251 q 374 -183 374 -211 q 421 -84 374 -125 q 547 -7 468 -43 l 549 0 l 526 0 l 554 169 l 549 169 q 453 33 508 83 q 311 -17 399 -17 q 168 38 221 -17 q 115 190 115 92 q 124 283 115 235 l 196 717 l 304 717 l 233 293 q 228 248 229 268 q 226 217 226 228 q 256 116 226 153 q 346 79 285 79 q 430 100 393 79 q 497 157 467 121 q 515 178 503 164 q 539 215 526 193 q 563 263 551 236 q 579 321 574 290 l 646 717 l 754 717 l 635 0 z "},"ů":{"ha":833,"x_min":115,"x_max":754,"o":"m 554 169 l 549 169 q 453 33 508 83 q 310 -17 397 -17 q 167 38 219 -17 q 115 190 115 92 q 124 283 115 235 l 196 717 l 304 717 l 233 293 q 228 248 229 268 q 226 217 226 228 q 256 116 226 153 q 346 79 285 79 q 430 100 393 79 q 497 157 467 121 q 515 178 503 164 q 539 215 526 193 q 563 263 551 236 q 579 321 574 290 l 646 717 l 754 717 l 635 0 l 526 0 l 554 169 m 490 803 q 389 841 428 803 q 350 940 350 879 q 365 1010 350 978 q 404 1065 379 1042 q 461 1103 429 1089 q 529 1117 493 1117 q 631 1078 592 1117 q 669 979 669 1040 q 655 910 669 942 q 615 854 640 878 q 558 817 590 831 q 490 803 525 803 m 496 868 q 556 888 532 868 q 588 946 581 908 q 592 971 590 958 q 593 990 593 983 q 576 1035 593 1018 q 524 1051 558 1051 q 463 1031 488 1051 q 432 974 439 1011 q 428 949 429 961 q 426 929 426 936 q 444 885 426 901 q 496 868 461 868 z "},"ũ":{"ha":833,"x_min":115,"x_max":754,"o":"m 554 169 l 549 169 q 453 33 508 83 q 310 -17 397 -17 q 167 38 219 -17 q 115 190 115 92 q 124 283 115 235 l 196 717 l 304 717 l 233 293 q 228 248 229 268 q 226 217 226 228 q 256 116 226 153 q 346 79 285 79 q 430 100 393 79 q 497 157 467 121 q 515 178 503 164 q 539 215 526 193 q 563 263 551 236 q 579 321 574 290 l 646 717 l 754 717 l 635 0 l 526 0 l 554 169 m 599 850 q 539 863 564 850 q 493 889 514 876 q 447 913 469 904 q 404 921 424 921 q 361 910 382 921 q 317 881 340 900 l 278 938 q 336 988 301 965 q 415 1010 371 1010 q 475 997 450 1010 q 521 971 500 983 q 567 947 544 956 q 610 939 590 939 q 653 949 632 939 q 697 979 674 960 l 736 922 q 678 872 713 894 q 599 850 643 850 z "},"ư":{"ha":833,"x_min":115,"x_max":899,"o":"m 875 731 q 847 669 868 694 q 775 644 826 644 l 742 644 l 635 0 l 526 0 l 554 169 l 549 169 q 453 33 508 83 q 310 -17 397 -17 q 167 38 219 -17 q 115 190 115 92 q 124 283 115 235 l 196 717 l 304 717 l 233 293 q 228 248 229 268 q 226 217 226 228 q 256 116 226 153 q 346 79 285 79 q 430 100 393 79 q 497 157 467 121 q 515 178 503 164 q 539 215 526 193 q 563 263 551 236 q 579 321 574 290 l 646 717 l 778 717 l 803 871 l 899 871 l 875 731 z "},"ứ":{"ha":833,"x_min":115,"x_max":899,"o":"m 875 731 q 847 669 868 694 q 775 644 826 644 l 742 644 l 635 0 l 526 0 l 554 169 l 549 169 q 453 33 508 83 q 310 -17 397 -17 q 167 38 219 -17 q 115 190 115 92 q 124 283 115 235 l 196 717 l 304 717 l 233 293 q 228 248 229 268 q 226 217 226 228 q 256 116 226 153 q 346 79 285 79 q 430 100 393 79 q 497 157 467 121 q 515 178 503 164 q 539 215 526 193 q 563 263 551 236 q 579 321 574 290 l 646 717 l 778 717 l 803 871 l 899 871 l 875 731 m 500 813 l 435 851 l 585 1082 l 679 1028 l 500 813 z "},"ự":{"ha":833,"x_min":115,"x_max":899,"o":"m 875 731 q 847 669 868 694 q 775 644 826 644 l 742 644 l 635 0 l 526 0 l 554 169 l 549 169 q 453 33 508 83 q 310 -17 397 -17 q 167 38 219 -17 q 115 190 115 92 q 124 283 115 235 l 196 717 l 304 717 l 233 293 q 228 248 229 268 q 226 217 226 228 q 256 116 226 153 q 346 79 285 79 q 430 100 393 79 q 497 157 467 121 q 515 178 503 164 q 539 215 526 193 q 563 263 551 236 q 579 321 574 290 l 646 717 l 778 717 l 803 871 l 899 871 l 875 731 m 328 -237 q 272 -222 288 -237 q 256 -187 256 -207 q 257 -169 256 -181 q 261 -151 258 -158 q 285 -108 268 -125 q 343 -92 301 -92 q 399 -107 383 -92 q 415 -142 415 -122 q 414 -160 415 -149 q 410 -178 413 -171 q 386 -221 403 -204 q 328 -237 369 -237 z "},"ừ":{"ha":833,"x_min":115,"x_max":899,"o":"m 875 731 q 847 669 868 694 q 775 644 826 644 l 742 644 l 635 0 l 526 0 l 554 169 l 549 169 q 453 33 508 83 q 310 -17 397 -17 q 167 38 219 -17 q 115 190 115 92 q 124 283 115 235 l 196 717 l 304 717 l 233 293 q 228 248 229 268 q 226 217 226 228 q 256 116 226 153 q 346 79 285 79 q 430 100 393 79 q 497 157 467 121 q 515 178 503 164 q 539 215 526 193 q 563 263 551 236 q 579 321 574 290 l 646 717 l 778 717 l 803 871 l 899 871 l 875 731 m 374 1044 l 476 1082 l 549 840 l 478 813 l 374 1044 z "},"ử":{"ha":833,"x_min":115,"x_max":899,"o":"m 875 731 q 847 669 868 694 q 775 644 826 644 l 742 644 l 635 0 l 526 0 l 554 169 l 549 169 q 453 33 508 83 q 310 -17 397 -17 q 167 38 219 -17 q 115 190 115 92 q 124 283 115 235 l 196 717 l 304 717 l 233 293 q 228 248 229 268 q 226 217 226 228 q 256 116 226 153 q 346 79 285 79 q 430 100 393 79 q 497 157 467 121 q 515 178 503 164 q 539 215 526 193 q 563 263 551 236 q 579 321 574 290 l 646 717 l 778 717 l 803 871 l 899 871 l 875 731 m 414 1063 l 556 1063 q 626 1042 604 1063 q 649 990 649 1022 q 630 927 649 958 q 576 860 611 896 l 521 801 l 461 839 l 560 978 l 400 978 l 414 1063 z "},"ữ":{"ha":833,"x_min":115,"x_max":899,"o":"m 875 731 q 847 669 868 694 q 775 644 826 644 l 742 644 l 635 0 l 526 0 l 554 169 l 549 169 q 453 33 508 83 q 310 -17 397 -17 q 167 38 219 -17 q 115 190 115 92 q 124 283 115 235 l 196 717 l 304 717 l 233 293 q 228 248 229 268 q 226 217 226 228 q 256 116 226 153 q 346 79 285 79 q 430 100 393 79 q 497 157 467 121 q 515 178 503 164 q 539 215 526 193 q 563 263 551 236 q 579 321 574 290 l 646 717 l 778 717 l 803 871 l 899 871 l 875 731 m 585 856 q 538 866 556 856 q 496 889 519 876 q 455 909 472 901 q 419 917 438 917 q 377 907 397 917 q 335 879 357 897 l 292 935 q 349 984 315 963 q 426 1006 382 1006 q 474 995 456 1006 q 515 972 492 985 q 556 952 539 960 q 592 944 574 944 q 634 954 614 944 q 676 982 654 964 l 719 926 q 663 877 696 899 q 585 856 629 856 z "},"ǖ":{"ha":833,"x_min":115,"x_max":754,"o":"m 554 169 l 549 169 q 453 33 508 83 q 310 -17 397 -17 q 167 38 219 -17 q 115 190 115 92 q 124 283 115 235 l 196 717 l 304 717 l 233 293 q 228 248 229 268 q 226 217 226 228 q 256 116 226 153 q 346 79 285 79 q 430 100 393 79 q 497 157 467 121 q 515 178 503 164 q 539 215 526 193 q 563 263 551 236 q 579 321 574 290 l 646 717 l 754 717 l 635 0 l 526 0 l 554 169 m 344 1146 l 729 1146 l 714 1053 l 329 1053 l 344 1146 m 358 831 q 302 846 318 831 q 286 881 286 861 q 288 898 286 888 q 292 915 289 908 q 315 959 299 943 q 374 975 332 975 q 430 960 414 975 q 446 925 446 944 q 444 908 446 918 q 440 890 443 897 q 417 847 433 863 q 358 831 400 831 m 628 831 q 572 846 588 831 q 556 881 556 861 q 557 898 556 888 q 561 915 558 908 q 585 959 568 943 q 643 975 601 975 q 699 960 683 975 q 715 925 715 944 q 714 908 715 918 q 710 890 713 897 q 686 847 703 863 q 628 831 669 831 z "},"ǘ":{"ha":833,"x_min":115,"x_max":754,"o":"m 554 169 l 549 169 q 453 33 508 83 q 310 -17 397 -17 q 167 38 219 -17 q 115 190 115 92 q 124 283 115 235 l 196 717 l 304 717 l 233 293 q 228 248 229 268 q 226 217 226 228 q 256 116 226 153 q 346 79 285 79 q 430 100 393 79 q 497 157 467 121 q 515 178 503 164 q 539 215 526 193 q 563 263 551 236 q 579 321 574 290 l 646 717 l 754 717 l 635 0 l 526 0 l 554 169 m 518 983 l 457 1019 l 607 1250 l 697 1199 l 518 983 m 358 831 q 302 846 318 831 q 286 881 286 861 q 288 898 286 888 q 292 915 289 908 q 315 959 299 943 q 374 975 332 975 q 430 960 414 975 q 446 925 446 944 q 444 908 446 918 q 440 890 443 897 q 417 847 433 863 q 358 831 400 831 m 628 831 q 572 846 588 831 q 556 881 556 861 q 557 898 556 888 q 561 915 558 908 q 585 959 568 943 q 643 975 601 975 q 699 960 683 975 q 715 925 715 944 q 714 908 715 918 q 710 890 713 897 q 686 847 703 863 q 628 831 669 831 z "},"ǜ":{"ha":833,"x_min":115,"x_max":754,"o":"m 554 169 l 549 169 q 453 33 508 83 q 310 -17 397 -17 q 167 38 219 -17 q 115 190 115 92 q 124 283 115 235 l 196 717 l 304 717 l 233 293 q 228 248 229 268 q 226 217 226 228 q 256 116 226 153 q 346 79 285 79 q 430 100 393 79 q 497 157 467 121 q 515 178 503 164 q 539 215 526 193 q 563 263 551 236 q 579 321 574 290 l 646 717 l 754 717 l 635 0 l 526 0 l 554 169 m 385 1219 l 483 1256 l 556 1014 l 489 989 l 385 1219 m 358 831 q 302 846 318 831 q 286 881 286 861 q 288 898 286 888 q 292 915 289 908 q 315 959 299 943 q 374 975 332 975 q 430 960 414 975 q 446 925 446 944 q 444 908 446 918 q 440 890 443 897 q 417 847 433 863 q 358 831 400 831 m 628 831 q 572 846 588 831 q 556 881 556 861 q 557 898 556 888 q 561 915 558 908 q 585 959 568 943 q 643 975 601 975 q 699 960 683 975 q 715 925 715 944 q 714 908 715 918 q 710 890 713 897 q 686 847 703 863 q 628 831 669 831 z "},"ǚ":{"ha":833,"x_min":115,"x_max":767,"o":"m 554 169 l 549 169 q 453 33 508 83 q 310 -17 397 -17 q 167 38 219 -17 q 115 190 115 92 q 124 283 115 235 l 196 717 l 304 717 l 233 293 q 228 248 229 268 q 226 217 226 228 q 256 116 226 153 q 346 79 285 79 q 430 100 393 79 q 497 157 467 121 q 515 178 503 164 q 539 215 526 193 q 563 263 551 236 q 579 321 574 290 l 646 717 l 754 717 l 635 0 l 526 0 l 554 169 m 450 1013 l 325 1217 l 389 1254 l 522 1094 l 713 1254 l 767 1208 l 578 1013 l 450 1013 m 358 831 q 302 846 318 831 q 286 881 286 861 q 288 898 286 888 q 292 915 289 908 q 315 959 299 943 q 374 975 332 975 q 430 960 414 975 q 446 925 446 944 q 444 908 446 918 q 440 890 443 897 q 417 847 433 863 q 358 831 400 831 m 628 831 q 572 846 588 831 q 556 881 556 861 q 557 898 556 888 q 561 915 558 908 q 585 959 568 943 q 643 975 601 975 q 699 960 683 975 q 715 925 715 944 q 714 908 715 918 q 710 890 713 897 q 686 847 703 863 q 628 831 669 831 z "},"ẃ":{"ha":833,"x_min":60,"x_max":788,"o":"m 185 -14 q 91 24 122 -14 q 60 128 60 63 q 62 172 60 150 q 68 221 64 193 l 150 717 l 247 717 l 169 240 q 161 154 161 192 q 177 94 161 113 q 224 75 193 75 q 272 90 251 75 q 313 131 293 106 q 342 194 332 158 q 358 258 353 231 l 438 717 l 532 717 l 454 240 q 449 194 450 214 q 447 156 447 174 q 462 94 447 113 q 508 75 476 75 q 581 114 547 75 q 638 215 614 153 q 676 356 663 278 q 690 510 690 433 q 682 613 690 563 q 658 696 674 663 l 750 724 q 777 633 767 688 q 788 515 788 579 q 760 277 788 389 q 679 92 732 165 q 486 -14 603 -14 q 435 -6 458 -14 q 397 19 413 1 q 373 64 381 36 q 368 132 365 92 l 361 132 q 291 25 331 64 q 185 -14 251 -14 m 511 813 l 446 851 l 596 1082 l 690 1028 l 511 813 z "},"ŵ":{"ha":833,"x_min":60,"x_max":788,"o":"m 185 -14 q 91 24 122 -14 q 60 128 60 63 q 62 172 60 150 q 68 221 64 193 l 150 717 l 247 717 l 169 240 q 161 154 161 192 q 177 94 161 113 q 224 75 193 75 q 272 90 251 75 q 313 131 293 106 q 342 194 332 158 q 358 258 353 231 l 438 717 l 532 717 l 454 240 q 449 194 450 214 q 447 156 447 174 q 462 94 447 113 q 508 75 476 75 q 581 114 547 75 q 638 215 614 153 q 676 356 663 278 q 690 510 690 433 q 682 613 690 563 q 658 696 674 663 l 750 724 q 777 633 767 688 q 788 515 788 579 q 760 277 788 389 q 679 92 732 165 q 486 -14 603 -14 q 435 -6 458 -14 q 397 19 413 1 q 373 64 381 36 q 368 132 365 92 l 361 132 q 291 25 331 64 q 185 -14 251 -14 m 607 1063 l 728 858 l 664 821 l 531 983 l 340 821 l 286 867 l 471 1063 l 607 1063 z "},"ẅ":{"ha":833,"x_min":60,"x_max":788,"o":"m 185 -14 q 91 24 122 -14 q 60 128 60 63 q 62 172 60 150 q 68 221 64 193 l 150 717 l 247 717 l 169 240 q 161 154 161 192 q 177 94 161 113 q 224 75 193 75 q 272 90 251 75 q 313 131 293 106 q 342 194 332 158 q 358 258 353 231 l 438 717 l 532 717 l 454 240 q 449 194 450 214 q 447 156 447 174 q 462 94 447 113 q 508 75 476 75 q 581 114 547 75 q 638 215 614 153 q 676 356 663 278 q 690 510 690 433 q 682 613 690 563 q 658 696 674 663 l 750 724 q 777 633 767 688 q 788 515 788 579 q 760 277 788 389 q 679 92 732 165 q 486 -14 603 -14 q 435 -6 458 -14 q 397 19 413 1 q 373 64 381 36 q 368 132 365 92 l 361 132 q 291 25 331 64 q 185 -14 251 -14 m 381 860 q 324 875 340 860 q 308 910 308 890 q 310 926 308 917 q 314 944 311 935 q 338 988 321 972 q 396 1004 354 1004 q 452 989 436 1004 q 468 954 468 974 q 467 938 468 947 q 463 919 465 929 q 439 876 456 892 q 381 860 422 860 m 639 860 q 583 875 599 860 q 567 910 567 890 q 568 926 567 917 q 572 944 569 935 q 596 988 579 972 q 654 1004 613 1004 q 710 989 694 1004 q 726 954 726 974 q 725 938 726 947 q 721 919 724 929 q 697 876 714 892 q 639 860 681 860 z "},"ẁ":{"ha":833,"x_min":60,"x_max":788,"o":"m 185 -14 q 91 24 122 -14 q 60 128 60 63 q 62 172 60 150 q 68 221 64 193 l 150 717 l 247 717 l 169 240 q 161 154 161 192 q 177 94 161 113 q 224 75 193 75 q 272 90 251 75 q 313 131 293 106 q 342 194 332 158 q 358 258 353 231 l 438 717 l 532 717 l 454 240 q 449 194 450 214 q 447 156 447 174 q 462 94 447 113 q 508 75 476 75 q 581 114 547 75 q 638 215 614 153 q 676 356 663 278 q 690 510 690 433 q 682 613 690 563 q 658 696 674 663 l 750 724 q 777 633 767 688 q 788 515 788 579 q 760 277 788 389 q 679 92 732 165 q 486 -14 603 -14 q 435 -6 458 -14 q 397 19 413 1 q 373 64 381 36 q 368 132 365 92 l 361 132 q 291 25 331 64 q 185 -14 251 -14 m 385 1044 l 488 1082 l 560 840 l 489 813 l 385 1044 z "},"ý":{"ha":833,"x_min":38,"x_max":754,"o":"m 289 -294 q 38 -196 117 -294 l 113 -124 q 185 -179 140 -160 q 296 -199 229 -199 q 453 -148 396 -199 q 531 21 511 -97 l 558 190 l 554 190 q 458 54 514 104 q 314 4 401 4 q 171 58 224 4 q 118 211 118 113 q 120 251 118 231 q 126 300 122 272 l 196 717 l 304 717 l 236 310 q 231 267 232 286 q 229 238 229 249 q 259 137 229 174 q 350 100 289 100 q 434 121 397 100 q 501 178 471 142 q 519 199 507 185 q 543 235 531 214 q 567 284 556 257 q 583 342 578 311 l 646 717 l 754 717 l 635 0 q 515 -226 607 -158 q 289 -294 424 -294 m 507 813 l 442 851 l 592 1082 l 686 1028 l 507 813 z "},"ŷ":{"ha":833,"x_min":38,"x_max":754,"o":"m 289 -294 q 38 -196 117 -294 l 113 -124 q 185 -179 140 -160 q 296 -199 229 -199 q 453 -148 396 -199 q 531 21 511 -97 l 558 190 l 554 190 q 458 54 514 104 q 314 4 401 4 q 171 58 224 4 q 118 211 118 113 q 120 251 118 231 q 126 300 122 272 l 196 717 l 304 717 l 236 310 q 231 267 232 286 q 229 238 229 249 q 259 137 229 174 q 350 100 289 100 q 434 121 397 100 q 501 178 471 142 q 519 199 507 185 q 543 235 531 214 q 567 284 556 257 q 583 342 578 311 l 646 717 l 754 717 l 635 0 q 515 -226 607 -158 q 289 -294 424 -294 m 603 1063 l 724 858 l 660 821 l 526 983 l 336 821 l 282 867 l 467 1063 l 603 1063 z "},"ÿ":{"ha":833,"x_min":38,"x_max":754,"o":"m 289 -294 q 38 -196 117 -294 l 113 -124 q 185 -179 140 -160 q 296 -199 229 -199 q 453 -148 396 -199 q 531 21 511 -97 l 558 190 l 554 190 q 458 54 514 104 q 314 4 401 4 q 171 58 224 4 q 118 211 118 113 q 120 251 118 231 q 126 300 122 272 l 196 717 l 304 717 l 236 310 q 231 267 232 286 q 229 238 229 249 q 259 137 229 174 q 350 100 289 100 q 434 121 397 100 q 501 178 471 142 q 519 199 507 185 q 543 235 531 214 q 567 284 556 257 q 583 342 578 311 l 646 717 l 754 717 l 635 0 q 515 -226 607 -158 q 289 -294 424 -294 m 376 860 q 320 875 336 860 q 304 910 304 890 q 306 926 304 917 q 310 944 307 935 q 333 988 317 972 q 392 1004 350 1004 q 448 989 432 1004 q 464 954 464 974 q 463 938 464 947 q 458 919 461 929 q 435 876 451 892 q 376 860 418 860 m 635 860 q 578 875 594 860 q 563 910 563 890 q 564 926 563 917 q 568 944 565 935 q 592 988 575 972 q 650 1004 608 1004 q 706 989 690 1004 q 722 954 722 974 q 721 938 722 947 q 717 919 719 929 q 693 876 710 892 q 635 860 676 860 z "},"ỵ":{"ha":833,"x_min":38,"x_max":754,"o":"m 289 -294 q 38 -196 117 -294 l 113 -124 q 185 -179 140 -160 q 296 -199 229 -199 q 453 -148 396 -199 q 531 21 511 -97 l 558 190 l 554 190 q 458 54 514 104 q 314 4 401 4 q 171 58 224 4 q 118 211 118 113 q 120 251 118 231 q 126 300 122 272 l 196 717 l 304 717 l 236 310 q 231 267 232 286 q 229 238 229 249 q 259 137 229 174 q 350 100 289 100 q 434 121 397 100 q 501 178 471 142 q 519 199 507 185 q 543 235 531 214 q 567 284 556 257 q 583 342 578 311 l 646 717 l 754 717 l 635 0 q 592 -135 622 -79 q 516 -227 561 -192 q 413 -278 471 -262 q 289 -294 356 -294 m 300 -162 q 250 -149 264 -162 q 236 -118 236 -136 q 237 -101 236 -111 q 240 -85 238 -92 q 262 -46 247 -61 q 314 -31 276 -31 q 364 -44 350 -31 q 378 -75 378 -57 q 377 -92 378 -82 q 374 -108 376 -101 q 352 -147 367 -132 q 300 -162 338 -162 z "},"ỳ":{"ha":833,"x_min":38,"x_max":754,"o":"m 289 -294 q 38 -196 117 -294 l 113 -124 q 185 -179 140 -160 q 296 -199 229 -199 q 453 -148 396 -199 q 531 21 511 -97 l 558 190 l 554 190 q 458 54 514 104 q 314 4 401 4 q 171 58 224 4 q 118 211 118 113 q 120 251 118 231 q 126 300 122 272 l 196 717 l 304 717 l 236 310 q 231 267 232 286 q 229 238 229 249 q 259 137 229 174 q 350 100 289 100 q 434 121 397 100 q 501 178 471 142 q 519 199 507 185 q 543 235 531 214 q 567 284 556 257 q 583 342 578 311 l 646 717 l 754 717 l 635 0 q 515 -226 607 -158 q 289 -294 424 -294 m 381 1044 l 483 1082 l 556 840 l 485 813 l 381 1044 z "},"ỷ":{"ha":833,"x_min":38,"x_max":754,"o":"m 289 -294 q 38 -196 117 -294 l 113 -124 q 185 -179 140 -160 q 296 -199 229 -199 q 453 -148 396 -199 q 531 21 511 -97 l 558 190 l 554 190 q 458 54 514 104 q 314 4 401 4 q 171 58 224 4 q 118 211 118 113 q 120 251 118 231 q 126 300 122 272 l 196 717 l 304 717 l 236 310 q 231 267 232 286 q 229 238 229 249 q 259 137 229 174 q 350 100 289 100 q 434 121 397 100 q 501 178 471 142 q 519 199 507 185 q 543 235 531 214 q 567 284 556 257 q 583 342 578 311 l 646 717 l 754 717 l 635 0 q 515 -226 607 -158 q 289 -294 424 -294 m 421 1063 l 563 1063 q 633 1042 611 1063 q 656 990 656 1022 q 637 927 656 958 q 583 860 618 896 l 528 801 l 468 839 l 567 978 l 407 978 l 421 1063 z "},"ỹ":{"ha":833,"x_min":38,"x_max":754,"o":"m 289 -294 q 38 -196 117 -294 l 113 -124 q 185 -179 140 -160 q 296 -199 229 -199 q 453 -148 396 -199 q 531 21 511 -97 l 558 190 l 554 190 q 458 54 514 104 q 314 4 401 4 q 171 58 224 4 q 118 211 118 113 q 120 251 118 231 q 126 300 122 272 l 196 717 l 304 717 l 236 310 q 231 267 232 286 q 229 238 229 249 q 259 137 229 174 q 350 100 289 100 q 434 121 397 100 q 501 178 471 142 q 519 199 507 185 q 543 235 531 214 q 567 284 556 257 q 583 342 578 311 l 646 717 l 754 717 l 635 0 q 515 -226 607 -158 q 289 -294 424 -294 m 606 850 q 546 863 571 850 q 500 889 521 876 q 453 913 476 904 q 411 921 431 921 q 368 910 389 921 q 324 881 347 900 l 285 938 q 343 988 308 965 q 422 1010 378 1010 q 482 997 457 1010 q 528 971 507 983 q 574 947 551 956 q 617 939 597 939 q 660 949 639 939 q 704 979 681 960 l 743 922 q 685 872 719 894 q 606 850 650 850 z "},"ź":{"ha":833,"x_min":71,"x_max":776,"o":"m 590 -14 q 528 -8 561 -14 q 450 14 494 -1 l 201 97 l 194 92 l 181 0 l 71 0 l 86 108 l 583 565 q 445 625 497 608 q 354 642 393 642 q 290 628 314 642 q 252 590 265 614 q 235 536 239 567 q 231 474 231 506 l 142 474 l 142 490 q 198 671 142 608 q 358 733 254 733 q 477 711 417 733 q 618 640 538 689 l 646 624 l 653 629 l 667 717 l 776 717 l 761 611 l 264 156 l 618 74 l 633 89 l 590 278 l 669 306 l 692 250 q 717 176 707 214 q 728 106 728 138 q 692 23 728 60 q 590 -14 656 -14 m 488 813 l 422 851 l 572 1082 l 667 1028 l 488 813 z "},"ž":{"ha":833,"x_min":71,"x_max":776,"o":"m 590 -14 q 528 -8 561 -14 q 450 14 494 -1 l 201 97 l 194 92 l 181 0 l 71 0 l 86 108 l 583 565 q 445 625 497 608 q 354 642 393 642 q 290 628 314 642 q 252 590 265 614 q 235 536 239 567 q 231 474 231 506 l 142 474 l 142 490 q 198 671 142 608 q 358 733 254 733 q 477 711 417 733 q 618 640 538 689 l 646 624 l 653 629 l 667 717 l 776 717 l 761 611 l 264 156 l 618 74 l 633 89 l 590 278 l 669 306 l 692 250 q 717 176 707 214 q 728 106 728 138 q 692 23 728 60 q 590 -14 656 -14 m 410 832 l 289 1036 l 353 1074 l 486 911 l 676 1074 l 731 1028 l 546 832 l 410 832 z "},"ż":{"ha":833,"x_min":71,"x_max":776,"o":"m 590 -14 q 528 -8 561 -14 q 450 14 494 -1 l 201 97 l 194 92 l 181 0 l 71 0 l 86 108 l 583 565 q 445 625 497 608 q 354 642 393 642 q 290 628 314 642 q 252 590 265 614 q 235 536 239 567 q 231 474 231 506 l 142 474 l 142 490 q 198 671 142 608 q 358 733 254 733 q 477 711 417 733 q 618 640 538 689 l 646 624 l 653 629 l 667 717 l 776 717 l 761 611 l 264 156 l 618 74 l 633 89 l 590 278 l 669 306 l 692 250 q 717 176 707 214 q 728 106 728 138 q 692 23 728 60 q 590 -14 656 -14 m 483 850 q 421 867 439 850 q 403 906 403 883 q 405 926 403 913 q 408 946 407 939 q 433 992 413 971 q 500 1013 454 1013 q 563 996 544 1013 q 581 957 581 979 q 578 937 581 950 q 575 917 576 924 q 550 871 571 892 q 483 850 529 850 z "},"Á":{"ha":833,"x_min":-12,"x_max":733,"o":"m 614 0 l 579 276 l 238 276 l 110 0 l -12 0 l 446 969 l 599 969 l 733 0 l 614 0 m 508 853 l 496 853 l 281 378 l 568 378 l 508 853 m 547 1049 l 482 1088 l 632 1318 l 726 1264 l 547 1049 z "},"Ă":{"ha":833,"x_min":-12,"x_max":792,"o":"m 614 0 l 579 276 l 238 276 l 110 0 l -12 0 l 446 969 l 599 969 l 733 0 l 614 0 m 508 853 l 496 853 l 281 378 l 568 378 l 508 853 m 540 1063 q 449 1083 485 1063 q 392 1135 414 1104 q 359 1203 369 1167 q 344 1272 349 1240 l 411 1301 l 432 1254 q 453 1208 443 1228 q 476 1176 464 1189 q 503 1156 488 1163 q 543 1150 519 1150 q 581 1156 565 1150 q 613 1174 597 1161 q 646 1206 629 1186 q 685 1254 663 1226 l 722 1301 l 792 1272 q 756 1203 776 1240 q 706 1135 735 1167 q 635 1083 676 1104 q 540 1063 594 1063 z "},"Ǎ":{"ha":833,"x_min":-12,"x_max":790,"o":"m 614 0 l 579 276 l 238 276 l 110 0 l -12 0 l 446 969 l 599 969 l 733 0 l 614 0 m 508 853 l 496 853 l 281 378 l 568 378 l 508 853 m 469 1068 l 349 1272 l 413 1310 l 546 1147 l 736 1310 l 790 1264 l 606 1068 l 469 1068 z "},"Â":{"ha":833,"x_min":-12,"x_max":764,"o":"m 614 0 l 579 276 l 238 276 l 110 0 l -12 0 l 446 969 l 599 969 l 733 0 l 614 0 m 508 853 l 496 853 l 281 378 l 568 378 l 508 853 m 643 1299 l 764 1094 l 700 1057 l 567 1219 l 376 1057 l 322 1103 l 507 1299 l 643 1299 z "},"Ä":{"ha":833,"x_min":-12,"x_max":763,"o":"m 614 0 l 579 276 l 238 276 l 110 0 l -12 0 l 446 969 l 599 969 l 733 0 l 614 0 m 508 853 l 496 853 l 281 378 l 568 378 l 508 853 m 417 1096 q 360 1111 376 1096 q 344 1146 344 1126 q 346 1163 344 1153 q 350 1181 347 1174 q 374 1224 357 1208 q 432 1240 390 1240 q 488 1225 472 1240 q 504 1190 504 1210 q 503 1173 504 1183 q 499 1156 501 1163 q 475 1112 492 1128 q 417 1096 458 1096 m 675 1096 q 619 1111 635 1096 q 603 1146 603 1126 q 604 1163 603 1153 q 608 1181 606 1174 q 632 1224 615 1208 q 690 1240 649 1240 q 747 1225 731 1240 q 763 1190 763 1210 q 761 1173 763 1183 q 757 1156 760 1163 q 733 1112 750 1128 q 675 1096 717 1096 z "},"Ạ":{"ha":833,"x_min":-12,"x_max":733,"o":"m 614 0 l 579 276 l 238 276 l 110 0 l -12 0 l 446 969 l 599 969 l 733 0 l 614 0 m 508 853 l 496 853 l 281 378 l 568 378 l 508 853 m 332 -237 q 276 -222 292 -237 q 260 -187 260 -207 q 261 -169 260 -181 q 265 -151 263 -158 q 289 -108 272 -125 q 347 -92 306 -92 q 403 -107 388 -92 q 419 -142 419 -122 q 418 -160 419 -149 q 414 -178 417 -171 q 390 -221 407 -204 q 332 -237 374 -237 z "},"À":{"ha":833,"x_min":-12,"x_max":733,"o":"m 614 0 l 579 276 l 238 276 l 110 0 l -12 0 l 446 969 l 599 969 l 733 0 l 614 0 m 508 853 l 496 853 l 281 378 l 568 378 l 508 853 m 422 1275 l 524 1318 l 596 1076 l 525 1049 l 422 1275 z "},"Ả":{"ha":833,"x_min":-12,"x_max":733,"o":"m 614 0 l 579 276 l 238 276 l 110 0 l -12 0 l 446 969 l 599 969 l 733 0 l 614 0 m 508 853 l 496 853 l 281 378 l 568 378 l 508 853 m 461 1299 l 603 1299 q 674 1278 651 1299 q 696 1226 696 1258 q 677 1163 696 1194 q 624 1096 658 1132 l 568 1038 l 508 1075 l 607 1214 l 447 1214 l 461 1299 z "},"Ā":{"ha":833,"x_min":-12,"x_max":753,"o":"m 614 0 l 579 276 l 238 276 l 110 0 l -12 0 l 446 969 l 599 969 l 733 0 l 614 0 m 508 853 l 496 853 l 281 378 l 568 378 l 508 853 m 368 1215 l 753 1215 l 738 1122 l 353 1122 l 368 1215 z "},"Ą":{"ha":833,"x_min":-12,"x_max":743,"o":"m 446 969 l 599 969 l 733 0 q 644 -63 678 -36 q 594 -110 611 -90 q 571 -144 576 -131 q 565 -169 565 -158 q 579 -203 565 -193 q 613 -212 593 -212 q 690 -176 650 -212 l 743 -236 q 690 -272 724 -256 q 607 -287 656 -287 q 556 -282 581 -287 q 512 -264 531 -276 q 482 -231 493 -251 q 471 -183 471 -211 q 519 -85 471 -126 q 646 -7 568 -43 l 646 0 l 614 0 l 579 276 l 238 276 l 110 0 l -12 0 l 446 969 m 508 853 l 496 853 l 281 378 l 568 378 l 508 853 z "},"Å":{"ha":833,"x_min":-12,"x_max":733,"o":"m 614 0 l 579 276 l 238 276 l 110 0 l -12 0 l 446 969 l 599 969 l 733 0 l 614 0 m 508 853 l 496 853 l 281 378 l 568 378 l 508 853 m 538 1039 q 436 1077 475 1039 q 397 1176 397 1115 q 412 1246 397 1214 q 451 1301 426 1278 q 508 1339 476 1325 q 576 1353 540 1353 q 678 1315 639 1353 q 717 1215 717 1276 q 702 1146 717 1178 q 663 1090 688 1114 q 605 1053 638 1067 q 538 1039 572 1039 m 543 1104 q 603 1124 579 1104 q 635 1182 628 1144 q 639 1207 638 1194 q 640 1226 640 1219 q 623 1271 640 1254 q 571 1288 606 1288 q 510 1267 535 1288 q 479 1210 486 1247 q 475 1185 476 1197 q 474 1165 474 1172 q 491 1121 474 1138 q 543 1104 508 1104 z "},"Ǻ":{"ha":833,"x_min":-12,"x_max":739,"o":"m 614 0 l 579 276 l 238 276 l 110 0 l -12 0 l 446 969 l 599 969 l 733 0 l 614 0 m 508 853 l 496 853 l 281 378 l 568 378 l 508 853 m 592 1367 l 540 1406 l 665 1564 l 739 1510 l 592 1367 m 538 1025 q 436 1063 475 1025 q 397 1163 397 1101 q 412 1232 397 1200 q 451 1288 426 1264 q 508 1325 476 1311 q 576 1339 540 1339 q 678 1301 639 1339 q 717 1201 717 1263 q 702 1132 717 1164 q 663 1076 688 1100 q 605 1039 638 1053 q 538 1025 572 1025 m 543 1090 q 601 1108 575 1090 q 635 1168 626 1125 q 639 1195 638 1185 q 640 1213 640 1206 q 623 1257 640 1240 q 571 1274 606 1274 q 513 1256 539 1274 q 479 1196 488 1239 q 475 1169 476 1179 q 474 1151 474 1158 q 491 1107 474 1124 q 543 1090 508 1090 z "},"Ã":{"ha":833,"x_min":-12,"x_max":783,"o":"m 614 0 l 579 276 l 238 276 l 110 0 l -12 0 l 446 969 l 599 969 l 733 0 l 614 0 m 508 853 l 496 853 l 281 378 l 568 378 l 508 853 m 646 1086 q 586 1099 611 1086 q 540 1125 561 1113 q 494 1149 517 1140 q 451 1157 471 1157 q 408 1147 429 1157 q 364 1117 388 1136 l 325 1174 q 383 1224 349 1201 q 463 1246 418 1246 q 522 1233 497 1246 q 568 1207 547 1219 q 615 1183 592 1192 q 657 1175 638 1175 q 700 1185 679 1175 q 744 1215 721 1196 l 783 1158 q 725 1108 760 1131 q 646 1086 690 1086 z "},"Ắ":{"ha":833,"x_min":-12,"x_max":797,"o":"m 614 0 l 579 276 l 238 276 l 110 0 l -12 0 l 446 969 l 599 969 l 733 0 l 614 0 m 508 853 l 496 853 l 281 378 l 568 378 l 508 853 m 535 1049 q 442 1067 478 1049 q 385 1115 407 1086 q 352 1177 363 1143 q 338 1242 342 1211 l 400 1274 l 422 1229 q 472 1157 447 1179 q 542 1135 497 1135 q 615 1155 582 1135 q 693 1229 649 1175 l 729 1274 l 797 1242 q 758 1174 781 1208 q 704 1113 736 1140 q 631 1067 672 1085 q 535 1049 589 1049 m 561 1219 l 500 1256 l 650 1486 l 740 1435 l 561 1219 z "},"Ặ":{"ha":833,"x_min":-12,"x_max":792,"o":"m 614 0 l 579 276 l 238 276 l 110 0 l -12 0 l 446 969 l 599 969 l 733 0 l 614 0 m 508 853 l 496 853 l 281 378 l 568 378 l 508 853 m 540 1063 q 449 1083 485 1063 q 392 1135 414 1104 q 359 1203 369 1167 q 344 1272 349 1240 l 411 1301 l 432 1254 q 453 1208 443 1228 q 476 1176 464 1189 q 503 1156 488 1163 q 543 1150 519 1150 q 581 1156 565 1150 q 613 1174 597 1161 q 646 1206 629 1186 q 685 1254 663 1226 l 722 1301 l 792 1272 q 756 1203 776 1240 q 706 1135 735 1167 q 635 1083 676 1104 q 540 1063 594 1063 m 332 -237 q 276 -222 292 -237 q 260 -187 260 -207 q 261 -169 260 -181 q 265 -151 263 -158 q 289 -108 272 -125 q 347 -92 306 -92 q 403 -107 388 -92 q 419 -142 419 -122 q 418 -160 419 -149 q 414 -178 417 -171 q 390 -221 407 -204 q 332 -237 374 -237 z "},"Ằ":{"ha":833,"x_min":-12,"x_max":797,"o":"m 614 0 l 579 276 l 238 276 l 110 0 l -12 0 l 446 969 l 599 969 l 733 0 l 614 0 m 508 853 l 496 853 l 281 378 l 568 378 l 508 853 m 535 1049 q 442 1067 478 1049 q 385 1115 407 1086 q 352 1177 363 1143 q 338 1242 342 1211 l 400 1274 l 422 1229 q 472 1157 447 1179 q 542 1135 497 1135 q 615 1155 582 1135 q 693 1229 649 1175 l 729 1274 l 797 1242 q 758 1174 781 1208 q 704 1113 736 1140 q 631 1067 672 1085 q 535 1049 589 1049 m 428 1450 l 526 1486 l 599 1244 l 532 1219 l 428 1450 z "},"Ẳ":{"ha":833,"x_min":-12,"x_max":797,"o":"m 614 0 l 579 276 l 238 276 l 110 0 l -12 0 l 446 969 l 599 969 l 733 0 l 614 0 m 508 853 l 496 853 l 281 378 l 568 378 l 508 853 m 464 1472 l 588 1472 q 658 1451 636 1472 q 681 1401 681 1431 q 667 1351 681 1376 q 629 1299 653 1326 l 551 1211 l 493 1249 l 592 1388 l 449 1388 l 464 1472 m 535 1049 q 442 1067 478 1049 q 385 1115 407 1086 q 352 1177 363 1143 q 338 1242 342 1211 l 400 1274 l 422 1229 q 472 1157 447 1179 q 542 1135 497 1135 q 615 1155 582 1135 q 693 1229 649 1175 l 729 1274 l 797 1242 q 758 1174 781 1208 q 704 1113 736 1140 q 631 1067 672 1085 q 535 1049 589 1049 z "},"Ẵ":{"ha":833,"x_min":-12,"x_max":806,"o":"m 614 0 l 579 276 l 238 276 l 110 0 l -12 0 l 446 969 l 599 969 l 733 0 l 614 0 m 508 853 l 496 853 l 281 378 l 568 378 l 508 853 m 667 1315 q 607 1326 632 1315 q 561 1346 582 1336 q 510 1367 531 1360 q 472 1374 490 1374 q 431 1364 450 1374 q 388 1336 411 1354 l 349 1385 q 406 1435 372 1413 q 488 1457 439 1457 q 547 1447 522 1457 q 593 1426 572 1436 q 644 1406 624 1413 q 682 1399 664 1399 q 724 1408 704 1399 q 767 1436 743 1418 l 806 1388 q 749 1338 782 1360 q 667 1315 715 1315 m 535 1049 q 442 1067 478 1049 q 385 1115 407 1086 q 352 1177 363 1143 q 338 1242 342 1211 l 400 1274 l 422 1229 q 472 1157 447 1179 q 542 1135 497 1135 q 615 1155 582 1135 q 693 1229 649 1175 l 729 1274 l 797 1242 q 758 1174 781 1208 q 704 1113 736 1140 q 631 1067 672 1085 q 535 1049 589 1049 z "},"Ấ":{"ha":833,"x_min":-12,"x_max":947,"o":"m 614 0 l 579 276 l 238 276 l 110 0 l -12 0 l 446 969 l 599 969 l 733 0 l 614 0 m 508 853 l 496 853 l 281 378 l 568 378 l 508 853 m 768 1219 l 707 1256 l 857 1486 l 947 1435 l 768 1219 m 640 1285 l 761 1081 l 697 1043 l 564 1206 l 374 1043 l 319 1089 l 504 1285 l 640 1285 z "},"Ậ":{"ha":833,"x_min":-12,"x_max":764,"o":"m 614 0 l 579 276 l 238 276 l 110 0 l -12 0 l 446 969 l 599 969 l 733 0 l 614 0 m 508 853 l 496 853 l 281 378 l 568 378 l 508 853 m 643 1299 l 764 1094 l 700 1057 l 567 1219 l 376 1057 l 322 1103 l 507 1299 l 643 1299 m 332 -237 q 276 -222 292 -237 q 260 -187 260 -207 q 261 -169 260 -181 q 265 -151 263 -158 q 289 -108 272 -125 q 347 -92 306 -92 q 403 -107 388 -92 q 419 -142 419 -122 q 418 -160 419 -149 q 414 -178 417 -171 q 390 -221 407 -204 q 332 -237 374 -237 z "},"Ầ":{"ha":833,"x_min":-12,"x_max":761,"o":"m 614 0 l 579 276 l 238 276 l 110 0 l -12 0 l 446 969 l 599 969 l 733 0 l 614 0 m 508 853 l 496 853 l 281 378 l 568 378 l 508 853 m 253 1457 l 351 1493 l 424 1251 l 357 1226 l 253 1457 m 640 1285 l 761 1081 l 697 1043 l 564 1206 l 374 1043 l 319 1089 l 504 1285 l 640 1285 z "}}}
